<svg width="269" height="269" viewBox="0 0 269 269" fill="none" xmlns="http://www.w3.org/2000/svg">
<path d="M134.398 255.573C205.171 255.573 262.544 222.449 262.544 181.587C262.544 140.726 205.171 107.602 134.398 107.602C63.6246 107.602 6.25159 140.726 6.25159 181.587C6.25159 222.449 63.6246 255.573 134.398 255.573Z" fill="#43E5A0" fill-opacity="0.2"/>
<path d="M226.778 194.722C226.755 194.673 226.728 194.627 226.697 194.582C226.673 194.552 226.648 194.524 226.622 194.496C226.6 194.459 226.572 194.424 226.541 194.394L226.444 194.303C226.337 194.211 226.222 194.13 226.1 194.06L106.293 124.895C105.693 124.594 105.032 124.438 104.361 124.438C103.691 124.438 103.029 124.594 102.43 124.895L40.0863 160.791C40.0075 160.833 39.932 160.882 39.8604 160.936C39.8604 160.936 39.8012 160.973 39.7797 160.995C39.6534 161.099 39.5445 161.223 39.4569 161.361C39.436 161.389 39.418 161.42 39.4031 161.452C39.3758 161.5 39.3541 161.55 39.3385 161.603C39.3276 161.642 39.3186 161.681 39.3116 161.721C39.304 161.786 39.304 161.851 39.3116 161.915C39.3088 161.96 39.3088 162.005 39.3116 162.049C39.321 162.1 39.3336 162.151 39.3493 162.2C39.3665 162.25 39.3881 162.299 39.4138 162.345C39.5691 162.628 39.8026 162.86 40.0863 163.013L159.899 232.172C160.256 232.366 160.644 232.499 161.045 232.565C161.305 232.606 161.567 232.627 161.83 232.63C162.09 232.629 162.349 232.609 162.605 232.571C162.69 232.56 162.775 232.544 162.858 232.522C163.097 232.467 163.329 232.387 163.552 232.285C163.627 232.253 163.692 232.21 163.762 232.172L226.1 196.282C226.832 195.863 227.036 195.26 226.778 194.722Z" fill="#E0E0E0"/>
<path d="M219.133 176.211C233.85 176.211 245.78 169.322 245.78 160.824C245.78 152.326 233.85 145.438 219.133 145.438C204.416 145.438 192.486 152.326 192.486 160.824C192.486 169.322 204.416 176.211 219.133 176.211Z" fill="#E0E0E0"/>
<path d="M221.581 186.79C221.558 186.74 221.529 186.693 221.495 186.65C221.473 186.62 221.45 186.591 221.425 186.564C221.401 186.526 221.372 186.492 221.339 186.462L221.247 186.376C221.14 186.281 221.022 186.198 220.897 186.128L104.372 118.841C103.773 118.54 103.111 118.383 102.441 118.383C101.77 118.383 101.109 118.54 100.509 118.841L43.352 151.825L43.1207 151.971L43.0454 152.035C42.918 152.136 42.8088 152.258 42.7226 152.396C42.669 152.471 42.629 152.554 42.6042 152.643C42.6012 152.682 42.6012 152.722 42.6042 152.761C42.5963 152.826 42.5963 152.891 42.6042 152.955C42.6016 153 42.6016 153.045 42.6042 153.09C42.6142 153.14 42.6268 153.191 42.6419 153.24C42.6583 153.29 42.6781 153.338 42.7011 153.385C42.8611 153.67 43.1004 153.902 43.3897 154.053L159.899 221.346C160.256 221.54 160.643 221.671 161.045 221.733C161.304 221.778 161.567 221.801 161.83 221.803C162.09 221.803 162.349 221.781 162.605 221.738C162.69 221.728 162.775 221.712 162.858 221.69C163.097 221.637 163.33 221.558 163.552 221.453C163.627 221.421 163.692 221.383 163.762 221.346L220.897 188.355C221.656 187.93 221.86 187.328 221.581 186.79ZM209.029 184.401L205.376 186.516L156.692 214.599C156.567 214.673 156.435 214.738 156.3 214.793C155.902 214.958 155.476 215.043 155.046 215.043C154.616 215.043 154.19 214.958 153.793 214.793C153.657 214.738 153.526 214.673 153.4 214.599L60.9662 161.235L56.49 158.658C56.3335 158.569 56.1918 158.457 56.0704 158.324C55.6077 157.819 55.7529 157.173 56.49 156.743L108.805 126.539C109.401 126.134 110.114 125.936 110.833 125.974C111.006 125.996 111.174 126.041 111.334 126.109C111.423 126.142 111.51 126.184 111.592 126.233L209.029 182.486C209.197 182.583 209.336 182.723 209.432 182.891C209.529 183.059 209.58 183.25 209.58 183.444C209.58 183.637 209.529 183.828 209.432 183.996C209.336 184.164 209.197 184.304 209.029 184.401Z" fill="#455A64"/>
<path d="M43.1261 151.977C42.6283 152.356 42.2186 152.838 41.9251 153.391C41.6316 153.943 41.4613 154.553 41.426 155.178V157.728C41.4611 158.399 41.6544 159.053 41.99 159.635C42.3257 160.218 42.7942 160.713 43.3574 161.08L159.883 228.362C160.322 228.603 160.805 228.751 161.303 228.798C161.475 228.798 161.642 228.824 161.841 228.83V221.804C161.578 221.799 161.316 221.777 161.056 221.739C160.652 221.674 160.262 221.539 159.904 221.341L43.3521 154.053C42.3675 153.488 42.2868 152.59 43.1261 151.977Z" fill="#37474F"/>
<path d="M190.716 200.494C189.643 199.964 188.463 199.688 187.267 199.688C186.071 199.688 184.891 199.964 183.818 200.494C183.4 200.715 183.044 201.039 182.785 201.436C182.167 202.512 183.323 203.319 183.818 203.62C184.891 204.151 186.071 204.427 187.267 204.427C188.463 204.427 189.643 204.151 190.716 203.62C191.131 203.395 191.486 203.071 191.749 202.679C192.367 201.603 191.227 200.796 190.716 200.494Z" fill="#0FA968"/>
<path d="M76.5951 138.356C76.7041 138.315 76.798 138.241 76.8642 138.145C76.9305 138.049 76.9659 137.935 76.9659 137.818C76.9659 137.702 76.9305 137.588 76.8642 137.492C76.798 137.396 76.7041 137.322 76.5951 137.28C76.3024 137.132 75.979 137.055 75.6509 137.055C75.3228 137.055 74.9993 137.132 74.7067 137.28C74.5976 137.322 74.5038 137.396 74.4375 137.492C74.3713 137.588 74.3358 137.702 74.3358 137.818C74.3358 137.935 74.3713 138.049 74.4375 138.145C74.5038 138.241 74.5976 138.315 74.7067 138.356C74.9993 138.505 75.3228 138.582 75.6509 138.582C75.979 138.582 76.3024 138.505 76.5951 138.356Z" fill="#263238"/>
<path d="M73.6307 143.526C73.7217 143.482 73.7984 143.413 73.8521 143.327C73.9058 143.242 73.9342 143.143 73.9342 143.042C73.9342 142.941 73.9058 142.841 73.8521 142.756C73.7984 142.67 73.7217 142.601 73.6307 142.557C73.3701 142.427 73.0828 142.359 72.7915 142.359C72.5001 142.359 72.2128 142.427 71.9522 142.557C71.8612 142.601 71.7845 142.67 71.7308 142.756C71.6771 142.841 71.6487 142.941 71.6487 143.042C71.6487 143.143 71.6771 143.242 71.7308 143.327C71.7845 143.413 71.8612 143.482 71.9522 143.526C72.212 143.658 72.4997 143.728 72.7915 143.728C73.0832 143.728 73.3709 143.658 73.6307 143.526Z" fill="#263238"/>
<path d="M76.466 141.924L85.8487 136.507C86.3867 136.211 86.3867 135.743 85.9025 135.463C85.6204 135.327 85.3101 135.26 84.9969 135.266C84.6837 135.273 84.3765 135.353 84.1002 135.501L74.7175 140.913C74.2064 141.214 74.1795 141.677 74.6637 141.957C74.9455 142.093 75.2556 142.162 75.5687 142.156C75.8819 142.151 76.1893 142.071 76.466 141.924Z" fill="#263238"/>
<path d="M221.156 186.297C221.952 186.916 221.866 187.793 220.897 188.352L163.756 221.342C163.163 221.659 162.498 221.817 161.825 221.799V228.82C162.496 228.833 163.159 228.674 163.751 228.358L220.892 195.373C221.455 195.007 221.924 194.513 222.259 193.932C222.595 193.35 222.788 192.697 222.824 192.027V189.471C222.788 188.854 222.621 188.251 222.334 187.703C222.046 187.156 221.644 186.676 221.156 186.297Z" fill="#263238"/>
<path d="M70.6072 171.765C70.8918 171.944 71.1306 172.187 71.3044 172.475C71.4781 172.763 71.5821 173.087 71.6079 173.423C71.6198 173.536 71.5999 173.65 71.5505 173.753C71.5011 173.855 71.4241 173.942 71.3281 174.004C71.2098 174.074 70.7578 174.343 70.6287 174.412C70.5118 174.462 70.384 174.481 70.2576 174.467C70.1313 174.453 70.0108 174.406 69.9078 174.332L56.9151 166.8C56.6315 166.62 56.3937 166.377 56.2209 166.089C56.0481 165.802 55.945 165.477 55.9198 165.143C55.9103 165.034 55.9286 164.925 55.9728 164.825C56.017 164.725 56.0858 164.638 56.1727 164.572L56.8936 164.153C57.0105 164.103 57.1383 164.084 57.2646 164.098C57.391 164.112 57.5115 164.159 57.6145 164.233L70.6072 171.765Z" fill="#455A64"/>
<path d="M69.9078 172.159L56.9151 164.659C56.3771 164.342 55.9198 164.568 55.9198 165.165C55.945 165.5 56.0481 165.824 56.2209 166.112C56.3937 166.399 56.6315 166.643 56.9151 166.822L69.9078 174.354C70.4458 174.671 70.9085 174.446 70.9085 173.848C70.8876 173.508 70.786 173.177 70.612 172.883C70.438 172.589 70.1966 172.341 69.9078 172.159Z" fill="#263238"/>
<path d="M53.2137 161.716C53.499 161.895 53.7382 162.139 53.912 162.428C54.0858 162.717 54.1894 163.042 54.2143 163.378C54.225 163.491 54.2052 163.604 54.1569 163.706C54.1086 163.809 54.0337 163.896 53.94 163.959C53.8162 164.024 53.3643 164.298 53.2406 164.368C53.1232 164.417 52.9951 164.435 52.8688 164.42C52.7424 164.405 52.6222 164.357 52.5196 164.282L46.3918 160.747C46.1082 160.568 45.8705 160.325 45.6976 160.037C45.5248 159.749 45.4217 159.425 45.3965 159.09C45.3844 158.981 45.4014 158.871 45.4458 158.771C45.4902 158.671 45.5605 158.584 45.6494 158.52C45.7677 158.439 46.2412 158.17 46.3703 158.1C46.4869 158.049 46.615 158.029 46.7416 158.044C46.8683 158.058 46.9889 158.105 47.0912 158.181L53.2137 161.716Z" fill="#455A64"/>
<path d="M52.5196 162.124L46.3918 158.589C45.8538 158.272 45.3965 158.498 45.3965 159.095C45.4217 159.429 45.5248 159.754 45.6976 160.041C45.8704 160.329 46.1082 160.572 46.3918 160.752L52.5196 164.286C53.0576 164.604 53.5149 164.378 53.5149 163.781C53.4897 163.446 53.3866 163.122 53.2138 162.834C53.041 162.546 52.8032 162.303 52.5196 162.124Z" fill="#263238"/>
<path d="M209.029 184.376L205.376 186.485L156.693 214.574C156.565 214.646 156.434 214.71 156.3 214.767C155.903 214.932 155.477 215.017 155.046 215.017C154.616 215.017 154.19 214.932 153.793 214.767C153.658 214.71 153.527 214.646 153.4 214.574L60.9662 161.209L56.4954 158.627C56.338 158.542 56.1961 158.431 56.0758 158.299C55.6131 157.793 55.7584 157.142 56.4954 156.712L108.811 126.514C109.41 126.118 110.122 125.929 110.839 125.976C111.011 125.997 111.179 126.042 111.339 126.11C111.429 126.144 111.515 126.185 111.597 126.234L209.029 182.487C209.191 182.586 209.324 182.725 209.416 182.891C209.509 183.056 209.557 183.242 209.557 183.431C209.557 183.621 209.509 183.807 209.416 183.972C209.324 184.138 209.191 184.276 209.029 184.376Z" fill="#0FA968"/>
<path opacity="0.8" d="M209.029 184.376L205.376 186.485L156.693 214.574C156.565 214.646 156.434 214.71 156.3 214.767C155.903 214.932 155.477 215.017 155.046 215.017C154.616 215.017 154.19 214.932 153.793 214.767C153.658 214.71 153.527 214.646 153.4 214.574L60.9662 161.209L56.4954 158.627C56.338 158.542 56.1961 158.431 56.0758 158.299C55.6131 157.793 55.7584 157.142 56.4954 156.712L108.811 126.514C109.41 126.118 110.122 125.929 110.839 125.976C111.011 125.997 111.179 126.042 111.339 126.11C111.429 126.144 111.515 126.185 111.597 126.234L209.029 182.487C209.191 182.586 209.324 182.725 209.416 182.891C209.509 183.056 209.557 183.242 209.557 183.431C209.557 183.621 209.509 183.807 209.416 183.972C209.324 184.138 209.191 184.276 209.029 184.376Z" fill="white"/>
<path d="M67.5406 154.679C67.5142 154.674 67.4888 154.665 67.4653 154.653L67.2124 154.502L66.5937 154.862C66.5778 154.873 66.5591 154.879 66.5399 154.879C66.5207 154.879 66.502 154.873 66.4861 154.862L66.3946 154.814L66.3516 154.782C66.3506 154.769 66.3506 154.757 66.3516 154.744L66.0934 153.835C66.0914 153.822 66.0914 153.81 66.0934 153.797C66.1012 153.784 66.1123 153.773 66.1256 153.765L66.2117 153.716C66.2381 153.709 66.266 153.709 66.2924 153.716C66.3209 153.719 66.3485 153.729 66.3731 153.743L67.2662 154.281L67.4061 154.206C67.4286 154.197 67.4535 154.197 67.476 154.206C67.5048 154.208 67.5327 154.217 67.5567 154.233L67.6159 154.265C67.6428 154.265 67.6589 154.297 67.6589 154.308C67.6589 154.319 67.6589 154.335 67.6213 154.351L67.4868 154.432L67.745 154.577C67.7634 154.587 67.7784 154.602 67.7881 154.62C67.7881 154.62 67.7881 154.647 67.745 154.663L67.6428 154.728C67.6048 154.722 67.5693 154.705 67.5406 154.679ZM67.0026 154.357L66.3677 153.985L66.556 154.615L67.0026 154.357Z" fill="#455A64"/>
<path d="M68.1217 154.161C67.8483 154.145 67.5827 154.063 67.3469 153.924C67.0941 153.773 66.9542 153.628 66.9381 153.478C66.9219 153.327 67.0241 153.187 67.2393 153.058C67.329 153.009 67.4226 152.968 67.5191 152.934C67.612 152.905 67.7075 152.885 67.8042 152.875C67.8042 152.875 67.8365 152.875 67.8473 152.875L67.9011 152.977H67.8634C67.7215 152.992 67.5842 153.036 67.4599 153.106C67.3147 153.192 67.2447 153.289 67.2555 153.397C67.2662 153.504 67.3738 153.607 67.5729 153.72C67.7354 153.823 67.9195 153.887 68.1109 153.908C68.278 153.916 68.4439 153.877 68.5897 153.795L68.7296 153.698C68.7611 153.672 68.7883 153.641 68.8103 153.607L68.3907 153.365L68.1324 153.51C68.1082 153.519 68.0813 153.519 68.0571 153.51C68.0301 153.507 68.0042 153.498 67.9818 153.483L67.9226 153.451C67.9226 153.451 67.8796 153.418 67.8796 153.408C67.8796 153.397 67.8796 153.381 67.9172 153.365L68.3261 153.128C68.3544 153.121 68.3839 153.121 68.4122 153.128C68.4453 153.129 68.4774 153.14 68.5036 153.16L69.1008 153.504C69.1179 153.511 69.1328 153.522 69.1439 153.537C69.1439 153.537 69.1439 153.537 69.1439 153.569C69.074 153.728 68.9473 153.854 68.7888 153.924C68.5927 154.063 68.3617 154.145 68.1217 154.161Z" fill="#455A64"/>
<path d="M73.238 151.093C73.4371 151.211 73.4371 151.394 73.238 151.507C73.1278 151.565 73.005 151.596 72.8802 151.596C72.7555 151.596 72.6327 151.565 72.5225 151.507C72.3234 151.394 72.3234 151.211 72.5225 151.093C72.6335 151.037 72.756 151.008 72.8802 151.008C73.0045 151.008 73.127 151.037 73.238 151.093Z" fill="#455A64"/>
<path d="M71.936 150.754C71.5756 150.963 71.4626 151.265 71.6025 151.528C71.6282 151.559 71.6616 151.583 71.6993 151.597C71.7371 151.611 71.7779 151.616 71.8177 151.609C71.936 151.609 72.0221 151.528 71.9844 151.464C71.8822 151.276 71.9844 151.066 72.2158 150.926C72.505 150.775 72.8373 150.727 73.1573 150.791C73.2756 150.791 73.394 150.791 73.4101 150.694C73.4101 150.635 73.3617 150.587 73.2703 150.565C72.8168 150.484 72.3491 150.55 71.936 150.754Z" fill="#455A64"/>
<path d="M71.3603 150.429C70.8223 150.736 70.6287 151.172 70.7847 151.575C70.7847 151.634 70.8977 151.672 70.9999 151.667C71.1182 151.667 71.1936 151.591 71.1667 151.527C71.0429 151.199 71.1989 150.843 71.6347 150.591C72.132 150.336 72.6953 150.241 73.2487 150.316C73.3671 150.316 73.4801 150.316 73.4908 150.219C73.4908 150.16 73.4316 150.106 73.3294 150.096C72.6543 149.999 71.9659 150.115 71.3603 150.429Z" fill="#455A64"/>
<path d="M81.9428 145.305C81.9235 145.31 81.903 145.31 81.8837 145.305C81.8837 145.305 81.8837 145.305 81.8837 145.267L81.9913 144.729C81.9913 144.729 81.9913 144.702 81.9913 144.691L82.0236 144.659L82.2118 144.552C82.2312 144.546 82.2517 144.546 82.271 144.552C82.2921 144.545 82.3145 144.545 82.3356 144.552L83.8743 145.439C83.8771 145.444 83.8786 145.45 83.8786 145.455C83.8786 145.461 83.8771 145.467 83.8743 145.472C83.8776 145.477 83.8793 145.484 83.8793 145.49C83.8793 145.497 83.8776 145.503 83.8743 145.509L83.6806 145.622C83.6594 145.628 83.6372 145.628 83.616 145.622C83.595 145.628 83.5725 145.628 83.5515 145.622L82.3786 144.944L82.3141 145.256C82.3141 145.256 82.3141 145.256 82.2818 145.289C82.2588 145.294 82.2348 145.294 82.2118 145.289L81.9428 145.305Z" fill="#455A64"/>
<path d="M83.148 144.609C83.1269 144.616 83.1045 144.616 83.0834 144.609C83.0809 144.604 83.0796 144.597 83.0796 144.591C83.0796 144.584 83.0809 144.578 83.0834 144.572L83.1964 144.034C83.1941 144.021 83.1941 144.009 83.1964 143.996L83.2233 143.964L83.4116 143.856C83.4326 143.85 83.4551 143.85 83.4761 143.856C83.4973 143.851 83.5195 143.851 83.5407 143.856L85.074 144.744C85.074 144.744 85.074 144.744 85.074 144.782C85.0764 144.787 85.0776 144.792 85.0776 144.798C85.0776 144.803 85.0764 144.809 85.074 144.814L84.8803 144.927C84.8593 144.933 84.8368 144.933 84.8158 144.927H84.7512L83.5784 144.249L83.5084 144.599C83.4999 144.613 83.4866 144.625 83.4708 144.631C83.4497 144.637 83.4273 144.637 83.4062 144.631L83.148 144.609Z" fill="#455A64"/>
<path d="M84.6544 143.645C84.6756 143.64 84.6977 143.64 84.7189 143.645C84.74 143.639 84.7624 143.639 84.7835 143.645L85.0202 143.78C85.023 143.785 85.0245 143.79 85.0245 143.796C85.0245 143.802 85.023 143.807 85.0202 143.812C85.0231 143.818 85.0245 143.824 85.0245 143.831C85.0245 143.837 85.0231 143.844 85.0202 143.85L84.7996 143.979H84.7351C84.714 143.985 84.6916 143.985 84.6705 143.979L84.4338 143.844C84.4309 143.839 84.4294 143.832 84.4294 143.826C84.4294 143.819 84.4309 143.813 84.4338 143.807C84.4313 143.801 84.43 143.794 84.43 143.788C84.43 143.781 84.4313 143.775 84.4338 143.769L84.6544 143.645ZM85.4883 144.124C85.5082 144.114 85.5304 144.108 85.5528 144.108C85.5753 144.108 85.5974 144.114 85.6174 144.124L85.8487 144.259C85.8487 144.259 85.8756 144.259 85.8756 144.296C85.8742 144.304 85.8711 144.312 85.8664 144.318C85.8618 144.325 85.8557 144.33 85.8487 144.334L85.6281 144.458C85.6084 144.469 85.5861 144.474 85.5636 144.474C85.541 144.474 85.5188 144.469 85.499 144.458L85.2677 144.323C85.2677 144.323 85.2408 144.323 85.2408 144.286C85.2416 144.278 85.2445 144.271 85.2493 144.265C85.2541 144.26 85.2605 144.255 85.2677 144.253L85.4883 144.124Z" fill="#455A64"/>
<path d="M87.1183 143.641C87.0984 143.651 87.0763 143.657 87.0538 143.657C87.0313 143.657 87.0092 143.651 86.9892 143.641L86.7041 143.48L85.967 143.905H85.9025C85.8814 143.911 85.859 143.911 85.8379 143.905L85.6711 143.808C85.6442 143.808 85.6335 143.781 85.6281 143.765C85.6227 143.747 85.6227 143.728 85.6281 143.711L85.4452 142.769C85.4404 142.752 85.4415 142.734 85.4483 142.717C85.4552 142.701 85.4673 142.687 85.4828 142.678L85.6657 142.57H85.7303H85.7895L86.7417 143.108L86.9462 142.99H87.0107H87.0753L87.2421 143.092C87.2493 143.094 87.2557 143.098 87.2605 143.104C87.2652 143.11 87.2682 143.117 87.269 143.124C87.269 143.124 87.269 143.151 87.2421 143.162L87.0376 143.28L87.3282 143.447C87.3282 143.447 87.3551 143.447 87.3282 143.485C87.331 143.491 87.3325 143.497 87.3325 143.504C87.3325 143.51 87.331 143.517 87.3282 143.523L87.1183 143.641ZM86.4028 143.307L85.8971 143.011L85.9993 143.549L86.4028 143.307Z" fill="#455A64"/>
<path d="M86.4728 142.145C86.4682 142.133 86.4682 142.12 86.4728 142.108C86.4728 142.108 86.4728 142.108 86.4728 142.07L87.3658 141.532C87.3856 141.521 87.4078 141.516 87.4304 141.516C87.453 141.516 87.4752 141.521 87.495 141.532L87.6617 141.629C87.6617 141.629 87.6886 141.629 87.6886 141.667C87.6886 141.704 87.6886 141.694 87.6617 141.704L86.9946 142.086L87.2744 142.28C87.3012 142.244 87.334 142.213 87.3712 142.188L87.4681 142.124C87.5582 142.074 87.6539 142.034 87.7532 142.006C87.8508 141.974 87.9521 141.956 88.0545 141.952C88.1545 141.938 88.2558 141.938 88.3558 141.952C88.4554 141.974 88.5514 142.01 88.6409 142.059C88.7257 142.101 88.798 142.164 88.8507 142.242C88.8877 142.294 88.9032 142.357 88.8938 142.42C88.8844 142.486 88.8521 142.547 88.8023 142.592C88.737 142.654 88.6648 142.708 88.5871 142.753C88.4861 142.81 88.3798 142.857 88.2697 142.893C88.173 142.921 88.0739 142.939 87.9738 142.947C87.8843 142.955 87.7943 142.955 87.7048 142.947C87.6283 142.932 87.5541 142.906 87.4842 142.872C87.4842 142.872 87.4573 142.872 87.4573 142.834C87.4573 142.796 87.4573 142.807 87.4842 142.796L87.6779 142.683H87.7371H87.8016C87.8454 142.697 87.8905 142.706 87.9361 142.71H88.0652L88.1836 142.673L88.2912 142.619C88.3827 142.565 88.4311 142.511 88.4365 142.447C88.4418 142.382 88.4042 142.334 88.3181 142.285C88.2397 142.241 88.1494 142.222 88.0599 142.232C87.9561 142.233 87.8544 142.261 87.764 142.312C87.7281 142.333 87.6939 142.356 87.6617 142.382C87.6455 142.398 87.631 142.417 87.6187 142.436C87.6216 142.45 87.6216 142.465 87.6187 142.479C87.6082 142.495 87.5933 142.508 87.5757 142.517L87.3551 142.646H87.2905H87.2313L86.4728 142.145Z" fill="#455A64"/>
<path d="M60.9017 158.73L60.4067 158.444L61.0631 158.062L61.5581 158.348L60.9017 158.73Z" fill="#455A64"/>
<path d="M61.8915 158.155L60.9016 157.585L61.558 157.203L62.5479 157.773L61.8915 158.155Z" fill="#455A64"/>
<path d="M62.8815 157.589L61.3966 156.728L62.053 156.352L63.5432 157.207L62.8815 157.589Z" fill="#455A64"/>
<path d="M63.8714 157.02L61.8916 155.874L62.5533 155.492L64.5278 156.638L63.8714 157.02Z" fill="#455A64"/>
<path d="M108.622 129.325C108.49 129.31 108.356 129.33 108.235 129.385L105.765 130.805C105.604 130.896 105.647 131.069 105.857 131.192L106.761 131.73C106.895 131.804 107.044 131.848 107.197 131.859C107.261 131.868 107.326 131.868 107.39 131.859C107.458 131.854 107.523 131.836 107.584 131.806L110.053 130.385C110.209 130.288 110.172 130.122 109.957 129.998L109.058 129.46C108.924 129.384 108.775 129.339 108.622 129.325ZM107.17 131.746C107.105 131.739 107.042 131.717 106.987 131.682L106.083 131.144C105.927 131.052 105.895 130.918 106.013 130.848L108.482 129.428C108.514 129.41 108.549 129.4 108.585 129.395H108.644C108.711 129.402 108.775 129.424 108.832 129.46L109.731 129.998C109.887 130.089 109.919 130.224 109.806 130.288L107.336 131.714C107.284 131.739 107.227 131.75 107.17 131.746Z" fill="#455A64"/>
<path d="M106.637 130.688L107.713 131.301L107.326 131.527C107.282 131.54 107.235 131.54 107.191 131.527L106.4 131.069C106.287 131.005 106.26 130.903 106.347 130.849L106.637 130.688Z" fill="#455A64"/>
<path d="M106.82 130.589L107.283 130.32L108.348 130.934L107.88 131.203L106.82 130.589Z" fill="#455A64"/>
<path d="M107.466 130.214L107.923 129.945L108.993 130.564L108.531 130.833L107.466 130.214Z" fill="#455A64"/>
<path d="M108.638 129.62L109.408 130.066C109.548 130.147 109.521 130.265 109.327 130.373L109.171 130.465L108.095 129.846L108.466 129.636C108.492 129.622 108.521 129.613 108.551 129.61C108.58 129.608 108.61 129.611 108.638 129.62Z" fill="#455A64"/>
<path d="M109.155 129.394C109.317 129.377 109.48 129.422 109.612 129.518L109.779 129.615C109.962 129.722 110.064 129.841 109.994 129.884L109.881 129.959L109.031 129.469L109.155 129.394Z" fill="#455A64"/>
<path d="M102.333 133.475L104.248 131.812L105.26 133.249L103.936 132.888L102.333 133.475Z" fill="#455A64"/>
<path d="M160.432 166.037C160.372 164.78 160.016 163.555 159.394 162.461C158.771 161.367 157.899 160.436 156.849 159.743C155.805 159.129 154.863 159.102 154.196 159.538L151.748 160.915L156.886 169.776L159.313 168.399C159.99 168.028 160.421 167.215 160.432 166.037Z" fill="#37474F"/>
<path d="M154.304 161.185C155.353 161.879 156.224 162.811 156.846 163.904C157.469 164.998 157.825 166.223 157.887 167.479C157.887 169.793 156.241 170.707 154.25 169.551C153.201 168.856 152.33 167.924 151.708 166.831C151.085 165.737 150.729 164.513 150.667 163.256C150.683 160.943 152.313 160.017 154.304 161.185Z" fill="#455A64"/>
<path d="M153.056 164.657C153.056 163.754 153.594 163.339 154.288 163.737C154.66 164.006 154.964 164.36 155.174 164.768C155.384 165.177 155.495 165.629 155.498 166.088C155.498 166.992 154.96 167.401 154.266 167.008C153.895 166.738 153.593 166.384 153.382 165.976C153.172 165.568 153.06 165.116 153.056 164.657Z" fill="#263238"/>
<path opacity="0.15" d="M157.887 167.484C157.875 166.653 157.707 165.832 157.392 165.063L151.178 161.453C150.827 161.989 150.651 162.621 150.672 163.261C150.672 163.288 150.672 163.315 150.672 163.347L157.881 167.533C157.881 167.533 157.887 167.5 157.887 167.484Z" fill="black"/>
<path d="M134.672 185.725C133.357 185.825 132.039 185.588 130.842 185.036L96.9475 165.502C94.8977 164.469 92.5951 161.79 92.4498 159.25L91.4115 135.089L93.2999 134.981L94.3436 159.148C94.4404 160.87 96.2427 163.032 97.7922 163.807L131.713 183.347C132.625 183.728 133.611 183.896 134.597 183.839C135.583 183.782 136.543 183.502 137.405 183.019L160.001 169.989C160.539 169.634 160.857 169.209 160.835 168.848C160.813 168.488 160.475 168.133 159.899 167.842L123.589 146.763C121.545 145.736 119.253 143.051 119.108 140.512L118.602 127.11L120.49 127.008L120.996 140.404C121.093 142.136 122.895 144.294 124.439 145.068L160.749 166.153C161.959 166.761 162.659 167.681 162.723 168.74C162.788 169.8 162.185 170.828 161.039 171.57L138.443 184.601C137.302 185.29 136.004 185.677 134.672 185.725Z" fill="#455A64"/>
<path d="M128.582 185.18C128.522 183.923 128.167 182.698 127.544 181.604C126.922 180.51 126.049 179.579 124.999 178.885C123.955 178.272 123.014 178.24 122.352 178.681L119.899 180.058L125.037 188.919L127.463 187.542C128.13 187.171 128.582 186.358 128.582 185.18Z" fill="#37474F"/>
<path d="M122.443 180.329C123.495 181.023 124.367 181.955 124.99 183.05C125.613 184.144 125.968 185.371 126.026 186.629C126.026 188.937 124.386 189.857 122.39 188.695C121.341 188.001 120.47 187.069 119.848 185.975C119.227 184.882 118.872 183.657 118.812 182.4C118.828 180.092 120.453 179.151 122.443 180.329Z" fill="#455A64"/>
<path d="M121.195 183.798C121.195 182.894 121.733 182.48 122.427 182.878C122.8 183.146 123.104 183.5 123.315 183.908C123.525 184.317 123.636 184.769 123.638 185.229C123.638 186.128 123.1 186.542 122.411 186.144C122.039 185.875 121.735 185.523 121.523 185.116C121.312 184.708 121.2 184.257 121.195 183.798Z" fill="#263238"/>
<path d="M103.522 170.733C103.465 169.477 103.112 168.251 102.492 167.156C101.873 166.062 101.003 165.129 99.955 164.433C98.9059 163.82 97.9698 163.788 97.3026 164.223L94.8494 165.595L99.9711 174.467L102.403 173.09C103.081 172.724 103.511 171.911 103.522 170.733Z" fill="#37474F"/>
<path d="M97.4048 165.877C98.4507 166.571 99.3189 167.5 99.9394 168.591C100.56 169.681 100.915 170.902 100.977 172.156C100.977 174.464 99.3255 175.384 97.3349 174.216C96.2866 173.521 95.4172 172.588 94.7974 171.493C94.1776 170.398 93.8249 169.173 93.7679 167.916C93.7841 165.624 95.4142 164.704 97.4048 165.877Z" fill="#455A64"/>
<path d="M96.1514 169.34C96.1514 168.441 96.6894 168.027 97.3834 168.425C97.7552 168.695 98.0585 169.048 98.2687 169.456C98.479 169.865 98.5904 170.317 98.5939 170.776C98.5939 171.68 98.0559 172.089 97.3565 171.696C96.9862 171.424 96.6844 171.069 96.4752 170.66C96.266 170.251 96.1551 169.799 96.1514 169.34Z" fill="#263238"/>
<path d="M87.3604 105.81C87.0394 104.58 87.0983 103.281 87.5294 102.084C87.9606 100.888 88.7438 99.8498 89.776 99.1068L112.324 86.3616C114.373 85.0166 116.628 85.9527 117.338 88.293L118.903 93.3664L117.354 94.2702L115.67 89.1431C115.601 88.8689 115.466 88.6161 115.275 88.4073C115.085 88.1985 114.846 88.0403 114.579 87.947C114.312 87.8536 114.026 87.828 113.747 87.8725C113.468 87.9169 113.204 88.03 112.98 88.2016L91.0242 100.602C90.3665 101.085 89.866 101.75 89.5855 102.516C89.305 103.282 89.2571 104.114 89.4478 104.906L90.7713 109.775L88.926 110.851L87.3604 105.81Z" fill="#455A64"/>
<path d="M122.223 130.258L91.9333 147.748L136.2 173.303L166.489 155.813L122.223 130.258Z" fill="#0FA968"/>
<path opacity="0.5" d="M122.223 130.258L91.9333 147.748L136.2 173.303L166.489 155.813L122.223 130.258Z" fill="black"/>
<path d="M88.926 110.887L118.903 93.375L122.223 130.26L91.9335 147.751L88.926 110.887Z" fill="#0FA968"/>
<path opacity="0.35" d="M88.926 110.887L118.903 93.375L122.223 130.26L91.9335 147.751L88.926 110.887Z" fill="black"/>
<path d="M118.898 93.375L122.217 130.26L166.484 155.815L173.478 124.875L118.898 93.375ZM134.376 128.84C133.737 129.038 133.045 128.976 132.451 128.668C131.857 128.36 131.408 127.83 131.202 127.194L123.885 108.208C123.724 107.908 123.629 107.578 123.606 107.239C123.583 106.9 123.632 106.56 123.751 106.242C123.87 105.923 124.055 105.634 124.295 105.393C124.534 105.152 124.822 104.964 125.14 104.844C125.458 104.723 125.797 104.671 126.136 104.692C126.476 104.713 126.806 104.806 127.107 104.965C127.407 105.124 127.67 105.346 127.878 105.614C128.086 105.883 128.234 106.193 128.313 106.524L135.63 125.51C135.899 126.118 135.919 126.807 135.686 127.43C135.453 128.053 134.984 128.559 134.382 128.84H134.376ZM148.197 135.339C147.559 135.54 146.867 135.481 146.272 135.173C145.677 134.866 145.228 134.335 145.023 133.698L137.728 114.712C137.567 114.414 137.472 114.084 137.449 113.746C137.425 113.408 137.474 113.069 137.591 112.751C137.709 112.433 137.893 112.144 138.131 111.903C138.369 111.661 138.656 111.473 138.972 111.351C139.288 111.23 139.627 111.176 139.965 111.195C140.304 111.214 140.634 111.305 140.935 111.462C141.235 111.618 141.499 111.837 141.709 112.103C141.918 112.37 142.069 112.678 142.15 113.007L149.467 131.993C149.742 132.604 149.763 133.3 149.526 133.927C149.289 134.554 148.813 135.062 148.203 135.339H148.197ZM162.019 141.843C161.384 142.046 160.694 141.99 160.1 141.688C159.506 141.386 159.055 140.862 158.844 140.229L151.533 121.243C151.377 120.946 151.285 120.619 151.264 120.283C151.243 119.947 151.293 119.611 151.411 119.296C151.529 118.982 151.713 118.695 151.949 118.457C152.186 118.218 152.47 118.032 152.784 117.911C153.098 117.789 153.433 117.736 153.769 117.754C154.105 117.772 154.433 117.861 154.732 118.014C155.031 118.168 155.294 118.383 155.504 118.646C155.714 118.908 155.866 119.212 155.95 119.538L163.267 138.524C163.535 139.13 163.555 139.817 163.322 140.437C163.09 141.058 162.624 141.562 162.024 141.843H162.019Z" fill="#0FA968"/>
<path opacity="0.23" d="M118.898 93.375L122.217 130.26L166.484 155.815L173.478 124.875L118.898 93.375ZM134.376 128.84C133.737 129.038 133.045 128.976 132.451 128.668C131.857 128.36 131.408 127.83 131.202 127.194L123.885 108.208C123.724 107.908 123.629 107.578 123.606 107.239C123.583 106.9 123.632 106.56 123.751 106.242C123.87 105.923 124.055 105.634 124.295 105.393C124.534 105.152 124.822 104.964 125.14 104.844C125.458 104.723 125.797 104.671 126.136 104.692C126.476 104.713 126.806 104.806 127.107 104.965C127.407 105.124 127.67 105.346 127.878 105.614C128.086 105.883 128.234 106.193 128.313 106.524L135.63 125.51C135.899 126.118 135.919 126.807 135.686 127.43C135.453 128.053 134.984 128.559 134.382 128.84H134.376ZM148.197 135.339C147.559 135.54 146.867 135.481 146.272 135.173C145.677 134.866 145.228 134.335 145.023 133.698L137.728 114.712C137.567 114.414 137.472 114.084 137.449 113.746C137.425 113.408 137.474 113.069 137.591 112.751C137.709 112.433 137.893 112.144 138.131 111.903C138.369 111.661 138.656 111.473 138.972 111.351C139.288 111.23 139.627 111.176 139.965 111.195C140.304 111.214 140.634 111.305 140.935 111.462C141.235 111.618 141.499 111.837 141.709 112.103C141.918 112.37 142.069 112.678 142.15 113.007L149.467 131.993C149.742 132.604 149.763 133.3 149.526 133.927C149.289 134.554 148.813 135.062 148.203 135.339H148.197ZM162.019 141.843C161.384 142.046 160.694 141.99 160.1 141.688C159.506 141.386 159.055 140.862 158.844 140.229L151.533 121.243C151.377 120.946 151.285 120.619 151.264 120.283C151.243 119.947 151.293 119.611 151.411 119.296C151.529 118.982 151.713 118.695 151.949 118.457C152.186 118.218 152.47 118.032 152.784 117.911C153.098 117.789 153.433 117.736 153.769 117.754C154.105 117.772 154.433 117.861 154.732 118.014C155.031 118.168 155.294 118.383 155.504 118.646C155.714 118.908 155.866 119.212 155.95 119.538L163.267 138.524C163.535 139.13 163.555 139.817 163.322 140.437C163.09 141.058 162.624 141.562 162.024 141.843H162.019Z" fill="black"/>
<path d="M88.926 110.883L91.9335 147.747L136.2 173.302L143.194 142.367L88.926 110.883ZM106.4 147.171C105.761 147.369 105.069 147.307 104.475 146.999C103.881 146.691 103.432 146.161 103.226 145.525L95.9146 126.539C95.7571 126.241 95.6645 125.913 95.6429 125.577C95.6213 125.241 95.6713 124.904 95.7894 124.588C95.9076 124.273 96.0913 123.986 96.3285 123.746C96.5656 123.507 96.8508 123.321 97.1652 123.2C97.4796 123.079 97.8161 123.026 98.1525 123.044C98.4889 123.063 98.8176 123.153 99.1168 123.307C99.416 123.462 99.679 123.679 99.8884 123.943C100.098 124.207 100.249 124.512 100.332 124.839L107.648 143.819C107.925 144.43 107.948 145.124 107.715 145.752C107.481 146.38 107.008 146.89 106.4 147.171ZM120.221 153.67C119.583 153.871 118.891 153.812 118.296 153.504C117.701 153.197 117.252 152.666 117.047 152.029L109.752 133.043C109.591 132.745 109.496 132.415 109.473 132.077C109.449 131.739 109.498 131.4 109.615 131.082C109.733 130.764 109.917 130.475 110.155 130.234C110.393 129.992 110.68 129.804 110.996 129.682C111.312 129.56 111.651 129.507 111.989 129.526C112.328 129.545 112.658 129.636 112.959 129.792C113.259 129.949 113.523 130.168 113.733 130.434C113.943 130.701 114.093 131.009 114.174 131.338L121.486 150.324C121.761 150.935 121.782 151.631 121.545 152.258C121.308 152.885 120.832 153.393 120.221 153.67ZM134.043 160.174C133.405 160.376 132.713 160.316 132.119 160.008C131.526 159.701 131.078 159.17 130.874 158.533L123.557 139.547C123.396 139.249 123.301 138.92 123.278 138.582C123.254 138.243 123.303 137.904 123.42 137.586C123.538 137.268 123.722 136.979 123.96 136.738C124.198 136.497 124.485 136.309 124.801 136.187C125.117 136.065 125.456 136.012 125.794 136.031C126.133 136.05 126.463 136.14 126.764 136.297C127.065 136.453 127.328 136.672 127.538 136.939C127.748 137.205 127.898 137.513 127.979 137.842L135.291 156.828C135.567 157.438 135.59 158.132 135.357 158.758C135.123 159.385 134.65 159.894 134.043 160.174Z" fill="#0FA968"/>
<g opacity="0.15">
<path d="M88.926 110.883L91.9335 147.747L136.2 173.302L143.194 142.367L88.926 110.883ZM106.4 147.171C105.761 147.369 105.069 147.307 104.475 146.999C103.881 146.691 103.432 146.161 103.226 145.525L95.9146 126.539C95.7571 126.241 95.6645 125.913 95.6429 125.577C95.6213 125.241 95.6713 124.904 95.7894 124.588C95.9076 124.273 96.0913 123.986 96.3285 123.746C96.5656 123.507 96.8508 123.321 97.1652 123.2C97.4796 123.079 97.8161 123.026 98.1525 123.044C98.4889 123.063 98.8176 123.153 99.1168 123.307C99.416 123.462 99.679 123.679 99.8884 123.943C100.098 124.207 100.249 124.512 100.332 124.839L107.648 143.819C107.925 144.43 107.948 145.124 107.715 145.752C107.481 146.38 107.008 146.89 106.4 147.171ZM120.221 153.67C119.583 153.871 118.891 153.812 118.296 153.504C117.701 153.197 117.252 152.666 117.047 152.029L109.752 133.043C109.591 132.745 109.496 132.415 109.473 132.077C109.449 131.739 109.498 131.4 109.615 131.082C109.733 130.764 109.917 130.475 110.155 130.234C110.393 129.992 110.68 129.804 110.996 129.682C111.312 129.56 111.651 129.507 111.989 129.526C112.328 129.545 112.658 129.636 112.959 129.792C113.259 129.949 113.523 130.168 113.733 130.434C113.943 130.701 114.093 131.009 114.174 131.338L121.486 150.324C121.761 150.935 121.782 151.631 121.545 152.258C121.308 152.885 120.832 153.393 120.221 153.67ZM134.043 160.174C133.405 160.376 132.713 160.316 132.119 160.008C131.526 159.701 131.078 159.17 130.874 158.533L123.557 139.547C123.396 139.249 123.301 138.92 123.278 138.582C123.254 138.243 123.303 137.904 123.42 137.586C123.538 137.268 123.722 136.979 123.96 136.738C124.198 136.497 124.485 136.309 124.801 136.187C125.117 136.065 125.456 136.012 125.794 136.031C126.133 136.05 126.463 136.14 126.764 136.297C127.065 136.453 127.328 136.672 127.538 136.939C127.748 137.205 127.898 137.513 127.979 137.842L135.291 156.828C135.567 157.438 135.59 158.132 135.357 158.758C135.123 159.385 134.65 159.894 134.043 160.174Z" fill="black"/>
</g>
<path d="M143.189 142.365L173.478 124.875L166.489 155.815L136.2 173.3L143.189 142.365Z" fill="#0FA968"/>
<path opacity="0.4" d="M143.189 142.365L173.478 124.875L166.489 155.815L136.2 173.3L143.189 142.365Z" fill="black"/>
<path d="M154.099 75.5772L150.602 77.627L150.613 67.0338L148.493 65.8125L138.896 71.3539L138.879 84.4219L133.284 87.5907L145.809 95.7145L156.219 76.7985L154.099 75.5772Z" fill="#37474F"/>
<path d="M141.015 72.5726L140.999 85.6407L135.404 88.8149L145.809 95.712L156.219 76.796L150.597 80.0993L150.613 67.0312L141.015 72.5726Z" fill="#455A64"/>
<path d="M138.896 71.3516L141.015 72.5728L140.999 85.6408L138.879 84.4196L138.896 71.3516Z" fill="#263238"/>
<path d="M208.335 65.6911C206.77 69.0589 204.09 74.6326 202.622 77.7207L196.876 70.9527H192.034C192.034 70.9527 197.844 83.3267 201.309 86.2211C201.58 86.4756 201.9 86.6722 202.25 86.7986C202.599 86.9251 202.971 86.9789 203.342 86.9568C203.713 86.9346 204.076 86.837 204.408 86.6698C204.74 86.5026 205.035 86.2694 205.274 85.9844C206.686 84.2773 207.985 82.4802 209.164 80.6044C211.907 76.365 213.134 74.5358 213.134 74.5358L216.588 60.0098C213.586 59.7838 210.509 61.0158 208.335 65.6911Z" fill="#FFA8A7"/>
<path d="M217.164 59.992C215.318 59.922 213.312 59.6907 211.552 61.2294C209.869 62.6983 208.554 64.5408 207.711 66.6094C206.522 69.407 204.682 72.9524 204.682 72.9524C205.628 74.3283 206.791 75.542 208.125 76.5462C209.329 77.4764 210.755 78.0755 212.262 78.284L217.164 59.992Z" fill="#0FA968"/>
<path opacity="0.45" d="M217.164 59.992C215.318 59.922 213.312 59.6907 211.552 61.2294C209.869 62.6983 208.554 64.5408 207.711 66.6094C206.522 69.407 204.682 72.9524 204.682 72.9524C205.628 74.3283 206.791 75.542 208.125 76.5462C209.329 77.4764 210.755 78.0755 212.262 78.284L217.164 59.992Z" fill="black"/>
<path d="M202.621 77.7213C203.269 78.4806 203.861 79.2862 204.391 80.1315C204.391 80.1315 203.773 77.8504 202.934 77.0703L202.621 77.7213Z" fill="#F28F8F"/>
<path d="M190.597 61.9656L191.054 61.4868C191.125 61.4299 191.208 61.3904 191.297 61.3717C191.386 61.353 191.478 61.3556 191.566 61.3792L197.128 62.3261C197.41 62.3893 197.675 62.513 197.905 62.6885C198.134 62.8641 198.323 63.0874 198.457 63.3429L203.461 74.2159C203.517 74.3032 203.548 74.405 203.548 74.5091C203.548 74.6132 203.517 74.7151 203.461 74.8023L202.987 75.2973C202.914 75.359 202.826 75.4012 202.732 75.42C202.638 75.4388 202.541 75.4336 202.449 75.4049L196.908 74.4634C196.626 74.3992 196.361 74.2746 196.131 74.0981C195.902 73.9217 195.713 73.6975 195.579 73.4412L190.576 62.5682C190.452 62.2992 190.452 62.084 190.597 61.9656Z" fill="#455A64"/>
<path d="M202.987 74.7049L197.984 63.8266C197.849 63.5715 197.66 63.3485 197.431 63.1731C197.201 62.9976 196.937 62.8737 196.655 62.8098L191.092 61.8736C190.554 61.7876 190.339 62.0996 190.554 62.5784L195.558 73.4514C195.692 73.7077 195.88 73.9319 196.11 74.1084C196.339 74.2848 196.604 74.4094 196.886 74.4736L202.449 75.4151C202.966 75.4958 203.208 75.1784 202.987 74.7049Z" fill="#263238"/>
<path d="M197.279 63.0608C197.581 63.2484 197.826 63.5143 197.989 63.8301L202.993 74.6977C203.046 74.7832 203.075 74.882 203.075 74.9829C203.075 75.0837 203.046 75.1825 202.993 75.268L203.439 74.8053C203.495 74.7186 203.524 74.6178 203.524 74.5148C203.524 74.4118 203.495 74.311 203.439 74.2243L198.436 63.3513C198.286 63.055 198.059 62.8042 197.78 62.625L197.279 63.0608Z" fill="#37474F"/>
<path d="M193.228 72.7204C190.925 70.0788 190.99 66.7701 192.05 65.8125L192.749 67.3404C192.749 67.3404 196.273 68.1259 197.968 67.9968C199.662 67.8677 201.045 67.4588 201.508 67.7923C202.492 68.4864 202.777 71.4346 199.958 72.5106C197.564 73.4198 193.228 72.7204 193.228 72.7204Z" fill="#FFA8A7"/>
<path d="M233.712 159.524C232.222 160.325 230.409 160.261 228.645 159.524L227.907 149.883L233.712 150.641V159.524Z" fill="#FFA8A7"/>
<path d="M215.921 153.763C214.667 156.48 212.397 155.726 209.841 153.989L210.293 144.305H216.453L215.921 153.763Z" fill="#FFA8A7"/>
<path d="M222.856 168.649C222.704 169.138 222.727 169.665 222.92 170.139C223.114 170.44 224.222 171.393 226.234 171.532C228.155 171.672 229.871 171.414 230.996 170.698C232.12 169.983 232.669 169.192 232.776 168.1C232.884 167.008 232.776 165.948 233.282 165.103C233.788 164.259 234.53 163.452 234.697 163.032C234.896 162.303 234.896 161.534 234.697 160.805L222.856 168.649Z" fill="#263238"/>
<path d="M228.112 159.1C228.082 159.512 228.005 159.92 227.881 160.315C227.584 161.163 227.189 161.972 226.702 162.726C226.459 163.119 226.191 163.496 225.901 163.855C225.32 164.544 224.599 165.109 223.985 165.776C223.327 166.4 222.907 167.233 222.796 168.133C222.716 169.639 224.351 170.15 225.61 170.376C226.971 170.613 228.368 170.543 229.699 170.172C230.398 169.988 231.029 169.608 231.517 169.075C232.006 168.543 232.331 167.881 232.454 167.17C232.523 166.75 232.497 166.319 232.55 165.9C232.718 164.939 233.119 164.034 233.718 163.264C234.069 162.821 234.37 162.341 234.616 161.833C235.009 160.896 234.697 159.847 234.444 158.922C234.229 158.12 233.981 157.211 233.702 157.308C233.719 157.473 233.695 157.639 233.632 157.792C233.539 157.94 233.465 158.099 233.411 158.266C233.354 158.478 233.279 158.685 233.185 158.884C233.045 159.195 232.809 159.453 232.513 159.621C232.513 159.083 232.475 158.486 232.459 157.916C232.473 157.739 232.427 157.563 232.33 157.416C232.196 157.294 232.026 157.22 231.846 157.206C230.79 156.952 229.701 156.863 228.618 156.942C228.536 156.939 228.455 156.954 228.381 156.987C228.306 157.019 228.24 157.069 228.187 157.13C228.122 157.246 228.096 157.38 228.112 157.512C228.141 158.041 228.141 158.571 228.112 159.1Z" fill="#37474F"/>
<path d="M226.498 163.016C227.036 162.596 228.316 162.591 229.005 162.666C229.703 162.727 230.375 162.962 230.958 163.35C231.043 163.412 231.148 163.442 231.254 163.434C231.359 163.426 231.458 163.381 231.534 163.307C231.577 163.264 231.61 163.212 231.632 163.155C231.653 163.098 231.662 163.037 231.658 162.977C231.654 162.916 231.637 162.857 231.608 162.803C231.579 162.75 231.539 162.703 231.491 162.666C230.849 162.192 230.086 161.909 229.29 161.849C227.601 161.73 227.106 162.021 227.106 162.021C227.106 162.021 226.342 162.537 226.498 163.016Z" fill="#F5F5F5"/>
<path d="M225.218 164.587C225.928 164.172 227.305 164.232 227.994 164.302C228.679 164.374 229.334 164.624 229.893 165.028C229.978 165.09 230.084 165.12 230.19 165.111C230.295 165.102 230.394 165.055 230.468 164.979C230.513 164.937 230.548 164.886 230.571 164.829C230.593 164.772 230.603 164.71 230.599 164.649C230.595 164.588 230.577 164.528 230.547 164.475C230.517 164.421 230.475 164.375 230.425 164.339C229.774 163.844 228.997 163.541 228.182 163.462C226.493 163.344 226.03 163.688 226.03 163.688C225.836 163.768 225.662 163.889 225.521 164.045C225.381 164.2 225.277 164.386 225.218 164.587Z" fill="#F5F5F5"/>
<path d="M229.973 160.261C229.262 160.132 228.529 160.194 227.848 160.438C227.552 160.605 227.353 161.073 227.547 161.192C228.144 160.954 228.791 160.865 229.43 160.933C230.064 160.997 230.683 161.168 231.259 161.439C231.405 161.504 231.577 161.59 231.727 161.676C231.774 161.7 231.825 161.715 231.877 161.719C231.929 161.724 231.982 161.718 232.032 161.702C232.082 161.686 232.128 161.66 232.169 161.626C232.209 161.592 232.241 161.55 232.265 161.504C232.307 161.42 232.315 161.323 232.288 161.233C232.261 161.143 232.201 161.067 232.12 161.019C231.466 160.617 230.735 160.358 229.973 160.261Z" fill="#F5F5F5"/>
<path d="M199.749 159.964C199.603 160.403 199.63 160.882 199.824 161.303C200.012 161.696 202.062 162.853 204.827 162.664C206.876 162.523 208.85 161.833 210.541 160.668C211.617 159.969 212.693 159.84 214.059 159.759C215.426 159.678 217.228 159.001 217.524 158.36C217.681 157.788 217.666 157.181 217.481 156.617L199.749 159.964Z" fill="#263238"/>
<path d="M210.858 151.46L210.143 151.18C210.016 151.116 209.871 151.1 209.734 151.137C209.556 151.201 209.486 151.411 209.438 151.594C209.374 152.002 209.273 152.404 209.137 152.794C208.933 153.112 208.67 153.388 208.362 153.606C207.677 154.157 206.936 154.635 206.151 155.032C205.247 155.516 204.365 155.893 203.429 156.312C202.492 156.732 201.217 157.001 200.475 157.507C199.399 158.238 199.248 160.073 200.475 160.799C201.551 161.423 204.343 162.101 207.286 161.267C208.9 160.815 210.665 159.115 212.768 158.938C214.108 158.836 216.636 158.459 217.497 157.442C217.815 156.99 217.39 155.565 217.045 154.333C216.663 152.982 216.507 150.879 216.072 150.997C216.039 151.444 215.652 151.707 215.415 152.073C215.23 152.42 215.07 152.779 214.936 153.149C214.803 153.52 214.558 153.841 214.237 154.069C214.076 154.178 213.883 154.232 213.689 154.221C213.494 154.211 213.309 154.136 213.161 154.01C212.768 153.601 213 152.885 212.714 152.396C212.482 152.086 212.149 151.867 211.773 151.777L210.858 151.46Z" fill="#37474F"/>
<path d="M207.399 154.32C207.496 154.136 207.637 153.98 207.81 153.864C207.983 153.749 208.182 153.678 208.389 153.658C208.997 153.545 210.073 153.992 210.74 154.546C210.804 154.597 210.854 154.663 210.886 154.739C210.918 154.814 210.931 154.896 210.924 154.978C210.916 155.059 210.889 155.138 210.844 155.206C210.798 155.274 210.737 155.33 210.665 155.369C210.575 155.419 210.471 155.439 210.369 155.428C210.267 155.416 210.171 155.373 210.094 155.305C209.358 154.638 208.391 154.285 207.399 154.32Z" fill="#F5F5F5"/>
<path d="M205.516 155.376C205.649 155.189 205.825 155.036 206.029 154.932C206.233 154.827 206.459 154.772 206.689 154.773C207.626 154.817 208.526 155.154 209.26 155.736C209.322 155.786 209.37 155.85 209.401 155.922C209.432 155.994 209.444 156.073 209.438 156.152C209.432 156.23 209.406 156.306 209.364 156.372C209.322 156.439 209.264 156.494 209.196 156.533C209.111 156.58 209.014 156.599 208.917 156.589C208.821 156.578 208.73 156.538 208.658 156.474C208.251 156.066 207.757 155.755 207.213 155.565C206.669 155.375 206.089 155.31 205.516 155.376Z" fill="#F5F5F5"/>
<path d="M203.428 156.327C203.581 156.156 203.769 156.02 203.978 155.927C204.188 155.834 204.415 155.787 204.644 155.789C205.548 155.844 206.411 156.185 207.108 156.763C207.169 156.812 207.218 156.876 207.248 156.949C207.279 157.021 207.292 157.1 207.286 157.178C207.28 157.256 207.254 157.332 207.212 157.399C207.17 157.465 207.112 157.52 207.044 157.559C206.958 157.604 206.861 157.622 206.765 157.61C206.669 157.599 206.578 157.558 206.506 157.495C206.119 157.074 205.64 156.749 205.105 156.546C204.571 156.344 203.997 156.269 203.428 156.327Z" fill="#F5F5F5"/>
<path d="M232.954 86.9555C233.298 97.5057 233.271 123.001 233.271 123.001C233.384 124.314 233.917 127.01 234.347 132.26C234.918 139.098 233.686 154.125 233.686 154.125C232.817 154.503 231.881 154.701 230.934 154.706C229.987 154.712 229.049 154.525 228.176 154.157C228.176 154.157 224.884 132.761 223.862 126.004C222.942 120.086 221.139 106.722 221.139 106.722L219.057 124.067C219.343 126.955 219.272 129.868 218.848 132.739C218.363 135.849 216.211 148.632 216.211 148.632C214.194 149.14 212.073 149.059 210.1 148.4C210.1 148.4 209.901 126.251 209.841 123.373C209.782 120.086 211.299 84.3516 211.299 84.3516L232.954 86.9555Z" fill="#37474F"/>
<path d="M221.118 106.722L219.558 98.0759C219.558 98.0759 215.254 97.6993 212.844 95.2891C212.844 95.2891 213.269 97.6509 218.708 99.0551L220.263 107.803L219.036 124.051L221.118 106.722Z" fill="#263238"/>
<path d="M211.832 68.1136C212.295 64.7349 212.741 60.1942 217.976 59.9844L224.733 60.3072C226.396 60.743 232.862 61.5069 232.862 61.5069L232.986 76.162C232.986 76.162 233.395 86.7284 233.271 92.3827C228.429 95.4493 217.911 96.4446 211.299 91.4251C211.1 86.7606 211.369 71.4599 211.832 68.1136Z" fill="#FAFAFA"/>
<path d="M212.698 42.6048C212.244 43.4051 211.96 44.2904 211.864 45.2055C211.768 46.1205 211.862 47.0455 212.14 47.9226C212.417 48.7998 212.873 49.6102 213.478 50.3031C214.084 50.9961 214.825 51.5567 215.657 51.9499L214.441 52.7891L226.589 53.8651L226.433 56.7919C226.975 56.6443 227.44 56.2937 227.73 55.8127C228.166 55.0326 229.344 50.2444 229.344 50.2444C230.484 47.6297 231.044 44.9397 230.226 44.0466C229.906 43.6926 229.482 43.4479 229.016 43.3472L230.63 42.5349C230.559 42.3748 230.457 42.2307 230.329 42.1112C230.202 41.9917 230.051 41.8992 229.887 41.8394C229.722 41.7796 229.548 41.7537 229.373 41.7632C229.198 41.7726 229.027 41.8174 228.87 41.8946C228.734 41.9644 228.61 42.0572 228.505 42.169C228.546 41.9921 228.573 41.8122 228.585 41.631C228.64 41.0974 228.513 40.5611 228.225 40.1085C227.993 39.8043 227.702 39.55 227.369 39.3607C226.003 38.5052 224.384 38.1878 222.861 37.6498C222 37.3432 221.166 36.9666 220.316 36.6222C219.764 36.346 219.144 36.234 218.53 36.2994C218.221 36.3509 217.944 36.5231 217.761 36.7784C217.579 37.0336 217.505 37.351 217.556 37.6606C217.222 37.3572 216.806 37.1592 216.36 37.0912C215.914 37.0233 215.458 37.0885 215.049 37.2786C214.663 37.4387 214.337 37.7159 214.117 38.0711C213.897 38.4263 213.794 38.8416 213.823 39.2584C213.272 39.1214 212.69 39.1784 212.176 39.4198C211.922 39.5422 211.71 39.7376 211.567 39.9809C211.425 40.2243 211.357 40.5047 211.375 40.7864C211.587 41.5301 212.056 42.1745 212.698 42.6048Z" fill="#37474F"/>
<path d="M221.252 44.3144C222.372 44.1799 223.48 43.997 224.588 43.8249C224.637 43.8103 224.689 43.8062 224.74 43.8127C224.791 43.8191 224.84 43.8361 224.884 43.8625C224.932 43.9068 224.964 43.9653 224.975 44.0293C225.707 46.1813 225.686 48.4678 226.267 50.6359C226.32 50.835 226.444 51.1739 226.681 51.1739C227.111 51.2224 227.407 50.8404 227.59 50.5068L228.004 49.759C228.09 49.6193 228.193 49.4909 228.311 49.377C228.849 48.8982 230.372 48.301 231.087 49.9473C231.803 51.5936 230.269 53.8101 229.032 54.1545C226.88 54.7516 226.616 53.3797 226.616 53.3797L226.207 61.0193C224.314 62.9992 218.089 62.3105 219.321 60.5889L219.402 58.2648C218.452 58.3864 217.493 58.4044 216.54 58.3186C214.99 58.0281 214.054 56.7691 213.634 55.0906C212.962 52.3575 213.037 49.0166 213.564 44.8686C213.629 44.377 213.757 43.8959 213.946 43.4375C216.125 44.6534 218.778 44.6103 221.252 44.3144Z" fill="#FFA8A7"/>
<path d="M219.402 58.2927C219.402 58.2927 222.904 57.7063 224.142 57.0984C224.869 56.7474 225.472 56.1848 225.874 55.4844C225.667 56.1894 225.321 56.8461 224.857 57.4158C223.932 58.5241 219.375 59.2127 219.375 59.2127L219.402 58.2927Z" fill="#F28F8F"/>
<path d="M219.902 49.6751C219.903 49.8218 219.947 49.965 220.029 50.0868C220.111 50.2085 220.227 50.3035 220.363 50.3599C220.498 50.4162 220.647 50.4315 220.791 50.4037C220.935 50.376 221.068 50.3064 221.173 50.2038C221.278 50.1011 221.35 49.9699 221.381 49.8264C221.412 49.6829 221.4 49.5335 221.346 49.3969C221.293 49.2602 221.2 49.1423 221.08 49.0579C220.96 48.9734 220.818 48.9261 220.671 48.9219C220.47 48.9205 220.276 48.9988 220.132 49.1399C219.987 49.281 219.905 49.4734 219.902 49.6751Z" fill="#263238"/>
<path d="M220.94 46.564L222.506 47.2365C222.592 47.0233 222.592 46.7853 222.507 46.5718C222.422 46.3584 222.258 46.186 222.049 46.0905C221.945 46.0463 221.834 46.0234 221.721 46.0234C221.608 46.0234 221.497 46.0462 221.393 46.0905C221.29 46.1347 221.196 46.1995 221.118 46.2809C221.041 46.3622 220.98 46.4585 220.94 46.564Z" fill="#263238"/>
<path d="M220.806 53.7344L218.353 54.5683C218.4 54.7321 218.48 54.8847 218.587 55.017C218.694 55.1494 218.828 55.2587 218.978 55.3385C219.129 55.4184 219.294 55.4671 219.464 55.4817C219.634 55.4963 219.805 55.4766 219.967 55.4237C220.299 55.3062 220.572 55.0642 220.728 54.7489C220.885 54.4337 220.913 54.0698 220.806 53.7344Z" fill="#B16668"/>
<path d="M219.972 55.4157C220.181 55.3434 220.368 55.2198 220.517 55.0562C220.665 54.8926 220.77 54.6944 220.822 54.4796C220.659 54.4018 220.478 54.3664 220.298 54.3768C220.117 54.3871 219.942 54.4429 219.788 54.5389C219.635 54.6349 219.508 54.7681 219.42 54.926C219.332 55.084 219.285 55.2616 219.283 55.4426C219.511 55.5009 219.75 55.4915 219.972 55.4157Z" fill="#F28F8F"/>
<path d="M213.683 47.1973L215.243 46.6001C215.206 46.4963 215.149 46.4011 215.074 46.3204C214.999 46.2397 214.908 46.1752 214.807 46.1308C214.707 46.0865 214.598 46.0632 214.488 46.0625C214.377 46.0618 214.268 46.0836 214.167 46.1266C213.965 46.2095 213.802 46.3666 213.712 46.5657C213.622 46.7647 213.612 46.9907 213.683 47.1973Z" fill="#263238"/>
<path d="M214.232 49.6727C214.233 49.8205 214.277 49.9647 214.36 50.0873C214.442 50.21 214.559 50.3056 214.695 50.3624C214.832 50.4192 214.982 50.4345 215.127 50.4066C215.272 50.3786 215.406 50.3086 215.512 50.2051C215.617 50.1017 215.69 49.9695 215.721 49.825C215.752 49.6805 215.74 49.53 215.686 49.3924C215.632 49.2548 215.539 49.136 215.418 49.051C215.297 48.9659 215.154 48.9183 215.006 48.9141C214.803 48.9126 214.608 48.9916 214.463 49.1337C214.317 49.2758 214.234 49.4696 214.232 49.6727Z" fill="#263238"/>
<path d="M217.89 49.4413L217.777 53.5731L215.474 52.906L217.626 49.409C217.716 49.4006 217.805 49.4116 217.89 49.4413Z" fill="#F28F8F"/>
<path d="M211.009 72.3151C211.186 68.038 211.547 64.2451 213.118 62.2491C214.689 60.2531 215.566 59.8604 219.343 59.9196V60.1778C219.128 60.1912 218.919 60.254 218.732 60.3613C218.546 60.4686 218.386 60.6176 218.267 60.7965C216.96 62.7799 215.979 64.9594 215.361 67.2525C214.285 71.4113 214.076 80.7025 214.016 85.7006C213.957 90.6986 214.016 94.7336 214.016 94.7336C214.016 94.7336 211.488 94.1418 210.708 92.8775C210.708 92.8775 210.826 76.5976 211.009 72.3151Z" fill="#0FA968"/>
<path opacity="0.35" d="M211.009 72.3151C211.186 68.038 211.547 64.2451 213.118 62.2491C214.689 60.2531 215.566 59.8604 219.343 59.9196V60.1778C219.128 60.1912 218.919 60.254 218.732 60.3613C218.546 60.4686 218.386 60.6176 218.267 60.7965C216.96 62.7799 215.979 64.9594 215.361 67.2525C214.285 71.4113 214.076 80.7025 214.016 85.7006C213.957 90.6986 214.016 94.7336 214.016 94.7336C214.016 94.7336 211.488 94.1418 210.708 92.8775C210.708 92.8775 210.826 76.5976 211.009 72.3151Z" fill="black"/>
<path d="M224.066 65.5067C224.604 63.2256 225.718 61.7407 226.218 60.5625L230.942 61.2296C232.68 62.0312 234.939 63.9196 234.772 65.8564L233.535 79.8767L233.879 93.1545C231.189 97.3456 223.119 96.5708 223.119 96.5708C223.119 96.5708 222.888 90.599 223.146 79.0643C223.308 72.5976 223.383 68.4119 224.066 65.5067Z" fill="#0FA968"/>
<path opacity="0.35" d="M224.066 65.5067C224.604 63.2256 225.718 61.7407 226.218 60.5625L230.942 61.2296C232.68 62.0312 234.939 63.9196 234.772 65.8564L233.535 79.8767L233.879 93.1545C231.189 97.3456 223.119 96.5708 223.119 96.5708C223.119 96.5708 222.888 90.599 223.146 79.0643C223.308 72.5976 223.383 68.4119 224.066 65.5067Z" fill="black"/>
<path d="M223.846 66.6327C224.158 65.1693 224.324 62.447 224.583 61.8983C224.841 61.3495 226.245 60.2843 226.299 59.5257V59.0469C226.743 59.1328 227.154 59.3437 227.482 59.6548C227.924 60.0476 229.226 60.9568 229.226 60.9568C229.097 61.86 228.762 62.7215 228.246 63.4746C227.472 64.5883 226.396 65.3146 226.229 65.0402C226.062 64.7658 226.089 64.3462 225.804 63.7006C225.449 62.8882 225.363 62.5439 224.986 63.3455C224.706 63.9857 223.846 66.6327 223.846 66.6327Z" fill="#37474F"/>
<path d="M215.792 65.8327C215.41 67.0701 216.416 61.561 217.072 60.5926C217.729 59.6242 219.396 59.2422 219.396 59.2422L219.326 60.4312C218.887 60.5353 218.503 60.8002 218.25 61.1736C217.231 62.6125 216.404 64.1789 215.792 65.8327Z" fill="#37474F"/>
<path d="M223.673 67.7891C227.288 68.1587 230.879 68.7208 234.433 69.473L234.396 69.8711C230.833 69.1147 227.232 68.5508 223.609 68.1818C223.647 68.0634 223.657 67.9289 223.673 67.7891Z" fill="#0FA968"/>
<path d="M211.342 67.7164C212.521 67.5765 213.86 67.4528 215.329 67.3828L215.232 67.7863C213.78 67.8563 212.456 67.98 211.299 68.1199C211.31 67.9854 211.326 67.8455 211.342 67.7164Z" fill="#0FA968"/>
<path d="M243.585 80.127C238.538 67.3119 237.435 63.3253 233.874 61.835C232.935 61.4744 231.946 61.2637 230.942 61.2109C230.065 62.8249 228.79 69.0227 232.997 73.3375C232.997 73.3375 236.053 80.8695 237.591 84.431C237.543 88.0141 237.801 91 236.709 95.842C236.487 96.4963 236.061 97.062 235.493 97.456C234.213 98.1608 233.998 98.957 233.051 99.8662C232.314 100.576 231.668 100.743 231.776 100.98C231.942 101.242 232.192 101.44 232.484 101.543C232.777 101.647 233.096 101.649 233.39 101.55C234.082 101.267 234.747 100.919 235.375 100.512C235.499 100.657 234.299 102.567 233.056 103.96C231.211 106.01 230.764 107.49 234.45 107.635C236.758 107.726 239.249 105.833 240.814 101.233C241.121 100.324 241.444 99.0108 241.772 97.7304C242.008 97.1924 243.698 88.5521 244.053 85.8944C244.526 82.6126 244.408 82.2091 243.585 80.127Z" fill="#FFA8A7"/>
<path d="M230.312 61.2294C231.848 61.0106 233.414 61.2857 234.783 62.0148C236.779 63.22 237.473 64.2744 239.878 69.8804C242.283 75.4864 242.756 76.5677 242.756 76.5677C242.756 76.5677 241.68 79.7635 235.257 80.1293L232.378 73.5657C232.378 73.5657 229.99 70.5906 229.769 66.916C229.548 63.2415 230.312 61.2294 230.312 61.2294Z" fill="#0FA968"/>
<path opacity="0.45" d="M230.312 61.2294C231.848 61.0106 233.414 61.2857 234.783 62.0148C236.779 63.22 237.473 64.2744 239.878 69.8804C242.283 75.4864 242.756 76.5677 242.756 76.5677C242.756 76.5677 241.68 79.7635 235.257 80.1293L232.378 73.5657C232.378 73.5657 229.99 70.5906 229.769 66.916C229.548 63.2415 230.312 61.2294 230.312 61.2294Z" fill="black"/>
</svg>
