<svg width="271" height="271" viewBox="0 0 271 271" fill="none" xmlns="http://www.w3.org/2000/svg">
<path d="M135.337 259.148C195.792 259.148 244.8 230.854 244.8 195.951C244.8 161.048 195.792 132.754 135.337 132.754C74.8831 132.754 25.8751 161.048 25.8751 195.951C25.8751 230.854 74.8831 259.148 135.337 259.148Z" fill="#F5F5F5"/>
<path d="M163.093 236.164L190.312 220.446C193.602 218.549 193.602 215.465 190.312 213.568L144.454 187.091C141.164 185.188 135.825 185.188 132.53 187.091L105.311 202.809C102.015 204.711 102.015 207.79 105.311 209.692L151.164 236.169C154.47 238.066 159.798 238.066 163.093 236.164Z" fill="#E0E0E0"/>
<path d="M102.845 203.802C118.506 203.802 131.202 196.472 131.202 187.429C131.202 178.385 118.506 171.055 102.845 171.055C87.1831 171.055 74.4871 178.385 74.4871 187.429C74.4871 196.472 87.1831 203.802 102.845 203.802Z" fill="#E0E0E0"/>
<path d="M113.636 69.4662C114.488 69.2967 115.366 69.3091 116.214 69.5024C117.061 69.6957 117.857 70.0657 118.552 70.5882C120.839 72.3605 121.663 74.7236 122.308 78.935C122.953 83.1463 123.934 90.6259 123.934 90.6259L137.776 100.469C137.316 100.75 134.319 104.263 134.048 105.845C134.048 105.845 123.115 101.721 118.573 99.2329C114.031 96.7451 114.118 95.6231 113.657 93.737C113.197 91.8508 111.294 77.3794 111.733 74.1491C112.172 70.9188 112.541 69.9161 113.636 69.4662Z" fill="#263238"/>
<path d="M45.3817 163.18C44.8939 162.909 43.4955 163.635 43.0619 164.031C42.6283 164.427 42.1243 165.852 42.0863 167.115C42.0592 167.993 42.4928 169.175 41.7828 170.909C40.8126 173.283 39.8316 175.505 40.1568 178.432C40.482 181.359 41.1432 182.145 42.0375 183.202C42.5542 183.807 43.2049 184.283 43.9378 184.592C44.6707 184.902 45.4658 185.036 46.2597 184.985C46.6521 184.983 47.0379 184.883 47.3816 184.694C47.7253 184.504 48.016 184.232 48.2272 183.901L45.3817 163.18Z" fill="#263238"/>
<path d="M93.6414 183.427L100.384 184.793L102.893 173.081L96.1454 171.715L93.6414 183.427Z" fill="#FFA8A7"/>
<path d="M101.582 147.636C101.728 148.959 100.888 150.888 100.053 152.514C97.4949 157.576 94.747 174.14 93.9448 178.779C96.2515 180.314 99.0517 180.924 101.788 180.487C101.788 180.487 113.983 152.454 114.59 150.053C115.506 146.433 116.46 129.891 116.758 123.56C117.121 115.81 117.749 107.956 117.749 107.956L88.1563 105.441C88.1563 105.441 86.281 112.661 84.9747 116.926C83.6685 121.192 80.4599 133.642 78.5737 136.98C77.6287 138.566 76.2191 139.822 74.5358 140.579C66.0156 143.831 56.3463 157.197 52.4927 160.091C52.4927 165.511 56.9804 166.552 56.9804 166.552C56.9804 166.552 82.8013 150.178 84.9368 148.796C88.1888 146.698 90.6332 143.457 93.1806 138.178C96.0044 132.325 100.834 121.165 100.834 121.165C100.834 121.165 101.094 143.251 101.582 147.636Z" fill="#0FA968"/>
<path opacity="0.5" d="M101.582 147.636C101.728 148.959 100.888 150.888 100.053 152.514C97.4949 157.576 94.747 174.14 93.9448 178.779C96.2515 180.314 99.0517 180.924 101.788 180.487C101.788 180.487 113.983 152.454 114.59 150.053C115.506 146.433 116.46 129.891 116.758 123.56C117.121 115.81 117.749 107.956 117.749 107.956L88.1563 105.441C88.1563 105.441 86.281 112.661 84.9747 116.926C83.6685 121.192 80.4599 133.642 78.5737 136.98C77.6287 138.566 76.2191 139.822 74.5358 140.579C66.0156 143.831 56.3463 157.197 52.4927 160.091C52.4927 165.511 56.9804 166.552 56.9804 166.552C56.9804 166.552 82.8013 150.178 84.9368 148.796C88.1888 146.698 90.6332 143.457 93.1806 138.178C96.0044 132.325 100.834 121.165 100.834 121.165C100.834 121.165 101.094 143.251 101.582 147.636Z" fill="black"/>
<path opacity="0.2" d="M100.812 121.198C100.812 121.295 100.991 141.414 101.5 146.975L102.834 122.043C104.845 121.099 106.577 119.648 107.858 117.832C103.966 120.591 100.845 121.198 100.845 121.198H100.812Z" fill="black"/>
<path opacity="0.05" d="M113.685 141.425C112.265 141.16 111.04 140.271 109.587 140.238C109.416 140.219 109.243 140.235 109.078 140.284C108.913 140.334 108.76 140.416 108.628 140.526C108.037 141.256 107.636 142.122 107.462 143.046C107.414 143.637 107.565 144.303 107.181 144.77C106.796 145.236 106.259 145.241 105.793 145.48C105.425 145.688 105.104 145.97 104.85 146.309C104.416 146.851 104.064 147.637 104.503 148.168C104.722 148.36 104.987 148.491 105.272 148.549C105.557 148.607 105.853 148.59 106.129 148.498C106.679 148.314 107.269 148.281 107.836 148.401C108.183 148.57 108.466 148.847 108.644 149.189C108.821 149.532 108.884 149.922 108.823 150.303C108.763 151.062 108.443 151.783 108.362 152.542C108.28 153.031 108.387 153.532 108.66 153.946C109.262 154.753 110.622 154.683 111.435 154.07C112.183 153.392 112.73 152.523 113.018 151.555L114.102 148.797C114.328 148.126 114.661 147.496 115.088 146.932C115.262 145.512 115.424 143.794 115.587 141.924C114.97 141.698 114.333 141.531 113.685 141.425Z" fill="black"/>
<path opacity="0.05" d="M105.625 141.266C106.037 141.081 106.375 140.764 106.587 140.366C106.799 139.968 106.872 139.51 106.796 139.065C106.603 138.177 106.095 137.389 105.365 136.848C104.72 136.306 103.934 135.862 103.668 135.092C103.581 134.747 103.563 134.387 103.616 134.035C103.668 133.683 103.789 133.344 103.972 133.038C104.341 132.427 104.625 131.769 104.817 131.082C104.902 130.733 104.873 130.367 104.734 130.036C104.596 129.706 104.355 129.428 104.048 129.244C103.208 128.848 102.232 129.445 101.609 130.111C101.383 130.35 101.173 130.604 100.98 130.87C101.04 133.737 101.11 136.832 101.191 139.661C101.729 139.88 102.237 140.166 102.704 140.512C103.571 141.087 104.644 141.634 105.625 141.266Z" fill="black"/>
<path opacity="0.15" d="M98.1399 125.484C97.8955 124.536 97.937 123.536 98.2592 122.612C98.5821 121.69 98.6696 120.703 98.5139 119.739C98.3611 119.22 98.034 118.769 97.5878 118.463C97.1415 118.157 96.6034 118.014 96.0641 118.059C95.6813 118.151 95.3307 118.345 95.05 118.621C94.7692 118.897 94.569 119.244 94.4706 119.625C94.2952 120.377 94.1577 121.136 94.0587 121.902C93.9508 122.543 93.609 123.123 93.0993 123.528C92.545 123.773 92.0314 124.102 91.5763 124.503C91.1742 124.893 90.9146 125.406 90.8392 125.961C90.8215 126.19 90.8514 126.419 90.9269 126.636C91.0025 126.852 91.1221 127.051 91.2782 127.219C91.5546 127.517 91.934 127.728 92.1237 128.075C92.4327 128.617 92.1237 129.316 92.0316 129.95C91.9855 130.362 92.0253 130.779 92.1485 131.174C92.2716 131.57 92.4754 131.935 92.747 132.248C93.318 132.892 94.076 133.341 94.915 133.533C95.0505 133.565 95.1914 133.582 95.3324 133.603C96.4543 131.148 97.6196 128.519 98.5844 126.313C98.4098 126.052 98.261 125.774 98.1399 125.484Z" fill="black"/>
<path opacity="0.05" d="M93.9665 136.546L93.7605 136.351C92.9868 135.616 91.98 135.175 90.915 135.104C90.6993 135.075 90.4804 135.075 90.2646 135.104C89.9679 135.178 89.6905 135.315 89.4516 135.505C89.0227 135.781 88.6294 136.109 88.2809 136.481C87.7389 137.104 87.4137 137.917 86.8934 138.573C86.3692 139.321 85.6038 139.867 84.7254 140.118C84.1238 140.253 83.4409 140.21 82.9476 140.568C82.8161 140.671 82.7078 140.801 82.6298 140.948C82.5519 141.096 82.506 141.259 82.4953 141.426C82.4845 141.593 82.5091 141.76 82.5675 141.916C82.6258 142.073 82.7166 142.216 82.8338 142.335C83.3216 142.795 84.2159 142.877 84.411 143.522C84.4419 143.73 84.4242 143.942 84.3593 144.143C84.2944 144.343 84.1841 144.526 84.0371 144.676C83.7877 145.012 83.4951 145.337 83.2349 145.652C83.0729 145.797 82.9547 145.985 82.8934 146.194C82.887 146.361 82.9369 146.526 83.0352 146.661C83.1335 146.797 83.2744 146.896 83.4354 146.942C83.7621 147.035 84.1069 147.044 84.4381 146.969C86.256 146.67 87.9031 145.72 89.0722 144.297C89.5111 143.644 90.022 143.042 90.5953 142.503C90.7271 142.406 90.8647 142.317 91.0072 142.237C91.7389 141.039 92.4597 139.711 93.1752 138.205C93.4245 137.695 93.6901 137.126 93.9665 136.546Z" fill="black"/>
<path opacity="0.15" d="M99.5872 164.35C99.2728 163.564 99.9937 162.724 99.8419 161.879C99.7762 161.587 99.6382 161.317 99.4408 161.093C98.9767 160.539 98.3546 160.14 97.6576 159.949C97.1753 161.89 96.7146 163.993 96.2864 166.074C97.3479 166.855 98.6605 167.215 99.972 167.087C100.168 167.083 100.36 167.031 100.531 166.937C100.703 166.843 100.85 166.708 100.958 166.545C101.143 166.133 100.85 165.667 100.514 165.358C100.134 165.096 99.8169 164.751 99.5872 164.35Z" fill="black"/>
<path opacity="0.1" d="M111.11 134.596C110.373 135.057 109.522 135.68 109.641 136.52C109.76 137.36 110.866 137.778 111.76 138.049C112.986 138.428 114.154 138.975 115.229 139.675C115.397 139.783 115.571 139.897 115.771 139.989C116.096 135.805 116.378 131.16 116.579 127.523C116.194 127.288 115.756 127.156 115.305 127.138C115.046 127.117 114.786 127.158 114.547 127.258C114.307 127.358 114.095 127.514 113.928 127.713C113.746 128.004 113.661 128.345 113.684 128.688C113.712 129.49 114.064 130.266 114.026 131.068C113.934 132.618 112.476 133.751 111.11 134.596Z" fill="black"/>
<path opacity="0.1" d="M112.655 111.864C112.646 111.577 112.555 111.299 112.395 111.061C112.17 110.803 111.89 110.6 111.576 110.465C110.229 109.787 108.818 109.242 107.365 108.839C106.241 108.489 105.068 108.322 103.891 108.346C103.018 108.384 101.723 108.227 100.964 108.633C100.697 108.746 100.459 108.915 100.265 109.129C100.071 109.344 99.9268 109.598 99.8419 109.874C99.8002 110.244 99.8582 110.619 100.01 110.958C100.473 112.11 100.603 113.368 100.384 114.59C100.227 115.842 100.346 116.931 101.544 117.674C101.942 117.913 102.387 118.061 102.849 118.109C103.311 118.157 103.777 118.103 104.216 117.95C104.818 117.707 105.369 117.354 105.842 116.91C106.714 116.172 107.565 115.349 108.666 114.991C109.479 114.725 110.378 114.731 111.148 114.368C111.619 114.147 112.014 113.791 112.282 113.345C112.551 112.899 112.68 112.383 112.655 111.864Z" fill="black"/>
<path opacity="0.15" d="M110.817 124.55C110.275 124.203 109.506 124.068 109.034 123.607C108.563 123.147 108.628 122.382 108.205 121.792C108.081 121.608 107.914 121.457 107.718 121.353C107.523 121.249 107.305 121.195 107.083 121.195C106.373 121.239 105.945 121.981 105.809 122.648C105.674 123.315 105.685 124.052 105.267 124.604C104.974 124.93 104.645 125.221 104.286 125.472C102.779 126.762 104.541 127.477 105.37 128.301C106.844 129.786 104.742 131.721 105.912 133.244C106.233 133.584 106.656 133.81 107.117 133.886C107.578 133.962 108.052 133.885 108.465 133.667C109.273 133.212 109.896 132.489 110.227 131.623C110.595 130.794 110.812 129.911 111.197 129.087C111.557 128.47 111.834 127.809 112.021 127.119C112.089 126.621 112.011 126.113 111.798 125.657C111.585 125.202 111.244 124.817 110.817 124.55Z" fill="black"/>
<path opacity="0.1" d="M104.292 160.021C104.958 159.198 104.882 158.027 104.622 157.013C104.36 156.353 104.283 155.633 104.4 154.932C104.812 153.604 106.828 152.943 106.742 151.561C106.682 150.656 105.658 150.06 104.725 149.962C103.793 149.864 102.834 150.097 101.885 150.049C101.652 150.033 101.422 149.984 101.202 149.902C100.876 150.797 100.492 151.67 100.053 152.515C99.3105 154.144 98.7155 155.836 98.2755 157.572C99.1481 158.282 99.5763 159.409 100.444 160.141C101.506 161.068 103.408 161.116 104.292 160.021Z" fill="black"/>
<path opacity="0.15" d="M106.985 156.637C106.541 157.083 106.2 157.62 105.985 158.212C105.769 158.803 105.685 159.435 105.739 160.062C105.798 161.52 106.281 163.151 105.359 164.333C104.817 165.016 103.842 165.59 104.015 166.425C104.145 167.059 104.888 167.363 105.527 167.563C106.069 167.746 106.623 167.889 107.186 167.991C108.969 163.829 110.861 159.39 112.286 155.948C110.373 155.46 108.091 155.639 106.985 156.637Z" fill="black"/>
<path opacity="0.05" d="M114.248 112.658C113.858 113.742 113.793 114.913 113.24 115.91C112.721 116.737 112.045 117.455 111.251 118.024C110.826 118.315 110.477 118.704 110.232 119.157C109.809 120.127 110.503 121.249 111.403 121.867C112.302 122.485 113.403 122.745 114.34 123.292C114.98 123.666 115.538 124.159 116.189 124.517C116.353 124.607 116.523 124.685 116.698 124.75C116.698 124.327 116.736 123.937 116.752 123.574C116.98 118.696 117.294 113.818 117.527 110.826C117.397 110.772 117.267 110.718 117.132 110.674C115.641 110.181 114.687 111.471 114.248 112.658Z" fill="black"/>
<path opacity="0.05" d="M85.2566 115.988C86.0317 116.725 87.1482 117.023 88.0804 117.576C88.8611 118.033 89.5151 118.677 89.9828 119.451C90.164 119.835 90.4139 120.182 90.72 120.476C91.0841 120.713 91.5226 120.808 91.9523 120.743C92.382 120.678 92.7728 120.458 93.0505 120.124C93.3021 119.785 93.4659 119.39 93.5274 118.973C93.5888 118.556 93.5461 118.13 93.4029 117.733C93.2006 117.252 93.0498 116.751 92.953 116.237C92.8717 115.213 93.6359 114.319 94.411 113.614C95.186 112.91 96.037 112.189 96.3188 111.191C96.4126 110.73 96.3967 110.254 96.2724 109.8C96.1481 109.346 95.919 108.928 95.6034 108.579C94.9564 107.866 94.1755 107.288 93.3053 106.877C92.4781 106.418 91.6196 106.018 90.7362 105.679L88.1509 105.457C88.1509 105.457 86.5303 111.652 85.2566 115.988Z" fill="black"/>
<path opacity="0.15" d="M81.1916 149.885C80.7853 149.737 80.3686 149.619 79.945 149.533C79.737 149.487 79.5426 149.394 79.3778 149.259C79.2129 149.124 79.0823 148.952 78.9965 148.757C78.8665 148.324 79.1429 147.944 79.3109 147.565C79.5464 147.065 79.6914 146.528 79.7391 145.977C79.7768 145.629 79.7277 145.277 79.5963 144.953C79.4648 144.628 79.255 144.341 78.9857 144.118C78.6327 143.881 78.223 143.743 77.7987 143.717C77.3141 143.657 76.8223 143.723 76.3705 143.908C75.9186 144.093 75.522 144.391 75.2188 144.774C74.9382 145.248 74.754 145.773 74.6768 146.318C74.5929 146.864 74.3933 147.385 74.0914 147.847C73.6687 148.389 72.7852 148.611 72.0589 148.958C71.7535 149.059 71.4849 149.248 71.2871 149.502C71.0893 149.756 70.9712 150.063 70.9478 150.383C70.8828 151.63 72.8828 152.308 72.7906 153.549C72.6913 154.002 72.4933 154.428 72.2107 154.795C71.8736 155.389 71.7261 156.072 71.7879 156.752C71.8009 156.884 71.8245 157.014 71.8584 157.142C75.7283 154.687 79.5169 152.264 82.0372 150.676C81.8453 150.33 81.5495 150.053 81.1916 149.885Z" fill="black"/>
<path opacity="0.1" d="M81.6631 131.456C81.8149 132.155 81.7011 132.887 81.8041 133.592C81.8267 133.867 81.9069 134.135 82.0395 134.378C82.172 134.62 82.354 134.833 82.5737 135.001C82.9937 135.252 83.4947 135.332 83.9721 135.223C84.3936 135.184 84.803 135.06 85.1755 134.859C85.5481 134.658 85.8762 134.383 86.1401 134.052C86.6767 133.232 86.9193 132.253 86.8284 131.277C86.7386 130.783 86.6806 130.283 86.655 129.781C86.6821 128.545 87.6035 127.516 88.4165 126.529C89.2295 125.543 90.0425 124.361 89.7227 123.169C89.5672 122.648 89.2883 122.172 88.9097 121.781C87.6432 120.489 86.0719 119.537 84.3406 119.012C83.4843 122.009 82.2756 126.399 81.0886 130.188C81.3599 130.57 81.555 131 81.6631 131.456Z" fill="black"/>
<path opacity="0.15" d="M74.5305 140.588C73.8779 140.837 73.2424 141.128 72.6281 141.461C72.6616 141.922 72.7452 142.378 72.8774 142.821C72.9127 143.017 72.994 143.202 73.1146 143.36C73.2352 143.518 73.3917 143.646 73.5711 143.732C74.1131 143.905 74.6226 143.407 75.0291 143.011C75.6469 142.406 76.3857 141.939 77.1971 141.64C77.983 141.342 78.7093 141.423 79.5006 141.249C80.1395 141.086 80.7067 140.717 81.1143 140.198C81.522 139.68 81.7473 139.042 81.7553 138.382C81.7316 137.721 81.5419 137.077 81.2038 136.509C80.8656 135.94 80.3899 135.466 79.8204 135.13C79.7066 135.06 79.5873 134.989 79.4681 134.93C79.209 135.624 78.9048 136.302 78.5575 136.957C77.6206 138.553 76.2143 139.821 74.5305 140.588Z" fill="black"/>
<path opacity="0.1" d="M61.788 150.477C61.8711 150.599 61.9715 150.709 62.0861 150.802C62.5793 151.208 63.3598 151.382 63.5603 151.978C63.6027 152.184 63.5969 152.397 63.5433 152.6C63.4897 152.803 63.3897 152.991 63.2514 153.149C62.9746 153.469 62.758 153.836 62.6118 154.233C62.4221 155.013 63.0779 155.805 63.8692 156.059C64.6865 156.256 65.5443 156.202 66.3299 155.902C67.4952 155.534 68.7256 154.845 68.9803 153.702C69.1917 152.78 68.7039 151.848 68.151 151.073C67.9915 150.879 67.8667 150.659 67.7825 150.423C67.7093 150.012 67.7966 149.589 68.0264 149.241C68.5684 148.238 69.4681 147.463 70.1944 146.585C70.9207 145.707 71.5656 144.618 71.3976 143.501C71.3496 143.121 71.1715 142.768 70.8936 142.504C67.75 144.542 64.6172 147.517 61.788 150.477Z" fill="black"/>
<path d="M91.6467 71.9999C90.8879 72.9755 90.3351 74.8941 90.3622 77.0459V92.7639L87.262 107.176C91.327 111.663 113.359 116.314 117.397 109.794C117.397 109.794 121.018 86.3954 121.001 81.8426C121.001 78.6936 120.113 71.5446 114.611 69.4904L102.514 69.1869L99.4082 68.7695C96.3947 68.8834 93.9611 69.0297 91.6467 71.9999Z" fill="#37474F"/>
<path d="M119.826 55.8251C123.236 52.7671 123.521 47.5243 120.463 44.1149C117.405 40.7055 112.162 40.4206 108.752 43.4786C105.343 46.5366 105.058 51.7795 108.116 55.1889C111.174 58.5983 116.417 58.8831 119.826 55.8251Z" fill="#263238"/>
<path d="M99.6576 54.7422C99.6576 54.7422 100.655 61.1215 101.137 62.1838C101.46 62.8429 102.025 63.3516 102.714 63.6039L102.861 59.1649L99.6576 54.7422Z" fill="#263238"/>
<path d="M101.831 45.8209C101.359 45.7412 100.875 45.7711 100.416 45.9083C99.9577 46.0455 99.5367 46.2864 99.186 46.6123C98.0207 47.6963 98.4489 51.2518 99.6359 54.791L102.145 55.2192L101.831 45.8209Z" fill="#263238"/>
<path d="M102.926 55.2358C102.384 55.5122 101.733 54.4987 101.143 53.8103C100.552 53.122 98.5627 52.1139 97.4245 54.206C96.2863 56.2981 98.0478 59.3279 99.6305 59.9187C102.34 60.9431 102.882 59.187 102.882 59.187L102.552 69.1869C104.796 71.9836 113.43 74.5093 111.576 69.4091L111.733 66.3739C112.752 66.6609 113.808 66.7978 114.866 66.7804C116.92 66.5799 118.292 65.3007 119.142 63.1761C120.584 59.5826 121.039 55.8862 120.866 49.5231C120.66 41.8267 111.489 41.2793 106.53 44.0327C101.571 46.786 102.926 55.2358 102.926 55.2358Z" fill="#FFA8A7"/>
<path d="M102.882 56.0866C102.655 55.9674 101.744 54.4173 101.143 53.8102C100.313 52.9647 101.831 45.8211 101.831 45.8211C101.831 45.8211 101.088 43.9838 102.872 42.2223C103.775 41.315 104.894 40.6512 106.124 40.2927C107.901 39.7995 109.636 40.1843 111.386 40.5746C113.239 41.078 115.152 41.3224 117.072 41.3009C118.565 41.2142 120.021 40.8075 121.343 40.1085C121.597 39.9341 121.897 39.838 122.205 39.832C122.85 39.8862 122.964 40.6234 122.898 41.1383C122.773 42.1013 122.381 43.0101 121.766 43.7615C122.221 43.6965 122.85 43.7128 122.974 44.1518C123.012 44.2828 123.012 44.4218 122.974 44.5529C122.863 44.9582 122.655 45.3304 122.367 45.6369C120.481 47.8536 117.034 48.6937 114.21 48.5311C111.847 48.3902 109.592 47.3875 107.224 47.29C106.902 47.2587 106.578 47.2937 106.27 47.3929C105.842 47.5703 105.496 47.9008 105.3 48.3198C105.104 48.7369 104.97 49.1807 104.904 49.6368C104.606 51.2195 104.622 52.8238 104.395 54.4173C104.281 55.214 103.999 56.6991 102.882 56.0866Z" fill="#263238"/>
<path d="M101.804 46.3857L98.8282 44.57C98.938 44.3693 99.0871 44.1929 99.2667 44.0514C99.4464 43.9099 99.6527 43.8062 99.8735 43.7464C100.094 43.6867 100.325 43.6722 100.551 43.7038C100.778 43.7354 100.995 43.8125 101.191 43.9304C101.591 44.1814 101.877 44.5771 101.992 45.0348C102.106 45.4924 102.039 45.9765 101.804 46.3857Z" fill="#263238"/>
<path d="M111.712 66.3746C111.712 66.3746 107.219 65.2093 105.674 64.277C104.764 63.7409 104.038 62.9415 103.593 61.9844C103.784 62.9276 104.162 63.8232 104.704 64.6185C105.788 66.1632 111.647 67.5832 111.647 67.5832L111.712 66.3746Z" fill="#F28F8F"/>
<path d="M112.671 54.5296C112.654 54.707 112.585 54.8755 112.473 55.0141C112.361 55.1528 112.211 55.2555 112.041 55.3095C111.871 55.3636 111.689 55.3666 111.517 55.3181C111.346 55.2697 111.192 55.172 111.076 55.0372C110.959 54.9023 110.885 54.7362 110.862 54.5594C110.839 54.3827 110.868 54.2031 110.946 54.0428C111.024 53.8826 111.148 53.7488 111.301 53.6581C111.455 53.5673 111.631 53.5236 111.809 53.5323C111.932 53.5406 112.051 53.573 112.161 53.6277C112.27 53.6824 112.368 53.7583 112.448 53.8511C112.528 53.9438 112.589 54.0516 112.628 54.168C112.666 54.2845 112.681 54.4074 112.671 54.5296Z" fill="#263238"/>
<path d="M111.923 51.3777L109.918 52.3479C109.793 52.0724 109.78 51.7595 109.881 51.4746C109.982 51.1897 110.189 50.955 110.46 50.8194C110.592 50.7567 110.735 50.7214 110.882 50.7157C111.028 50.7099 111.174 50.7339 111.311 50.786C111.447 50.8382 111.572 50.9175 111.677 51.0192C111.783 51.1209 111.866 51.2428 111.923 51.3777Z" fill="#263238"/>
<path d="M111.609 60.8789L114.118 61.9629C114.053 62.1318 113.954 62.2857 113.828 62.4156C113.702 62.5455 113.551 62.6487 113.384 62.719C113.217 62.7893 113.037 62.8253 112.856 62.8248C112.675 62.8243 112.496 62.7874 112.33 62.7163C111.997 62.5601 111.738 62.2827 111.603 61.941C111.469 61.5993 111.471 61.2193 111.609 60.8789Z" fill="#F28F8F"/>
<path d="M119.712 52.9374L118.01 51.4903C118.1 51.3758 118.213 51.2807 118.341 51.2107C118.469 51.1408 118.61 51.0974 118.755 51.0832C118.9 51.0691 119.047 51.0844 119.186 51.1283C119.325 51.1721 119.454 51.2437 119.565 51.3386C119.787 51.5376 119.925 51.8129 119.952 52.1093C119.979 52.4058 119.893 52.7015 119.712 52.9374Z" fill="#263238"/>
<path d="M119.462 54.819C119.458 54.9408 119.43 55.0605 119.379 55.1713C119.329 55.2822 119.257 55.382 119.168 55.465C119.079 55.5481 118.974 55.6128 118.86 55.6554C118.746 55.698 118.625 55.7177 118.503 55.7133C118.314 55.7109 118.129 55.6518 117.974 55.5436C117.818 55.4355 117.699 55.2833 117.63 55.1067C117.562 54.93 117.548 54.737 117.591 54.5524C117.633 54.3679 117.73 54.2002 117.869 54.0711C118.007 53.942 118.181 53.8573 118.368 53.8279C118.555 53.7985 118.747 53.8258 118.918 53.9063C119.09 53.9867 119.233 54.1166 119.33 54.2793C119.427 54.442 119.473 54.63 119.462 54.819Z" fill="#263238"/>
<path d="M115.327 53.8438L114.535 59.318L117.88 59.1391L115.327 53.8438Z" fill="#F28F8F"/>
<path d="M91.056 188.238C90.6983 188.423 90.6386 188.851 90.7254 189.675C90.8121 190.498 91.7552 191.94 93.663 192.547C95.5708 193.154 97.7334 192.997 98.6602 193.425C100.021 194.054 100.947 195.284 103.82 196.721C106.011 197.841 108.497 198.248 110.931 197.886C113.245 197.599 113.869 196.433 113.869 196.433C113.869 196.433 114.525 194.807 114.037 194.439C113.549 194.07 91.056 188.238 91.056 188.238Z" fill="#263238"/>
<path d="M96.2972 165.997C94.6712 165.915 95.0993 166.934 94.7308 170.203C94.346 173.644 94.1563 177.72 93.1048 180.95C92.0533 184.181 91.056 186.349 91.056 188.614C91.7787 189.779 92.8846 190.654 94.1834 191.091C96.3514 191.807 97.934 191.633 99.2457 192.208C101.37 193.118 102.53 195.102 106.292 195.872C110.373 196.706 112.46 195.769 114.031 194.902C114.031 194.902 114.573 192.403 113.208 191.227C110.031 189.601 104.904 185.856 103.771 183.883C102.639 181.91 104.227 179.005 105.652 174.544C106.958 170.441 108.015 169.666 106.736 169.091L106.302 170.078C106.302 170.078 105.153 170.306 101.11 169.119C97.0668 167.932 96.1183 167.021 96.1183 167.021L96.2972 165.997Z" fill="#37474F"/>
<path d="M59.9127 152.431C59.9127 152.431 59.0943 151.379 58.0103 152.518C56.9263 153.656 53.0835 158.626 50.6445 160.106C48.2055 161.585 47.7936 162.127 45.0511 163.32C44.4899 163.873 44.0647 164.55 43.8089 165.295C43.5531 166.041 43.4737 166.836 43.5769 167.618C43.8695 169.672 43.2571 171.553 42.2977 173.612C41.2137 175.943 41.4089 179.206 42.8831 181.845C43.6932 183.241 44.9273 184.342 46.4061 184.989C48.5741 184.989 50.6825 184.794 50.6445 181.108C50.5352 178.098 51.0063 175.095 52.0321 172.263C53.2841 168.593 55.0618 168.572 59.0781 165.959C63.0943 163.347 66.9804 161.943 66.3734 160.626L65.5062 161.168C65.5062 161.168 62.6715 160.192 59.9344 156.653C58.4873 154.789 58.8884 153.542 58.8884 153.542L59.9127 152.431Z" fill="#37474F"/>
<path d="M157.044 226.855C156.975 225.569 156.603 224.318 155.959 223.203C155.315 222.088 154.416 221.14 153.337 220.438C152.253 219.814 151.299 219.793 150.627 220.243L148.123 221.679L153.44 230.709L155.917 229.283C156.638 228.898 157.044 228.064 157.044 226.855Z" fill="#455A64"/>
<path d="M150.741 221.933C151.824 222.633 152.727 223.579 153.375 224.694C154.023 225.81 154.398 227.062 154.47 228.35C154.47 230.713 152.812 231.672 150.763 230.491C149.684 229.787 148.787 228.838 148.144 227.722C147.501 226.606 147.13 225.354 147.061 224.068C147.039 221.705 148.698 220.751 150.741 221.933Z" fill="#37474F"/>
<path d="M149.489 225.475C149.489 224.548 150.031 224.125 150.746 224.526C151.128 224.8 151.44 225.159 151.657 225.575C151.875 225.991 151.992 226.453 151.998 226.922C151.998 227.843 151.456 228.272 150.746 227.871C150.364 227.597 150.052 227.238 149.833 226.822C149.615 226.406 149.497 225.945 149.489 225.475Z" fill="#455A64"/>
<path d="M155.088 217.988C155.088 217.988 155.088 222.216 153.072 223.712C152.692 223.994 152.286 224.189 152.047 224.389C151.532 224.817 151.874 225.603 152.502 225.939C153.408 226.427 158.356 225.11 160.454 221.089L155.088 217.988Z" fill="#37474F"/>
<path d="M153.169 219.094C153.169 219.094 153.169 223.321 151.148 224.817C150.768 225.099 150.367 225.294 150.129 225.495C149.614 225.923 149.955 226.709 150.578 227.039C151.489 227.527 156.437 226.21 158.535 222.189L153.169 219.094Z" fill="#263238"/>
<path d="M150.746 225.803C150.85 225.869 150.936 225.96 150.997 226.066C151.058 226.173 151.093 226.292 151.099 226.415C151.099 226.643 150.942 226.735 150.746 226.621C150.642 226.554 150.555 226.463 150.493 226.356C150.431 226.248 150.395 226.127 150.389 226.003C150.389 225.781 150.546 225.689 150.746 225.803Z" fill="#263238"/>
<path d="M185.364 210.502C185.294 209.216 184.923 207.965 184.28 206.849C183.637 205.733 182.74 204.785 181.662 204.08C180.578 203.462 179.624 203.435 178.952 203.89L176.453 205.315L181.765 214.345L184.247 212.92C184.941 212.54 185.364 211.705 185.364 210.502Z" fill="#455A64"/>
<path d="M179.077 205.576C180.156 206.279 181.054 207.226 181.698 208.341C182.343 209.456 182.715 210.707 182.784 211.993C182.784 214.356 181.126 215.316 179.077 214.134C177.998 213.432 177.099 212.484 176.455 211.369C175.811 210.254 175.439 209.003 175.37 207.717C175.37 205.354 177.028 204.395 179.077 205.576Z" fill="#37474F"/>
<path d="M177.825 209.13C177.825 208.209 178.367 207.781 179.077 208.182C179.458 208.456 179.77 208.815 179.988 209.231C180.205 209.647 180.322 210.108 180.329 210.578C180.329 211.504 179.787 211.927 179.077 211.526C178.695 211.252 178.383 210.893 178.166 210.477C177.948 210.061 177.832 209.6 177.825 209.13Z" fill="#455A64"/>
<path d="M183.418 201.625C183.418 201.625 183.418 205.858 181.402 207.354C181.023 207.636 180.621 207.831 180.383 208.026C179.868 208.454 180.21 209.246 180.833 209.576C181.743 210.064 186.692 208.747 188.784 204.725L183.418 201.625Z" fill="#37474F"/>
<path d="M181.499 202.738C181.499 202.738 181.499 206.966 179.483 208.462C179.104 208.744 178.697 208.939 178.459 209.139C177.949 209.567 178.285 210.353 178.914 210.689C179.819 211.177 184.768 209.86 186.865 205.811L181.499 202.738Z" fill="#263238"/>
<path d="M179.077 209.447C179.18 209.515 179.267 209.607 179.329 209.714C179.391 209.821 179.427 209.941 179.435 210.065C179.435 210.287 179.272 210.379 179.077 210.266C178.973 210.199 178.887 210.108 178.825 210.002C178.763 209.896 178.727 209.776 178.719 209.653C178.719 209.426 178.86 209.333 179.077 209.447Z" fill="#263238"/>
<path d="M131.804 212.464C131.733 211.179 131.36 209.928 130.716 208.813C130.072 207.698 129.175 206.751 128.096 206.047C127.012 205.424 126.058 205.402 125.386 205.852L122.888 207.277L128.205 216.313L130.682 214.887C131.365 214.481 131.804 213.646 131.804 212.464Z" fill="#455A64"/>
<path d="M125.5 207.518C126.579 208.222 127.477 209.17 128.121 210.286C128.765 211.402 129.137 212.654 129.207 213.94C129.207 216.303 127.549 217.263 125.5 216.081C124.421 215.377 123.523 214.429 122.878 213.313C122.234 212.197 121.862 210.945 121.793 209.658C121.793 207.295 123.451 206.336 125.5 207.518Z" fill="#37474F"/>
<path d="M124.248 211.073C124.248 210.152 124.79 209.729 125.5 210.125C125.883 210.399 126.196 210.759 126.415 211.176C126.633 211.593 126.75 212.055 126.758 212.526C126.758 213.447 126.216 213.87 125.5 213.474C125.118 213.2 124.805 212.84 124.588 212.423C124.371 212.006 124.254 211.544 124.248 211.073Z" fill="#455A64"/>
<path d="M129.841 203.578C129.841 203.578 129.841 207.806 127.825 209.302C127.446 209.583 127.045 209.779 126.806 209.979C126.264 210.407 126.633 211.193 127.256 211.529C128.167 212.017 133.115 210.695 135.207 206.651L129.841 203.578Z" fill="#37474F"/>
<path d="M127.912 204.676C127.912 204.676 127.912 208.909 125.896 210.405C125.516 210.687 125.11 210.882 124.871 211.077C124.362 211.505 124.698 212.291 125.327 212.627C126.232 213.115 131.18 211.798 133.278 207.776L127.912 204.676Z" fill="#263238"/>
<path d="M125.5 211.383C125.604 211.451 125.69 211.542 125.752 211.649C125.814 211.756 125.85 211.877 125.858 212C125.858 212.228 125.695 212.32 125.5 212.206C125.396 212.138 125.31 212.047 125.248 211.94C125.186 211.833 125.15 211.712 125.142 211.589C125.142 211.383 125.305 211.274 125.5 211.383Z" fill="#263238"/>
<path d="M160.134 196.087C160.064 194.801 159.692 193.549 159.048 192.434C158.404 191.319 157.506 190.372 156.427 189.669C155.343 189.051 154.389 189.024 153.717 189.48L151.218 190.905L156.535 199.935L159.012 198.509C159.7 198.13 160.134 197.29 160.134 196.087Z" fill="#455A64"/>
<path d="M153.83 191.166C154.91 191.869 155.808 192.816 156.452 193.931C157.096 195.046 157.468 196.297 157.538 197.583C157.538 199.946 155.879 200.906 153.83 199.724C152.754 199.02 151.858 198.072 151.216 196.957C150.574 195.842 150.203 194.592 150.134 193.307C150.134 190.944 151.787 189.984 153.83 191.166Z" fill="#37474F"/>
<path d="M152.578 194.721C152.578 193.794 153.12 193.371 153.836 193.773C154.216 194.047 154.528 194.407 154.745 194.822C154.962 195.238 155.08 195.699 155.088 196.168C155.088 197.09 154.546 197.518 153.836 197.117C153.454 196.843 153.141 196.484 152.923 196.068C152.704 195.652 152.586 195.191 152.578 194.721Z" fill="#455A64"/>
<path d="M158.177 187.219C158.177 187.219 158.177 191.446 156.161 192.948C155.782 193.23 155.375 193.425 155.137 193.62C154.595 194.048 154.963 194.834 155.592 195.17C156.497 195.658 161.446 194.341 163.543 190.319L158.177 187.219Z" fill="#E0E0E0"/>
<path d="M156.259 188.324C156.259 188.324 156.259 192.552 154.237 194.048C153.858 194.33 153.456 194.525 153.218 194.725C152.703 195.153 153.045 195.939 153.668 196.275C154.578 196.758 159.527 195.441 161.624 191.397L156.259 188.324Z" fill="#263238"/>
<path d="M153.836 195.033C153.939 195.1 154.024 195.191 154.085 195.297C154.147 195.404 154.182 195.523 154.188 195.646C154.188 195.873 154.031 195.966 153.836 195.852C153.731 195.785 153.644 195.694 153.582 195.586C153.52 195.479 153.484 195.358 153.478 195.234C153.478 195.012 153.635 194.919 153.836 195.033Z" fill="#263238"/>
<path d="M166.394 225.407C165.047 225.436 163.714 225.118 162.524 224.486L126.4 203.792C124.367 202.621 122.172 199.749 122.172 197.147V162.296H124.118V197.147C124.118 198.919 125.836 201.228 127.37 202.112L163.489 222.784C164.398 223.228 165.396 223.458 166.408 223.458C167.419 223.458 168.417 223.228 169.326 222.784L190.882 210.318C191.456 209.987 191.798 209.57 191.798 209.207C191.798 208.843 191.472 208.448 190.903 208.123L154.665 187.467C152.633 186.296 150.443 183.424 150.443 180.822V155.738H152.378V180.838C152.378 182.611 154.096 184.92 155.63 185.803L191.868 206.459C193.071 207.152 193.732 208.133 193.732 209.217C193.732 210.301 193.05 211.315 191.852 212.009L170.296 224.475C169.097 225.115 167.753 225.436 166.394 225.407Z" fill="#37474F"/>
<path d="M150.698 158.234L121.05 175.351L169.229 203.172L198.876 186.055L150.698 158.234Z" fill="#0FA968"/>
<path opacity="0.1" d="M150.698 158.234L121.05 175.351L169.229 203.172L198.876 186.055L150.698 158.234Z" fill="black"/>
<path d="M118.438 126.894C118.18 125.618 118.315 124.293 118.825 123.095C119.334 121.898 120.196 120.882 121.294 120.184L143.088 107.512C145.256 106.254 147.494 107.338 148.101 109.772L150.676 120.325L148.107 121.81L145.543 111.973C145.491 111.686 145.367 111.416 145.184 111.189C145.001 110.962 144.763 110.785 144.494 110.673C144.224 110.562 143.931 110.519 143.641 110.55C143.351 110.581 143.073 110.685 142.833 110.851L123.321 122.265C122.616 122.722 122.062 123.378 121.73 124.15C121.398 124.922 121.303 125.775 121.457 126.601L123.625 135.94L121.012 137.447L118.438 126.894Z" fill="#E0E0E0"/>
<path d="M148.687 110.95C148.042 112.348 144.709 113.833 143.148 114.039C141.587 114.245 139.641 112.755 139.641 112.755L140.942 111.991C141.072 111.752 141.148 111.489 141.165 111.218C141.181 110.947 141.138 110.675 141.037 110.423C140.937 110.171 140.782 109.944 140.584 109.759C140.385 109.573 140.149 109.434 139.89 109.351L138.644 110.072C137.63 109.275 137.457 107.866 135.993 106.901C135.36 106.51 134.703 106.159 134.026 105.85C134.167 104.267 136.915 100.798 137.701 100.43C138.606 101.026 139.684 101.714 140.297 102.056C140.297 102.056 147.63 103.833 148.784 106.294C149.164 107.102 148.974 110.31 148.687 110.95Z" fill="#FFA8A7"/>
<path d="M121.05 137.441L150.698 120.324V158.232L121.05 175.348V137.441Z" fill="#0FA968"/>
<path opacity="0.2" d="M121.05 137.441L150.698 120.324V158.232L121.05 175.348V137.441Z" fill="white"/>
<path d="M150.676 120.324V158.232L198.854 186.047L209.976 154.557L150.676 120.324ZM166.443 158.405C165.779 158.575 165.075 158.474 164.484 158.126C163.894 157.778 163.466 157.209 163.294 156.546L156.914 136.72C156.768 136.405 156.69 136.064 156.686 135.717C156.682 135.37 156.751 135.027 156.89 134.709C157.029 134.391 157.234 134.107 157.491 133.874C157.748 133.642 158.052 133.466 158.382 133.36C158.712 133.254 159.061 133.219 159.405 133.258C159.75 133.297 160.082 133.409 160.38 133.587C160.678 133.764 160.935 134.002 161.133 134.287C161.332 134.571 161.468 134.894 161.532 135.235L167.912 155.056C168.159 155.692 168.147 156.4 167.876 157.027C167.605 157.654 167.098 158.149 166.464 158.405H166.443ZM180.21 165.852C179.546 166.02 178.843 165.919 178.255 165.571C177.666 165.223 177.238 164.655 177.066 163.993L170.681 144.172C170.535 143.858 170.457 143.516 170.453 143.169C170.449 142.823 170.518 142.479 170.657 142.161C170.796 141.844 171 141.559 171.258 141.327C171.515 141.094 171.819 140.919 172.149 140.813C172.479 140.707 172.828 140.672 173.172 140.711C173.517 140.75 173.849 140.862 174.147 141.039C174.445 141.216 174.702 141.455 174.9 141.739C175.099 142.023 175.235 142.346 175.299 142.687L181.678 162.513C181.925 163.151 181.908 163.86 181.633 164.486C181.358 165.112 180.846 165.603 180.21 165.852ZM193.96 173.294C193.296 173.462 192.593 173.361 192.003 173.013C191.413 172.665 190.985 172.097 190.811 171.435L184.432 151.614C183.971 150.172 184.627 148.671 185.901 148.264C186.566 148.095 187.272 148.197 187.862 148.547C188.453 148.898 188.88 149.469 189.05 150.134L195.429 169.961C195.672 170.597 195.654 171.303 195.379 171.927C195.104 172.55 194.594 173.039 193.96 173.288V173.294Z" fill="#0FA968"/>
<path opacity="0.55" d="M150.676 120.324V158.232L198.854 186.047L209.976 154.557L150.676 120.324ZM166.443 158.405C165.779 158.575 165.075 158.474 164.484 158.126C163.894 157.778 163.466 157.209 163.294 156.546L156.914 136.72C156.768 136.405 156.69 136.064 156.686 135.717C156.682 135.37 156.751 135.027 156.89 134.709C157.029 134.391 157.234 134.107 157.491 133.874C157.748 133.642 158.052 133.466 158.382 133.36C158.712 133.254 159.061 133.219 159.405 133.258C159.75 133.297 160.082 133.409 160.38 133.587C160.678 133.764 160.935 134.002 161.133 134.287C161.332 134.571 161.468 134.894 161.532 135.235L167.912 155.056C168.159 155.692 168.147 156.4 167.876 157.027C167.605 157.654 167.098 158.149 166.464 158.405H166.443ZM180.21 165.852C179.546 166.02 178.843 165.919 178.255 165.571C177.666 165.223 177.238 164.655 177.066 163.993L170.681 144.172C170.535 143.858 170.457 143.516 170.453 143.169C170.449 142.823 170.518 142.479 170.657 142.161C170.796 141.844 171 141.559 171.258 141.327C171.515 141.094 171.819 140.919 172.149 140.813C172.479 140.707 172.828 140.672 173.172 140.711C173.517 140.75 173.849 140.862 174.147 141.039C174.445 141.216 174.702 141.455 174.9 141.739C175.099 142.023 175.235 142.346 175.299 142.687L181.678 162.513C181.925 163.151 181.908 163.86 181.633 164.486C181.358 165.112 180.846 165.603 180.21 165.852ZM193.96 173.294C193.296 173.462 192.593 173.361 192.003 173.013C191.413 172.665 190.985 172.097 190.811 171.435L184.432 151.614C183.971 150.172 184.627 148.671 185.901 148.264C186.566 148.095 187.272 148.197 187.862 148.547C188.453 148.898 188.88 149.469 189.05 150.134L195.429 169.961C195.672 170.597 195.654 171.303 195.379 171.927C195.104 172.55 194.594 173.039 193.96 173.288V173.294Z" fill="white"/>
<path d="M229.542 115.815C229.044 114.645 226.935 115.864 224.735 117.176C222.708 118.379 218.773 120.688 218.453 120.292C218.133 119.897 218.209 118.124 217.602 117.008C216.995 115.891 215.608 115.664 215.7 116.683C215.754 117.268 215.559 119.252 215.516 120.157C215.472 121.062 215.353 122.287 214.513 122.894C213.673 123.501 196.714 127.62 196.714 127.62C196.714 127.62 182.654 120.824 179.781 119.241C176.909 117.658 174.573 116.114 170.535 116.661C165.375 119.024 167.586 123.772 170.139 126.715C171.538 128.341 172.237 127.192 177.05 128.764C182.865 130.661 191.89 136.027 196.714 136.352C202.025 135.355 215.803 130.206 217.163 129.848C218.789 129.436 219.873 129.669 221.185 129.306C222.767 128.894 224.128 128.612 225.521 127.626C225.73 127.505 225.91 127.341 226.049 127.145C226.189 126.949 226.284 126.724 226.328 126.487C226.328 126.244 226.269 126 226.285 125.75C226.383 125.355 226.451 124.953 226.491 124.547C226.442 124.005 225.819 123.577 225.803 123.051C225.803 122.824 226.09 122.173 226.003 121.967C225.819 121.512 225.591 121.425 225.369 121.073C225.244 120.889 224.903 120.58 225.098 120.347C225.293 120.114 226.025 119.723 227.477 118.525C228.93 117.328 229.884 116.612 229.542 115.815Z" fill="#9A4A4D"/>
<path d="M182.611 184.545C175.841 189.813 163.922 187.569 157.836 183.461C152.362 179.781 145.971 171.407 145.971 171.407C145.971 171.407 145.505 166.941 147.798 166.285L182.611 184.545Z" fill="#0FA968"/>
<path opacity="0.5" d="M182.611 184.545C175.841 189.813 163.922 187.569 157.836 183.461C152.362 179.781 145.971 171.407 145.971 171.407C145.971 171.407 145.505 166.941 147.798 166.285L182.611 184.545Z" fill="black"/>
<path opacity="0.2" d="M146.524 167.312C146.222 167.878 146.051 168.504 146.026 169.144C148.507 171.925 151.366 174.344 154.519 176.331C162.296 181.345 167.695 181.751 167.695 181.751C163.231 180.004 158.977 177.762 155.012 175.069C150.172 171.817 147.879 169.562 146.524 167.312Z" fill="black"/>
<path d="M139.451 176.215C138.064 176.627 135.505 176.188 133.641 174.329C131.777 172.47 131.023 169.451 132.709 166.936C134.394 164.421 136.167 163.267 137.131 161.7C138.096 160.134 138.573 157.657 139.657 156.345C140.086 155.84 140.619 155.433 141.219 155.152C141.82 154.872 142.474 154.724 143.137 154.719C143.561 154.711 143.982 154.799 144.367 154.977C144.752 155.156 145.091 155.42 145.359 155.749L145.901 156.378L139.451 176.215Z" fill="#263238"/>
<path d="M153.299 180.042C153.299 180.042 147.511 173.842 144.925 171.191C142.34 168.541 141.066 167.939 141.7 164.937C142.335 161.934 146.768 159.625 146.768 159.625L152.302 166.069L158.6 173.869C156.345 174.286 153.386 177.088 153.299 180.042Z" fill="#37474F"/>
<path d="M144.925 171.193L141.906 171.242C141.906 171.242 142.232 174.759 141.262 175.523C139.82 176.662 138.6 176.429 136.188 174.624C133.424 172.564 132.649 170.011 133.587 167.887C134.92 164.857 138.633 163.551 139.381 160.445C140.129 157.339 142.974 153.746 146.378 156.803C148.801 158.911 149.896 165.789 149.896 165.789L144.925 171.193Z" fill="#37474F"/>
<path d="M143.847 162.735C143.722 162.735 143.603 162.735 143.484 162.735C140.394 162.453 139.121 160.947 139.066 160.887L139.565 160.475L139.316 160.681L139.565 160.47C139.565 160.47 140.741 161.836 143.543 162.096C146.345 162.356 149.63 158.903 149.663 158.844L150.134 159.288C149.993 159.445 146.882 162.735 143.847 162.735Z" fill="#263238"/>
<path d="M136.281 170.649C135.348 170.649 134.01 170.535 133.37 171.478C134.091 172.752 134.454 173.592 135.961 174.73C138.378 176.535 139.82 176.67 141.262 175.532C142.232 174.768 141.906 171.25 141.906 171.25C139.522 171.381 137.766 170.611 136.281 170.649Z" fill="#263238"/>
<path d="M143.766 171.273C143.137 170.965 142.416 170.959 141.793 170.591C141.475 170.419 141.197 170.18 140.98 169.891C140.844 169.718 140.752 169.555 140.514 169.539C140.394 169.539 140.221 169.588 140.243 169.74C140.465 171.23 142.53 171.815 143.755 171.441C143.774 171.438 143.791 171.428 143.804 171.414C143.817 171.399 143.825 171.381 143.826 171.362C143.827 171.342 143.822 171.323 143.811 171.307C143.8 171.291 143.784 171.279 143.766 171.273Z" fill="#263238"/>
<path d="M145.765 169.837C145.917 169.642 146.08 169.539 146.156 169.295C146.16 169.268 146.155 169.24 146.141 169.216C146.127 169.193 146.106 169.174 146.08 169.165C145.375 168.905 144.85 170.14 144.898 171.105L144.519 170.883C144.245 170.716 143.996 170.509 143.782 170.27C143.571 170.046 143.402 169.785 143.283 169.501C143.207 169.273 143.283 168.959 143.158 168.769C143.136 168.745 143.109 168.725 143.079 168.712C143.048 168.698 143.015 168.691 142.982 168.691C142.949 168.691 142.916 168.698 142.886 168.712C142.856 168.725 142.829 168.745 142.806 168.769C142.313 169.376 142.915 170.27 143.348 170.737C143.695 171.105 144.4 171.582 144.947 171.452C144.966 171.621 145.04 171.778 145.158 171.901C145.275 172.023 145.43 172.103 145.597 172.13C145.663 172.13 145.771 172.097 145.722 172.01C145.546 171.568 145.479 171.091 145.527 170.617C145.521 170.338 145.605 170.065 145.765 169.837Z" fill="#263238"/>
<path d="M147.11 170.378C147.164 170.308 147.11 170.237 147.034 170.216C146.438 170.004 146.064 171.034 145.95 171.424C145.831 171.966 145.809 173.24 146.573 173.213C146.627 173.213 146.747 173.181 146.73 173.105C146.567 172.599 146.492 172.069 146.508 171.538C146.608 171.107 146.815 170.708 147.11 170.378Z" fill="#263238"/>
<path d="M148.405 171.673C148.459 171.602 148.405 171.532 148.324 171.505C147.733 171.293 147.359 172.329 147.24 172.719C147.115 173.234 147.099 174.529 147.863 174.502C147.912 174.502 148.031 174.469 148.02 174.394C147.852 173.889 147.775 173.359 147.793 172.827C147.893 172.396 148.104 171.998 148.405 171.673Z" fill="#263238"/>
<path d="M149.695 172.964C149.749 172.894 149.695 172.823 149.619 172.802C149.023 172.59 148.649 173.62 148.535 174.01C148.416 174.552 148.394 175.826 149.158 175.799C149.213 175.799 149.332 175.766 149.316 175.691C149.153 175.185 149.077 174.655 149.093 174.124C149.194 173.693 149.4 173.294 149.695 172.964Z" fill="#263238"/>
<path d="M150.99 174.259C151.045 174.188 150.99 174.118 150.909 174.096C150.318 173.879 149.944 174.914 149.852 175.305C149.727 175.819 149.711 177.12 150.475 177.088C150.524 177.088 150.643 177.055 150.633 176.979C150.467 176.474 150.39 175.944 150.405 175.413C150.499 174.985 150.7 174.587 150.99 174.259Z" fill="#263238"/>
<path d="M152.302 175.556C152.356 175.485 152.302 175.409 152.226 175.388C151.63 175.176 151.256 176.206 151.142 176.596C151.023 177.138 151.001 178.412 151.771 178.385C151.82 178.385 151.939 178.352 151.923 178.277C151.76 177.771 151.684 177.241 151.7 176.71C151.799 176.28 152.007 175.883 152.302 175.556Z" fill="#263238"/>
<path d="M194.735 171.896C194.193 169.571 189.716 164.363 185.353 160.704C180.99 157.046 174.031 150.91 174.031 150.91L146.074 152.58C144.373 155.089 143.787 159.924 144.752 163.04C146.058 167.262 147.288 169.831 155.001 175.083C158.971 177.78 163.231 180.024 167.7 181.772C171.375 183.208 173.597 185.506 174.437 185.679C176.529 186.113 178.952 186.221 180.941 185.506C183.613 184.536 184.611 182.048 183.857 179.398C184.399 179.446 184.898 179.474 185.38 179.479C185.922 179.479 186.464 179.479 186.865 179.479C188.338 179.518 189.806 179.296 191.201 178.823C194.291 177.69 195.51 175.262 194.735 171.896Z" fill="#0FA968"/>
<path opacity="0.5" d="M194.735 171.896C194.193 169.571 189.716 164.363 185.353 160.704C180.99 157.046 174.031 150.91 174.031 150.91L146.074 152.58C144.373 155.089 143.787 159.924 144.752 163.04C146.058 167.262 147.288 169.831 155.001 175.083C158.971 177.78 163.231 180.024 167.7 181.772C171.375 183.208 173.597 185.506 174.437 185.679C176.529 186.113 178.952 186.221 180.941 185.506C183.613 184.536 184.611 182.048 183.857 179.398C184.399 179.446 184.898 179.474 185.38 179.479C185.922 179.479 186.464 179.479 186.865 179.479C188.338 179.518 189.806 179.296 191.201 178.823C194.291 177.69 195.51 175.262 194.735 171.896Z" fill="black"/>
<path opacity="0.05" d="M177.651 156.256C176.806 157.281 176.345 157.834 174.979 158.213C173.895 158.511 172.53 158.538 172.107 159.557C171.651 160.641 172.86 161.725 173.988 162.126C175.115 162.527 176.475 162.75 177.044 163.801C177.217 164.2 177.358 164.611 177.467 165.031C177.662 165.597 178.008 166.099 178.469 166.48C178.93 166.862 179.488 167.109 180.08 167.194C180.672 167.279 181.276 167.199 181.826 166.963C182.376 166.727 182.85 166.344 183.196 165.855C183.46 165.408 183.751 164.977 184.069 164.565C185.153 163.454 186.974 163.796 188.405 164.37C188.811 164.543 189.232 164.679 189.662 164.777C188.307 163.34 186.872 161.981 185.364 160.706C183.494 159.134 181.158 157.118 179.088 155.324C178.524 155.479 178.022 155.805 177.651 156.256Z" fill="black"/>
<path opacity="0.15" d="M155.988 165.376C156.036 167.224 157.76 168.715 159.587 168.991C161.413 169.268 163.256 168.569 164.833 167.609C165.48 167.252 166.049 166.769 166.508 166.189C166.734 165.897 166.891 165.558 166.967 165.196C167.043 164.835 167.036 164.461 166.947 164.102C166.695 163.447 166.222 162.9 165.608 162.558C164.708 161.976 163.693 161.595 162.633 161.441C161.94 161.383 161.251 161.289 160.568 161.159C158.638 160.661 157.05 159.718 155.034 159.533C153.733 159.392 151.028 160.075 152.324 162.059C153.142 163.311 155.538 163.04 155.917 164.493C155.974 164.784 155.998 165.08 155.988 165.376Z" fill="black"/>
<path opacity="0.05" d="M162.546 177.376C162.795 178.075 163.706 178.237 164.448 178.259C166.979 178.324 170.649 176.969 172.459 179.473C172.898 180.075 173.158 180.877 173.847 181.164C174.129 181.256 174.431 181.266 174.719 181.193C175.007 181.12 175.268 180.968 175.473 180.752C175.879 180.309 176.158 179.764 176.28 179.175C176.618 177.996 176.577 176.741 176.161 175.587C175.945 175.015 175.596 174.502 175.143 174.091C174.69 173.68 174.145 173.383 173.554 173.224C172.822 173.061 171.987 173.132 171.386 172.682C170.053 171.598 171.494 169.918 169.879 169.023C167.847 167.891 162.351 169.154 162.833 172.2C162.858 172.371 162.9 172.54 162.958 172.704C163.158 173.278 163.619 173.788 163.63 174.378C163.684 175.462 162.183 176.33 162.546 177.376Z" fill="black"/>
<path opacity="0.05" d="M182.654 180.283C181.722 180.023 179.527 180.326 178.86 181.064C178.193 181.801 178.389 182.841 178.025 183.703C177.832 184.101 177.554 184.453 177.212 184.734C176.87 185.015 176.47 185.218 176.042 185.329C175.184 185.541 174.298 185.611 173.418 185.535C172.741 185.508 171.977 185.492 171.505 185.974C171.32 186.198 171.203 186.47 171.169 186.759C171.136 187.048 171.186 187.34 171.315 187.6C175.109 187.752 178.903 187.058 181.836 185.102C182.515 184.724 183.084 184.175 183.487 183.509C183.889 182.844 184.11 182.085 184.128 181.308C183.762 180.814 183.244 180.454 182.654 180.283Z" fill="black"/>
<path opacity="0.05" d="M149.05 166.714C150.34 165.858 150.389 164.004 150.134 162.454C149.879 160.904 149.435 159.246 150.21 157.902C150.92 156.677 152.535 155.923 152.627 154.509C152.687 153.593 152.042 152.807 151.283 152.254L145.76 152.579C144.058 155.089 143.473 159.923 144.438 163.04C144.802 164.329 145.296 165.579 145.912 166.769C146.042 166.823 146.172 166.877 146.308 166.92C146.753 167.085 147.228 167.152 147.701 167.117C148.175 167.081 148.635 166.944 149.05 166.714Z" fill="black"/>
<path opacity="0.1" d="M172.188 151.847C169.087 151.336 165.905 151.745 163.034 153.023C162.378 153.321 161.57 153.196 161.131 153.863C158.963 157.174 164.194 159.76 166.768 159.657C167.242 159.658 167.708 159.545 168.128 159.326C169.212 158.714 169.527 157.158 170.698 156.757C171.429 156.524 172.259 156.86 172.985 156.6C173.798 156.313 174.188 155.391 174.329 154.546C174.473 153.954 174.392 153.33 174.101 152.795C173.863 152.516 173.571 152.287 173.242 152.124C172.913 151.961 172.555 151.867 172.188 151.847Z" fill="black"/>
<path opacity="0.05" d="M194.491 172.243C194.491 172.13 194.448 172.016 194.421 171.896C194.139 170.655 192.724 168.59 190.806 166.379C190.336 166.677 189.803 166.862 189.25 166.921C188.572 166.877 187.894 166.996 187.272 167.268C187.077 167.397 186.909 167.563 186.779 167.757C186.649 167.952 186.558 168.17 186.514 168.4C186.469 168.629 186.47 168.865 186.517 169.095C186.565 169.324 186.657 169.541 186.789 169.734C187.505 170.677 189.158 170.867 189.359 172.027C189.418 172.379 189.315 172.742 189.359 173.111C189.454 173.475 189.672 173.795 189.976 174.016C190.398 174.361 190.917 174.566 191.46 174.604C192.004 174.642 192.546 174.51 193.012 174.227C193.655 173.693 194.163 173.013 194.491 172.243Z" fill="black"/>
<path opacity="0.05" d="M158.725 178.392C159.33 178.372 159.917 178.185 160.421 177.85C161.505 177.042 161.581 175.384 160.963 174.186C160.831 173.883 160.639 173.61 160.397 173.384C160.156 173.159 159.871 172.985 159.559 172.874C158.92 172.69 158.232 172.901 157.587 172.766C157.261 172.697 156.958 172.544 156.709 172.324C156.459 172.104 156.27 171.823 156.161 171.508C155.977 170.966 156.042 170.365 155.83 169.839C155.672 169.514 155.444 169.227 155.163 168.999C154.882 168.77 154.555 168.606 154.204 168.516C152.925 168.11 151.088 168.164 150.058 169.058C149.24 169.774 148.66 170.896 148.942 171.947C149.215 172.682 149.688 173.326 150.307 173.806C152.752 176.072 155.012 178.744 158.725 178.392Z" fill="black"/>
<path opacity="0.05" d="M191.754 178.612C191.745 178.502 191.731 178.391 191.711 178.282C191.402 176.71 189.922 175.653 188.459 174.981C187.375 174.482 186.031 173.897 185.873 172.694C185.83 172.374 185.873 172.043 185.83 171.724C185.732 171.379 185.55 171.064 185.3 170.806C185.051 170.549 184.741 170.358 184.399 170.249C182.93 169.648 180.833 169.599 180.285 171.274C179.38 174.038 181.825 175.068 182.784 177.133C183.039 177.675 183.256 178.271 183.532 178.818C183.635 179.023 183.749 179.222 183.873 179.415C184.415 179.463 184.914 179.491 185.397 179.496C185.939 179.496 186.48 179.496 186.882 179.496C188.354 179.535 189.822 179.313 191.218 178.84C191.402 178.764 191.581 178.688 191.754 178.612Z" fill="black"/>
<path opacity="0.05" d="M157.522 183.481C160.258 185.225 163.3 186.437 166.486 187.052C167.413 186.765 168.383 186.413 168.969 185.638C169.554 184.863 169.511 183.519 168.611 183.101C167.63 182.635 166.589 183.535 165.554 183.849C165.086 183.989 164.591 184.01 164.114 183.91C163.636 183.811 163.19 183.594 162.817 183.28C162.408 182.874 162.031 182.437 161.69 181.974C160.573 180.695 155.462 178.906 154.459 181.058C155.421 181.937 156.445 182.747 157.522 183.481Z" fill="black"/>
<path opacity="0.2" d="M185.402 179.479C184.92 179.479 184.399 179.446 183.879 179.398C181.136 173.549 168.562 163.685 167.765 163.029L167.727 162.991C167.754 162.953 167.787 162.932 167.819 162.894L168.399 162.059C168.96 160.889 169.622 159.77 170.378 158.715C170.059 160.049 169.614 161.351 169.05 162.601C170.898 164.254 177.841 170.113 179.917 172.081C182.112 174.156 184.35 176.552 185.402 179.479Z" fill="black"/>
<path d="M170.535 116.668C172.958 118.465 174.858 120.877 176.036 123.654C177.944 127.817 177.841 131.313 174.258 136.044C174.258 137.166 172.399 143.551 172.399 143.551C172.399 143.551 174.058 150.375 174.025 150.917C174.025 150.917 172.096 156.532 162.307 157.329C153.023 158.082 148.866 156.342 145.451 153.421C147.5 147.6 151.717 141.567 151.717 141.567C151.392 135.21 149.289 127.004 149.896 124.684C150.649 121.801 155.473 118.652 156.665 118.538L164.931 117.074L170.535 116.668Z" fill="#37474F"/>
<path d="M150.074 151.76C149.451 148.958 152.638 143.451 152.638 143.451L155.494 145.998C153.966 142.708 153.473 138.952 153.83 134.833C153.83 134.833 168.275 139.348 173.451 139.76C173.813 138.543 174.083 137.3 174.258 136.042C174.307 135.982 174.345 135.923 174.388 135.863L171.136 132.963L157.234 124.519L150.73 122.969C150.341 123.483 150.047 124.063 149.863 124.681C149.256 127.001 151.359 135.207 151.684 141.565C151.684 141.565 147.467 147.597 145.419 153.418C148.833 156.34 153.007 158.08 162.275 157.326C162.307 157.326 150.676 154.557 150.074 151.76Z" fill="#263238"/>
<path d="M167.63 113.973L166.546 114.038C164.911 114.136 163.273 113.91 161.726 113.375C160.178 112.839 158.751 112.004 157.527 110.917C156.302 109.829 155.304 108.512 154.589 107.038C153.874 105.565 153.456 103.966 153.359 102.331C153.261 100.694 153.487 99.0532 154.024 97.5034C154.56 95.9536 155.398 94.525 156.488 93.2994C157.578 92.0739 158.899 91.0755 160.376 90.3616C161.853 89.6476 163.456 89.232 165.093 89.1387L166.177 89.0791C167.812 88.9853 169.449 89.2144 170.995 89.7534C172.541 90.2924 173.966 91.1306 175.188 92.2203C176.41 93.31 177.405 94.6297 178.117 96.1041C178.829 97.5785 179.244 99.1787 179.337 100.813C179.527 104.11 178.4 107.348 176.205 109.815C174.01 112.282 170.926 113.778 167.63 113.973Z" fill="#263238"/>
<path d="M146.508 120.253C148.844 120.119 151.031 119.063 152.588 117.317C154.145 115.57 154.945 113.277 154.812 110.942L154.053 97.668C151.717 97.8021 149.53 98.8584 147.973 100.605C146.416 102.351 145.616 104.644 145.749 106.98L146.508 120.253Z" fill="#263238"/>
<path d="M154.779 97.4152C154.404 97.7789 153.9 97.9786 153.377 97.9705C152.855 97.9623 152.357 97.747 151.993 97.3718C151.629 96.9966 151.43 96.4924 151.438 95.9699C151.446 95.4474 151.661 94.9496 152.037 94.5859L154.779 97.4152Z" fill="#263238"/>
<path d="M173.624 94.9258C174.985 95.8363 178.199 99.5707 177.619 106.991C177.131 113.278 175.001 114.725 173.955 115.121C172.909 115.516 170.941 115.121 169.039 114.709L168.882 117.565C168.882 117.565 170.427 119.191 170.535 120.275C170.714 122.01 167.576 122.167 165.072 121.153C163.407 120.478 161.97 119.34 160.931 117.874L161.391 109.202C161.391 109.202 159.592 110.378 158.08 109.256C156.026 107.739 155.993 105.04 157.294 103.836C158.595 102.633 161.234 103.197 161.63 104.953C161.63 104.953 164.204 105.76 168.41 103.739C172.616 101.717 173.218 97.3539 173.624 94.9258Z" fill="#B16668"/>
<path d="M169.375 102.521L167.679 103.453C167.558 103.22 167.532 102.949 167.607 102.697C167.681 102.445 167.851 102.232 168.08 102.103C168.191 102.042 168.314 102.004 168.441 101.992C168.568 101.98 168.696 101.994 168.817 102.033C168.938 102.073 169.05 102.136 169.146 102.22C169.242 102.303 169.32 102.406 169.375 102.521Z" fill="#263238"/>
<path d="M170.594 110.375L172.399 111.063C172.36 111.185 172.296 111.297 172.212 111.393C172.128 111.489 172.026 111.568 171.911 111.623C171.796 111.679 171.671 111.711 171.544 111.717C171.416 111.723 171.289 111.704 171.169 111.66C170.926 111.561 170.73 111.373 170.623 111.133C170.515 110.894 170.505 110.622 170.594 110.375Z" fill="#9A4A4D"/>
<path d="M176.833 104.786C176.827 104.943 176.774 105.094 176.683 105.22C176.591 105.347 176.464 105.444 176.318 105.499C176.172 105.554 176.012 105.565 175.86 105.531C175.707 105.496 175.568 105.417 175.46 105.304C175.352 105.191 175.28 105.048 175.253 104.894C175.225 104.74 175.243 104.582 175.305 104.438C175.367 104.294 175.47 104.172 175.601 104.087C175.732 104.001 175.885 103.956 176.042 103.957C176.256 103.963 176.46 104.053 176.608 104.208C176.757 104.364 176.837 104.572 176.833 104.786Z" fill="#263238"/>
<path d="M170.557 105.151C170.558 105.256 170.538 105.361 170.499 105.46C170.46 105.558 170.401 105.647 170.327 105.723C170.253 105.799 170.165 105.859 170.068 105.9C169.97 105.941 169.866 105.963 169.76 105.964C169.595 105.969 169.433 105.925 169.294 105.837C169.155 105.75 169.045 105.622 168.979 105.472C168.912 105.321 168.893 105.154 168.922 104.992C168.952 104.83 169.029 104.681 169.144 104.564C169.26 104.446 169.407 104.366 169.568 104.333C169.73 104.3 169.897 104.316 170.049 104.38C170.201 104.443 170.33 104.55 170.421 104.687C170.511 104.825 170.559 104.986 170.557 105.151Z" fill="#263238"/>
<path d="M173.12 104.129L172.985 108.904L175.538 108.264L173.12 104.129Z" fill="#9A4A4D"/>
<path d="M169.039 114.705C167.446 114.434 164.291 113.284 163.619 112.168C163.619 112.168 163.619 112.905 164.6 113.962C165.581 115.019 168.936 115.929 168.936 115.929L169.039 114.705Z" fill="#9A4A4D"/>
<path d="M172.649 94.3109C172.649 94.3109 173.781 99.2323 171.863 103.666C171.863 103.666 177.917 104.376 178.502 99.8014C178.502 99.8014 178.416 96.0074 175.852 93.6172L172.649 94.3109Z" fill="#263238"/>
<path d="M156.665 118.535C152.205 119.158 149.413 121.738 149.527 125.283C149.641 128.828 153.527 130.947 157.581 132.958C162.849 135.576 173.684 139.272 176.643 139.424C179.603 139.576 191.727 122.015 191.727 122.015L185.158 119.446L175.245 130.026L162.107 124.118C162.107 124.118 159.587 120.242 156.665 118.535Z" fill="#B16668"/>
<path d="M195.147 105.181C194.872 105.051 194.568 104.998 194.266 105.027C193.964 105.056 193.675 105.165 193.429 105.343C192.722 105.808 192.134 106.432 191.711 107.165C191.288 107.899 191.043 108.72 190.995 109.565C190.965 109.862 191.012 110.161 191.132 110.433C191.252 110.706 191.44 110.943 191.678 111.121C191.825 111.208 192.762 111.728 192.92 111.809C193.196 111.936 193.501 111.987 193.804 111.957C194.107 111.928 194.396 111.819 194.643 111.641C195.35 111.176 195.939 110.552 196.361 109.819C196.784 109.086 197.029 108.264 197.077 107.419C197.108 107.12 197.059 106.819 196.937 106.545C196.814 106.271 196.621 106.034 196.378 105.858C196.237 105.771 195.288 105.256 195.147 105.181Z" fill="#455A64"/>
<path d="M192.204 110.231C192.204 111.787 193.288 112.399 194.643 111.641C195.35 111.176 195.939 110.552 196.361 109.818C196.784 109.085 197.029 108.263 197.077 107.418C197.077 105.868 195.993 105.25 194.643 106.015C193.933 106.476 193.342 107.098 192.919 107.831C192.495 108.564 192.25 109.386 192.204 110.231Z" fill="#37474F"/>
<path d="M210.047 111.441L196.014 106.341C195.924 106.3 195.826 106.279 195.727 106.281C195.448 106.297 195.178 106.383 194.941 106.531C194.324 106.942 193.81 107.489 193.44 108.132C193.07 108.774 192.852 109.493 192.806 110.233C192.806 110.52 192.854 111.121 193.266 111.317L205.814 118.818L210.047 111.441Z" fill="#0FA968"/>
<path opacity="0.5" d="M210.047 111.441L196.014 106.341C195.924 106.3 195.826 106.279 195.727 106.281C195.448 106.297 195.178 106.383 194.941 106.531C194.324 106.942 193.81 107.489 193.44 108.132C193.07 108.774 192.852 109.493 192.806 110.233C192.806 110.52 192.854 111.121 193.266 111.317L205.814 118.818L210.047 111.441Z" fill="black"/>
<path d="M208.773 109.715C208.112 109.33 207.207 109.384 206.199 109.964C205.137 110.656 204.253 111.588 203.619 112.685C202.985 113.782 202.619 115.013 202.551 116.278C202.551 117.422 202.947 118.224 203.581 118.615C203.798 118.745 205.207 119.52 205.434 119.639C206.09 120.018 207.001 119.97 208.009 119.39C209.071 118.697 209.955 117.764 210.588 116.666C211.222 115.568 211.588 114.336 211.657 113.07C211.657 111.921 211.261 111.113 210.61 110.728C210.404 110.604 208.979 109.834 208.773 109.715Z" fill="#455A64"/>
<path d="M204.367 117.279C204.367 119.605 205.993 120.531 208.009 119.388C209.071 118.695 209.954 117.762 210.588 116.664C211.222 115.566 211.588 114.334 211.656 113.068C211.656 110.743 210.03 109.816 208.009 110.965C206.948 111.657 206.066 112.59 205.433 113.687C204.8 114.784 204.435 116.015 204.367 117.279Z" fill="#37474F"/>
<path d="M206.383 118.988C205.369 118.988 205.261 117.795 205.261 117.28C205.33 116.173 205.655 115.097 206.21 114.136C206.765 113.175 207.534 112.355 208.459 111.741C208.815 111.519 209.221 111.391 209.64 111.367C210.648 111.367 210.762 112.56 210.762 113.069C210.692 114.176 210.367 115.253 209.812 116.213C209.258 117.174 208.488 117.994 207.564 118.608C207.21 118.834 206.803 118.965 206.383 118.988Z" fill="#263238"/>
<path d="M209.564 111.87C209.563 111.703 209.55 111.536 209.526 111.371C209.142 111.412 208.772 111.538 208.442 111.74C207.518 112.354 206.749 113.173 206.194 114.134C205.639 115.095 205.314 116.171 205.245 117.279C205.246 117.446 205.259 117.612 205.283 117.778C205.667 117.739 206.038 117.613 206.367 117.409C207.292 116.796 208.062 115.976 208.617 115.015C209.172 114.054 209.496 112.977 209.564 111.87Z" fill="#0FA968"/>
<path opacity="0.3" d="M209.564 111.87C209.563 111.703 209.55 111.536 209.526 111.371C209.142 111.412 208.772 111.538 208.442 111.74C207.518 112.354 206.749 113.173 206.194 114.134C205.639 115.095 205.314 116.171 205.245 117.279C205.246 117.446 205.259 117.612 205.283 117.778C205.667 117.739 206.038 117.613 206.367 117.409C207.292 116.796 208.062 115.976 208.617 115.015C209.172 114.054 209.496 112.977 209.564 111.87Z" fill="black"/>
<path d="M207.521 112.867C208.204 112.038 209.087 111.783 209.228 112.071C209.369 112.358 208.936 115.366 206.047 117.122C207.006 116.263 207.793 115.229 208.367 114.076C208.811 113.079 208.404 112.266 207.521 112.867Z" fill="#E0E0E0"/>
<path d="M189.071 108.69C188.796 108.562 188.491 108.51 188.189 108.539C187.887 108.569 187.598 108.679 187.353 108.858C186.643 109.319 186.053 109.942 185.629 110.675C185.205 111.407 184.96 112.23 184.914 113.075C184.884 113.372 184.932 113.673 185.052 113.946C185.173 114.22 185.363 114.457 185.602 114.636C185.749 114.723 186.686 115.238 186.838 115.319C187.114 115.447 187.42 115.499 187.723 115.47C188.026 115.44 188.316 115.33 188.562 115.151C189.271 114.689 189.861 114.066 190.285 113.334C190.709 112.601 190.954 111.779 191.001 110.934C191.031 110.635 190.982 110.333 190.859 110.058C190.737 109.783 190.544 109.545 190.302 109.368L189.071 108.69Z" fill="#455A64"/>
<path d="M186.128 113.746C186.128 115.296 187.212 115.914 188.562 115.15C189.271 114.688 189.861 114.065 190.285 113.333C190.709 112.6 190.954 111.778 191.001 110.933C191.001 109.378 189.917 108.765 188.562 109.524C187.853 109.987 187.263 110.61 186.84 111.344C186.417 112.077 186.173 112.9 186.128 113.746Z" fill="#37474F"/>
<path d="M201.537 116.357L189.993 109.853H189.955C189.867 109.811 189.77 109.791 189.673 109.793C189.392 109.808 189.119 109.896 188.882 110.048C188.264 110.458 187.75 111.006 187.38 111.648C187.01 112.291 186.793 113.01 186.746 113.75C186.733 113.932 186.756 114.116 186.816 114.289C186.876 114.463 186.97 114.622 187.093 114.758L197.288 123.728L201.537 116.357Z" fill="#0FA968"/>
<path opacity="0.5" d="M201.537 116.357L189.993 109.853H189.955C189.867 109.811 189.77 109.791 189.673 109.793C189.392 109.808 189.119 109.896 188.882 110.048C188.264 110.458 187.75 111.006 187.38 111.648C187.01 112.291 186.793 113.01 186.746 113.75C186.733 113.932 186.756 114.116 186.816 114.289C186.876 114.463 186.97 114.622 187.093 114.758L197.288 123.728L201.537 116.357Z" fill="black"/>
<path d="M201.391 116.134C201.063 115.717 200.899 115.195 200.93 114.665C200.976 113.592 201.323 112.553 201.933 111.668L197.055 114.47C197.281 114.356 197.525 114.283 197.776 114.253L201.521 116.356L201.391 116.134Z" fill="#263238"/>
<path d="M200.264 114.622C199.602 114.243 198.697 114.292 197.689 114.877C196.626 115.568 195.741 116.499 195.106 117.597C194.471 118.694 194.105 119.926 194.036 121.191C194.036 122.33 194.426 123.132 195.066 123.522C195.283 123.652 196.692 124.427 196.919 124.546C197.575 124.931 198.486 124.877 199.494 124.297C200.556 123.606 201.44 122.674 202.073 121.576C202.707 120.479 203.073 119.248 203.142 117.983C203.142 116.834 202.746 116.026 202.096 115.641C201.89 115.511 200.47 114.742 200.264 114.622Z" fill="#455A64"/>
<path d="M195.857 122.195C195.857 124.521 197.483 125.447 199.499 124.298C200.561 123.607 201.445 122.675 202.079 121.578C202.713 120.481 203.079 119.249 203.147 117.984C203.147 115.659 201.521 114.732 199.499 115.876C198.439 116.569 197.557 117.503 196.924 118.601C196.291 119.699 195.926 120.93 195.857 122.195Z" fill="#37474F"/>
<path d="M197.873 123.898C196.86 123.898 196.751 122.705 196.751 122.196C196.82 121.088 197.144 120.012 197.699 119.05C198.254 118.089 199.024 117.27 199.949 116.657C200.304 116.43 200.711 116.3 201.131 116.277C202.139 116.277 202.253 117.47 202.253 117.985C202.182 119.092 201.856 120.168 201.302 121.128C200.747 122.089 199.978 122.909 199.055 123.524C198.699 123.746 198.292 123.874 197.873 123.898Z" fill="#263238"/>
<path d="M201.082 116.788C201.081 116.621 201.068 116.454 201.044 116.289C200.659 116.328 200.289 116.454 199.96 116.658C199.035 117.271 198.265 118.09 197.71 119.051C197.155 120.012 196.831 121.089 196.762 122.197C196.764 122.364 196.776 122.53 196.8 122.695C197.184 122.654 197.555 122.528 197.884 122.327C198.808 121.713 199.578 120.893 200.133 119.932C200.688 118.971 201.012 117.895 201.082 116.788Z" fill="#0FA968"/>
<path opacity="0.3" d="M201.082 116.788C201.081 116.621 201.068 116.454 201.044 116.289C200.659 116.328 200.289 116.454 199.96 116.658C199.035 117.271 198.265 118.09 197.71 119.051C197.155 120.012 196.831 121.089 196.762 122.197C196.764 122.364 196.776 122.53 196.8 122.695C197.184 122.654 197.555 122.528 197.884 122.327C198.808 121.713 199.578 120.893 200.133 119.932C200.688 118.971 201.012 117.895 201.082 116.788Z" fill="black"/>
<path d="M199.012 117.778C199.695 116.948 200.578 116.694 200.719 116.981C200.86 117.268 200.426 120.276 197.537 122.038C198.497 121.177 199.285 120.141 199.857 118.986C200.302 117.994 199.895 117.176 199.012 117.778Z" fill="#E0E0E0"/>
<path d="M197.071 108.828L201.933 111.663L197.071 114.47L192.182 111.652L197.071 108.828Z" fill="#37474F"/>
<path d="M185.158 119.448C187.277 117.242 186.421 114.673 187.288 112.841C188.155 111.009 191.814 109.476 193.375 109.844C194.936 110.213 199.749 113.167 198.936 114.413C198.735 114.446 198.537 114.496 198.345 114.565L197.803 114.278C196.458 114.6 195.265 115.378 194.426 116.478C193.212 118.245 193.207 118.587 193.18 119.237C193.153 119.887 194.031 120.863 194.031 120.863C193.38 121.486 192.242 121.405 191.234 122.679C190.15 124.012 189.505 124.971 189.505 124.971L185.158 119.448Z" fill="#B16668"/>
<path d="M121.05 137.441V175.349L169.229 203.164L180.345 171.68L121.05 137.441ZM136.812 175.528C136.148 175.696 135.446 175.595 134.857 175.246C134.268 174.898 133.84 174.331 133.668 173.669L127.289 153.842C127.146 153.529 127.072 153.19 127.07 152.846C127.068 152.502 127.139 152.161 127.278 151.846C127.417 151.532 127.621 151.25 127.877 151.02C128.133 150.79 128.434 150.616 128.761 150.511C129.089 150.406 129.435 150.371 129.777 150.408C130.119 150.446 130.449 150.556 130.745 150.73C131.042 150.905 131.298 151.14 131.497 151.42C131.696 151.7 131.834 152.02 131.901 152.357L138.286 172.184C138.532 172.823 138.515 173.533 138.239 174.16C137.963 174.787 137.449 175.278 136.812 175.528ZM150.562 182.969C149.898 183.138 149.195 183.037 148.605 182.688C148.015 182.34 147.587 181.773 147.413 181.11L141.034 161.289C140.888 160.975 140.811 160.634 140.807 160.288C140.803 159.942 140.873 159.599 141.012 159.282C141.15 158.964 141.355 158.68 141.611 158.448C141.868 158.216 142.171 158.041 142.5 157.935C142.83 157.828 143.178 157.793 143.522 157.831C143.866 157.87 144.198 157.981 144.496 158.157C144.794 158.333 145.051 158.571 145.25 158.854C145.449 159.137 145.586 159.459 145.652 159.799L152.031 179.625C152.279 180.264 152.264 180.974 151.988 181.601C151.713 182.228 151.2 182.72 150.562 182.969ZM164.313 190.416C163.648 190.583 162.945 190.481 162.355 190.132C161.765 189.782 161.337 189.215 161.164 188.552L154.784 168.731C154.538 168.092 154.554 167.381 154.829 166.754C155.104 166.126 155.616 165.633 156.253 165.382C157.527 164.97 158.936 165.804 159.402 167.246L165.782 187.067C166.027 187.706 166.01 188.416 165.735 189.043C165.46 189.67 164.949 190.164 164.313 190.416Z" fill="#0FA968"/>
<path opacity="0.65" d="M121.05 137.441V175.349L169.229 203.164L180.345 171.68L121.05 137.441ZM136.812 175.528C136.148 175.696 135.446 175.595 134.857 175.246C134.268 174.898 133.84 174.331 133.668 173.669L127.289 153.842C127.146 153.529 127.072 153.19 127.07 152.846C127.068 152.502 127.139 152.161 127.278 151.846C127.417 151.532 127.621 151.25 127.877 151.02C128.133 150.79 128.434 150.616 128.761 150.511C129.089 150.406 129.435 150.371 129.777 150.408C130.119 150.446 130.449 150.556 130.745 150.73C131.042 150.905 131.298 151.14 131.497 151.42C131.696 151.7 131.834 152.02 131.901 152.357L138.286 172.184C138.532 172.823 138.515 173.533 138.239 174.16C137.963 174.787 137.449 175.278 136.812 175.528ZM150.562 182.969C149.898 183.138 149.195 183.037 148.605 182.688C148.015 182.34 147.587 181.773 147.413 181.11L141.034 161.289C140.888 160.975 140.811 160.634 140.807 160.288C140.803 159.942 140.873 159.599 141.012 159.282C141.15 158.964 141.355 158.68 141.611 158.448C141.868 158.216 142.171 158.041 142.5 157.935C142.83 157.828 143.178 157.793 143.522 157.831C143.866 157.87 144.198 157.981 144.496 158.157C144.794 158.333 145.051 158.571 145.25 158.854C145.449 159.137 145.586 159.459 145.652 159.799L152.031 179.625C152.279 180.264 152.264 180.974 151.988 181.601C151.713 182.228 151.2 182.72 150.562 182.969ZM164.313 190.416C163.648 190.583 162.945 190.481 162.355 190.132C161.765 189.782 161.337 189.215 161.164 188.552L154.784 168.731C154.538 168.092 154.554 167.381 154.829 166.754C155.104 166.126 155.616 165.633 156.253 165.382C157.527 164.97 158.936 165.804 159.402 167.246L165.782 187.067C166.027 187.706 166.01 188.416 165.735 189.043C165.46 189.67 164.949 190.164 164.313 190.416Z" fill="white"/>
<path d="M180.35 171.681L209.998 154.57L198.876 186.055L169.229 203.171L180.35 171.681Z" fill="#0FA968"/>
<path opacity="0.3" d="M180.35 171.681L209.998 154.57L198.876 186.055L169.229 203.171L180.35 171.681Z" fill="white"/>
<path d="M97.2403 68.7656C94.8772 68.7656 89.8366 72.5108 90.552 79.1937C90.926 82.6842 98.9205 97.6705 100.969 101.053C103.018 104.435 119.554 114.673 121.023 115.638C122.492 116.603 122.649 118.017 123.674 118.808L124.92 118.088C125.178 118.172 125.414 118.313 125.612 118.499C125.81 118.685 125.965 118.912 126.065 119.164C126.165 119.416 126.209 119.688 126.193 119.959C126.177 120.23 126.101 120.494 125.972 120.733L124.66 121.497C124.66 121.497 126.53 122.998 128.172 122.781C129.728 122.57 133.05 121.085 133.706 119.692C133.999 119.052 134.183 115.844 133.804 115.042C132.655 112.581 125.316 110.803 125.316 110.803L109.809 95.9307L97.2403 68.7656Z" fill="#FFA8A7"/>
<path d="M98.5194 68.7672C98.5194 68.7672 94.5248 68.1818 92.0154 71.255C89.7498 74.0354 89.4734 78.2522 90.7688 82.0137C92.0641 85.7752 98.4814 98.7561 99.6521 101.054C100.823 103.352 113.695 110.919 113.695 110.919C113.695 110.919 115.321 105.992 119.018 104.778L110.281 95.6721L101.256 76.301C101.256 76.301 101.354 71.8187 98.5194 68.7672Z" fill="#263238"/>
</svg>
