<svg width="297" height="297" viewBox="0 0 297 297" fill="none" xmlns="http://www.w3.org/2000/svg">
<path d="M252.248 157.06C252.248 157.06 251.363 146.962 253.495 137.042C255.628 127.123 260.808 119.49 267.187 116.508C273.567 113.526 281.146 117.589 275.663 124.378C270.181 131.168 259.424 143.547 259.483 161.236L252.248 157.06Z" fill="#E0E0E0"/>
<path d="M255.42 156.948C255.395 156.954 255.368 156.954 255.343 156.948C255.294 156.947 255.245 156.935 255.2 156.915C255.156 156.895 255.115 156.866 255.082 156.83C255.048 156.794 255.022 156.752 255.004 156.706C254.987 156.66 254.979 156.611 254.98 156.562C255.574 134.893 262.792 124.04 271.131 118.546C271.172 118.518 271.218 118.498 271.267 118.488C271.315 118.478 271.365 118.478 271.414 118.487C271.462 118.497 271.509 118.516 271.55 118.543C271.591 118.57 271.626 118.606 271.654 118.647C271.708 118.731 271.728 118.832 271.708 118.93C271.688 119.028 271.63 119.114 271.547 119.17C263.32 124.611 256.317 135.243 255.729 156.592C255.726 156.677 255.694 156.76 255.638 156.825C255.581 156.89 255.505 156.933 255.42 156.948Z" fill="white"/>
<path d="M284.425 137.846C284.3 139.034 283.332 139.96 282.405 140.738C281.479 141.516 280.475 142.348 280.225 143.524C279.721 145.9 282.536 148.098 281.924 150.45C281.761 150.935 281.501 151.381 281.16 151.762C280.819 152.143 280.404 152.45 279.94 152.666C279.198 153.07 278.39 153.331 277.606 153.664C277.216 153.781 276.819 153.876 276.418 153.949C275.225 154.059 274.101 154.56 273.222 155.374C271.921 156.788 272.088 158.938 271.624 160.816C271.066 163.049 269.741 164.38 266.706 165.419L257.053 159.847C253.691 157.537 252.806 152.369 255.194 149.304C256.626 147.456 259.305 147.225 260.659 145.383C261.847 143.732 261.17 141.344 261.912 139.443C262.655 137.543 264.633 136.871 266.498 136.551C268.363 136.23 270.347 136.996 272.171 136.331C273.994 135.666 275.681 134.59 277.564 134.115C278.482 133.846 279.449 133.788 280.393 133.947C281.336 134.105 282.232 134.476 283.011 135.03C283.46 135.347 283.823 135.77 284.07 136.261C284.316 136.752 284.438 137.296 284.425 137.846Z" fill="#EBEBEB"/>
<path d="M265.043 147.224C265.062 147.18 265.09 147.142 265.126 147.111C270.015 140.185 277.671 136.9 280.255 136.318C280.326 136.304 280.399 136.317 280.46 136.356C280.521 136.395 280.565 136.456 280.582 136.526C280.596 136.596 280.582 136.669 280.543 136.729C280.504 136.789 280.444 136.831 280.374 136.847C277.921 137.399 270.811 140.411 266.023 146.79C267.974 146.133 270.04 145.886 272.092 146.063C274.143 146.241 276.135 146.841 277.944 147.824C277.992 147.856 278.028 147.902 278.048 147.955C278.067 148.009 278.07 148.067 278.055 148.122C278.04 148.177 278.008 148.226 277.964 148.262C277.919 148.298 277.865 148.319 277.808 148.323C277.753 148.324 277.7 148.31 277.653 148.281C275.8 147.277 273.75 146.691 271.647 146.564C269.543 146.437 267.437 146.771 265.476 147.545C262.623 151.631 261.195 156.543 261.413 161.521C261.414 161.59 261.39 161.656 261.345 161.707C261.3 161.759 261.238 161.792 261.17 161.801C261.098 161.802 261.029 161.776 260.977 161.727C260.925 161.678 260.894 161.611 260.891 161.539C260.667 156.441 262.126 151.411 265.043 147.224Z" fill="white"/>
<path d="M35.0876 165.419C35.1886 158.214 35.052 151.567 31.393 141.321C28.3279 132.726 20.4455 124.053 15.1233 124.421C10.1634 124.76 9.06449 130.855 13.5254 136.301C17.9864 141.748 27.7042 152.066 28.3101 159.545L30.2941 168.205L35.0876 165.419Z" fill="#E0E0E0"/>
<path d="M32.8898 163.595C32.8226 163.579 32.7626 163.541 32.7187 163.487C32.6748 163.434 32.6494 163.367 32.6463 163.298C31.8682 146.53 22.5067 132.565 14.6956 128.252C14.623 128.21 14.5696 128.141 14.5464 128.06C14.5231 127.98 14.5319 127.893 14.5709 127.819C14.5907 127.781 14.6178 127.749 14.6505 127.722C14.6833 127.696 14.7209 127.676 14.7614 127.665C14.8018 127.653 14.8441 127.65 14.8859 127.655C14.9276 127.66 14.968 127.673 15.0045 127.694C22.9463 132.06 32.4978 146.256 33.2819 163.251C33.2851 163.335 33.2552 163.417 33.1985 163.479C33.1418 163.541 33.063 163.579 32.9789 163.583L32.8898 163.595Z" fill="white"/>
<path d="M27.8527 169.594C27.5497 167.069 25.7559 162.079 21.5088 158.022C16.8102 153.526 10.3891 150.782 9.30207 147.699C7.99527 143.992 11.2682 142.008 16.6855 143.172C23.2195 144.562 30.5376 152.124 31.7493 167.348L27.8527 169.594Z" fill="#EBEBEB"/>
<path d="M29.8366 166.707C29.7766 166.691 29.7222 166.659 29.6801 166.614C29.6379 166.569 29.6098 166.512 29.599 166.451C27.1042 153.151 18.2121 147.2 13.858 145.911C13.8093 145.908 13.7618 145.894 13.7191 145.871C13.6764 145.847 13.6397 145.814 13.6118 145.774C13.5838 145.734 13.5654 145.688 13.5579 145.64C13.5504 145.591 13.5541 145.542 13.5685 145.495C13.583 145.449 13.6079 145.406 13.6414 145.37C13.6748 145.335 13.716 145.307 13.7617 145.29C13.8074 145.273 13.8564 145.266 13.905 145.271C13.9536 145.276 14.0005 145.291 14.0422 145.317C18.8536 146.742 27.7042 152.777 30.2227 166.356C30.2304 166.397 30.2299 166.439 30.2212 166.48C30.2125 166.521 30.1958 166.559 30.172 166.594C30.1483 166.628 30.1179 166.657 30.0828 166.68C30.0477 166.702 30.0084 166.717 29.9673 166.724C29.923 166.728 29.8785 166.721 29.8366 166.707Z" fill="white"/>
<path d="M148.5 284.441C225.984 284.441 288.797 248.177 288.797 203.443C288.797 158.709 225.984 122.445 148.5 122.445C71.0162 122.445 8.20312 158.709 8.20312 203.443C8.20312 248.177 71.0162 284.441 148.5 284.441Z" fill="#F5F5F5"/>
<path d="M253.763 233.804L235.658 223.343C235.611 223.328 235.571 223.299 235.543 223.259C235.514 223.22 235.499 223.172 235.499 223.124C235.499 223.075 235.514 223.028 235.543 222.988C235.571 222.949 235.611 222.919 235.658 222.904L261.568 207.953C261.687 207.891 261.82 207.859 261.954 207.859C262.088 207.859 262.221 207.891 262.34 207.953L280.439 218.407C280.485 218.423 280.525 218.452 280.554 218.492C280.582 218.531 280.598 218.578 280.598 218.627C280.598 218.676 280.582 218.723 280.554 218.763C280.525 218.802 280.485 218.832 280.439 218.847L254.529 233.804C254.411 233.865 254.279 233.897 254.146 233.897C254.012 233.897 253.881 233.865 253.763 233.804Z" fill="#E0E0E0"/>
<path d="M186.486 263.996C206.166 263.996 222.12 254.786 222.12 243.426C222.12 232.065 206.166 222.855 186.486 222.855C166.806 222.855 150.852 232.065 150.852 243.426C150.852 254.786 166.806 263.996 186.486 263.996Z" fill="#E0E0E0"/>
<path d="M224.395 231.76L205.619 220.914C205.393 220.789 205.393 220.581 205.619 220.456L235.681 203.094C235.805 203.032 235.941 203 236.079 203C236.217 203 236.354 203.032 236.477 203.094L255.26 213.94C255.309 213.956 255.351 213.987 255.381 214.029C255.412 214.07 255.428 214.12 255.428 214.172C255.428 214.223 255.412 214.274 255.381 214.315C255.351 214.357 255.309 214.388 255.26 214.404L225.197 231.76C225.073 231.825 224.936 231.859 224.796 231.859C224.657 231.859 224.519 231.825 224.395 231.76Z" fill="#E0E0E0"/>
<path d="M44.1579 227.657L103.95 257.078C104.784 257.43 105.684 257.596 106.589 257.566C107.494 257.535 108.381 257.307 109.189 256.899L142.673 237.6C144.093 236.781 144.146 235.367 142.786 234.446L92.2066 200.178C91.4523 199.723 90.5945 199.468 89.7141 199.437C88.8338 199.406 87.96 199.6 87.1754 200L44.0629 224.889C42.6432 225.679 42.6848 226.908 44.1579 227.657Z" fill="#E0E0E0"/>
<path d="M51.9394 28.5109L47.3299 31.1721C47.3528 30.9749 47.3647 30.7766 47.3656 30.5781V29.2475C47.3656 26.8715 45.6964 25.9092 43.6412 27.0972C42.7528 27.6385 41.9944 28.3685 41.4196 29.2356C41.0811 26.2656 38.7347 25.1311 35.8835 26.7765C32.8066 28.5525 30.294 32.8768 30.294 36.4349V38.4367C30.2741 39.2331 30.4366 40.0235 30.7692 40.7473L26.9379 42.963C26.3386 43.3539 25.8393 43.88 25.4803 44.499C25.1213 45.118 24.9125 45.8126 24.8708 46.527C24.8708 47.8456 25.7974 48.3802 26.9379 47.715L51.9394 33.3105C52.5397 32.9206 53.0397 32.3947 53.3988 31.7755C53.758 31.1563 53.9661 30.4612 54.0065 29.7465C54.0065 28.41 53.0858 27.8754 51.9394 28.5109Z" fill="#EBEBEB"/>
<path d="M72.9195 37.4665L69.9495 39.1832C69.9682 39.0533 69.9782 38.9224 69.9792 38.7912V37.9299C69.9792 36.3914 68.8981 35.7677 67.5676 36.5399C66.9962 36.8902 66.5078 37.3604 66.136 37.918C65.9162 35.9875 64.4015 35.2687 62.572 36.332C61.5234 37.0148 60.6508 37.9356 60.0253 39.0194C59.3998 40.1032 59.039 41.3194 58.9724 42.569V43.858C58.9582 44.3735 59.0619 44.8854 59.2753 45.3549L56.8043 46.7805C56.4159 47.0352 56.0926 47.3775 55.8605 47.7798C55.6284 48.1821 55.4939 48.6333 55.4678 49.0971C55.4678 49.9465 56.0618 50.2851 56.8043 49.8693L72.9433 40.5494C73.3254 40.292 73.6424 39.9492 73.8692 39.5482C74.096 39.1472 74.2264 38.6989 74.2501 38.2387C74.2501 37.3834 73.6561 37.0389 72.9195 37.4665Z" fill="#EBEBEB"/>
<path d="M230.704 163.153C230.21 162.898 229.656 162.781 229.1 162.814C228.545 162.848 228.009 163.03 227.55 163.343C224.966 164.834 222.863 169.146 222.863 172.954V181.929C222.863 182.038 222.906 182.142 222.983 182.219C223.06 182.296 223.164 182.339 223.273 182.339C223.381 182.339 223.486 182.296 223.563 182.219C223.639 182.142 223.683 182.038 223.683 181.929V172.954C223.683 169.39 225.601 165.41 227.959 164.044C228.294 163.802 228.689 163.657 229.1 163.624C229.512 163.59 229.924 163.67 230.294 163.854C231.268 164.418 231.826 165.844 231.826 167.774V176.714C231.826 176.823 231.87 176.927 231.946 177.004C232.023 177.081 232.128 177.124 232.236 177.124C232.345 177.124 232.449 177.081 232.526 177.004C232.603 176.927 232.646 176.823 232.646 176.714V167.78C232.646 165.553 231.939 163.866 230.704 163.153Z" fill="#263238"/>
<path d="M250.763 214.634L248.25 171.474L241.051 167.328L238.687 207.667L250.763 214.634Z" fill="#0FA968"/>
<path opacity="0.4" d="M250.763 214.634L248.25 171.474L241.051 167.328L238.687 207.667L250.763 214.634Z" fill="white"/>
<path d="M215.759 181.935L213.395 222.267L238.687 207.667L241.051 167.328L215.759 181.935Z" fill="#0FA968"/>
<path opacity="0.3" d="M215.759 181.935L213.395 222.267L238.687 207.667L241.051 167.328L215.759 181.935Z" fill="white"/>
<path opacity="0.05" d="M215.759 181.935L213.395 222.267L238.687 207.667L241.051 167.328L215.759 181.935Z" fill="black"/>
<path d="M215.759 181.934L222.958 186.074L225.471 229.234L213.395 222.266L215.759 181.934Z" fill="#0FA968"/>
<path opacity="0.55" d="M215.759 181.934L222.958 186.074L225.471 229.234L213.395 222.266L215.759 181.934Z" fill="white"/>
<path opacity="0.2" d="M225.471 229.235L220.279 221.953L219.632 196.512L218.984 221.513L213.395 222.268L225.471 229.235Z" fill="#0FA968"/>
<path opacity="0.05" d="M225.471 229.235L220.279 221.953L219.632 196.512L218.984 221.513L213.395 222.268L225.471 229.235Z" fill="black"/>
<path d="M248.244 171.477L222.958 186.077L225.47 229.237L250.763 214.637L248.244 171.477ZM230.472 187.111C229.973 187.396 229.569 187.158 229.569 186.582C229.586 186.269 229.676 185.964 229.833 185.693C229.99 185.421 230.209 185.191 230.472 185.02C230.971 184.729 231.381 184.966 231.381 185.548C231.363 185.862 231.271 186.167 231.113 186.438C230.955 186.71 230.736 186.94 230.472 187.111ZM239.435 181.895C238.936 182.18 238.533 181.943 238.533 181.367C238.55 181.053 238.642 180.748 238.8 180.477C238.958 180.205 239.178 179.975 239.441 179.804C239.94 179.513 240.344 179.751 240.344 180.333C240.324 180.641 240.233 180.941 240.077 181.208C239.921 181.475 239.706 181.702 239.447 181.872L239.435 181.895Z" fill="#0FA968"/>
<path opacity="0.7" d="M248.244 171.477L222.958 186.077L225.47 229.237L250.763 214.637L248.244 171.477ZM230.472 187.111C229.973 187.396 229.569 187.158 229.569 186.582C229.586 186.269 229.676 185.964 229.833 185.693C229.99 185.421 230.209 185.191 230.472 185.02C230.971 184.729 231.381 184.966 231.381 185.548C231.363 185.862 231.271 186.167 231.113 186.438C230.955 186.71 230.736 186.94 230.472 187.111ZM239.435 181.895C238.936 182.18 238.533 181.943 238.533 181.367C238.55 181.053 238.642 180.748 238.8 180.477C238.958 180.205 239.178 179.975 239.441 179.804C239.94 179.513 240.344 179.751 240.344 180.333C240.324 180.641 240.233 180.941 240.077 181.208C239.921 181.475 239.706 181.702 239.447 181.872L239.435 181.895Z" fill="white"/>
<path d="M237.915 167.259C237.422 167.003 236.869 166.886 236.315 166.92C235.76 166.953 235.225 167.136 234.767 167.449C232.183 168.94 230.08 173.252 230.08 177.06V186.041C230.092 186.14 230.14 186.232 230.215 186.298C230.29 186.365 230.387 186.402 230.487 186.402C230.587 186.402 230.684 186.365 230.759 186.298C230.834 186.232 230.882 186.14 230.894 186.041V177.06C230.894 173.496 232.812 169.516 235.171 168.15C235.506 167.908 235.902 167.763 236.314 167.729C236.727 167.696 237.14 167.775 237.511 167.96C238.485 168.554 239.043 169.949 239.043 171.88V180.82C239.055 180.919 239.103 181.011 239.178 181.077C239.253 181.144 239.35 181.18 239.45 181.18C239.55 181.18 239.647 181.144 239.722 181.077C239.797 181.011 239.845 180.919 239.857 180.82V171.886C239.857 169.658 239.15 167.971 237.915 167.259Z" fill="#37474F"/>
<path d="M259.275 174.042C258.845 173.817 258.361 173.714 257.877 173.743C257.392 173.772 256.925 173.933 256.525 174.208C254.268 175.509 252.432 179.269 252.432 182.595V190.43C252.432 190.525 252.47 190.615 252.537 190.682C252.603 190.749 252.694 190.787 252.789 190.787C252.883 190.787 252.974 190.749 253.041 190.682C253.108 190.615 253.145 190.525 253.145 190.43V182.619C253.145 179.518 254.82 176.037 256.881 174.844C257.174 174.634 257.519 174.509 257.878 174.481C258.237 174.453 258.597 174.523 258.919 174.683C259.768 175.17 260.255 176.418 260.255 178.099V185.922C260.255 186.016 260.293 186.107 260.36 186.174C260.426 186.24 260.517 186.278 260.612 186.278C260.706 186.278 260.797 186.24 260.864 186.174C260.93 186.107 260.968 186.016 260.968 185.922V178.099C260.968 176.156 260.35 174.689 259.275 174.042Z" fill="#263238"/>
<path d="M276.78 218.994L274.588 181.322L268.304 177.711L266.243 212.911L276.78 218.994Z" fill="#0FA968"/>
<path opacity="0.2" d="M276.78 218.994L274.588 181.322L268.304 177.711L266.243 212.911L276.78 218.994Z" fill="black"/>
<path d="M246.231 190.452L244.17 225.653L266.243 212.911L268.304 177.711L246.231 190.452Z" fill="#0FA968"/>
<path opacity="0.3" d="M246.231 190.452L244.17 225.653L266.243 212.911L268.304 177.711L246.231 190.452Z" fill="black"/>
<path d="M246.231 190.453L252.515 194.071L254.707 231.736L244.17 225.654L246.231 190.453Z" fill="#0FA968"/>
<path opacity="0.15" d="M246.231 190.453L252.515 194.071L254.707 231.736L244.17 225.654L246.231 190.453Z" fill="black"/>
<path opacity="0.15" d="M254.707 231.735L250.181 225.38L249.611 203.176L249.046 224.993L244.17 225.653L254.707 231.735Z" fill="black"/>
<path d="M274.588 181.324L252.515 194.071L254.707 231.737L276.804 218.996L274.588 181.324ZM259.085 194.951C258.651 195.2 258.295 194.992 258.295 194.487C258.313 194.214 258.394 193.949 258.531 193.712C258.668 193.475 258.857 193.273 259.085 193.121C259.519 192.872 259.875 193.079 259.875 193.584C259.861 193.858 259.782 194.125 259.645 194.363C259.508 194.6 259.316 194.802 259.085 194.951ZM266.908 190.401C266.474 190.65 266.118 190.442 266.118 189.937C266.136 189.664 266.217 189.399 266.354 189.162C266.491 188.925 266.68 188.723 266.908 188.571C267.342 188.322 267.698 188.529 267.698 189.034C267.683 189.308 267.603 189.574 267.466 189.812C267.329 190.049 267.138 190.251 266.908 190.401Z" fill="#0FA968"/>
<path d="M265.572 177.649C265.141 177.426 264.658 177.323 264.173 177.353C263.689 177.382 263.222 177.542 262.821 177.815C260.564 179.116 258.729 182.876 258.729 186.203V194.038C258.729 194.132 258.766 194.223 258.833 194.29C258.9 194.356 258.991 194.394 259.085 194.394C259.18 194.394 259.27 194.356 259.337 194.29C259.404 194.223 259.441 194.132 259.441 194.038V186.203C259.441 183.108 261.117 179.621 263.178 178.433C263.47 178.222 263.814 178.095 264.173 178.065C264.532 178.036 264.893 178.106 265.215 178.267C266.065 178.76 266.552 180.001 266.552 181.688V189.487C266.552 189.534 266.561 189.581 266.579 189.624C266.597 189.667 266.623 189.706 266.656 189.74C266.689 189.773 266.728 189.799 266.772 189.817C266.815 189.835 266.861 189.844 266.908 189.844C266.955 189.844 267.001 189.835 267.044 189.817C267.088 189.799 267.127 189.773 267.16 189.74C267.193 189.706 267.219 189.667 267.237 189.624C267.255 189.581 267.264 189.534 267.264 189.487V181.688C267.264 179.74 266.647 178.273 265.572 177.649Z" fill="#37474F"/>
<path d="M99.4415 241.963C99.2997 240.667 98.8533 239.423 98.1389 238.333C97.4245 237.243 96.4624 236.337 95.331 235.69C94.2143 235.096 93.2402 235.156 92.5808 235.649L90.1335 237.235L96.0201 246.055L98.4436 244.475C99.1208 244.048 99.5128 243.181 99.4415 241.963Z" fill="#455A64"/>
<path d="M92.7947 237.349C93.926 237.996 94.8882 238.902 95.6026 239.992C96.317 241.082 96.7633 242.326 96.9052 243.622C97.0418 245.998 95.4202 247.073 93.2877 245.998C92.157 245.35 91.1953 244.444 90.481 243.354C89.7667 242.264 89.32 241.02 89.1772 239.725C89.0406 237.337 90.6622 236.274 92.7947 237.349Z" fill="#37474F"/>
<path d="M91.7314 241.016C91.6779 240.084 92.2244 239.62 92.9194 239.983C93.3243 240.24 93.6627 240.59 93.9073 241.002C94.1519 241.415 94.2957 241.88 94.3272 242.359C94.3806 243.291 93.8342 243.755 93.1392 243.386C92.7338 243.131 92.3948 242.783 92.1501 242.371C91.9054 241.959 91.7619 241.494 91.7314 241.016Z" fill="#263238"/>
<path d="M96.822 233.59C96.822 233.59 97.2318 237.391 95.2776 239.019C94.9093 239.322 94.5113 239.542 94.2856 239.756C93.7926 240.219 94.1787 240.997 94.8321 241.3C95.7765 241.74 100.534 240.54 102.423 236.358L96.822 233.59Z" fill="#0FA968"/>
<path opacity="0.3" d="M96.822 233.59C96.822 233.59 97.2318 237.391 95.2776 239.019C94.9093 239.322 94.5113 239.542 94.2856 239.756C93.7926 240.219 94.1787 240.997 94.8321 241.3C95.7765 241.74 100.534 240.54 102.423 236.358L96.822 233.59Z" fill="white"/>
<path d="M95.0816 234.41C95.0816 234.41 95.3252 238.616 93.3709 240.243C93.0026 240.546 92.6046 240.772 92.3789 240.986C91.8859 241.443 92.272 242.221 92.9195 242.524C93.8699 242.964 98.7941 241.336 100.683 237.178L95.0816 234.41Z" fill="#0FA968"/>
<path opacity="0.7" d="M95.0816 234.41C95.0816 234.41 95.3252 238.616 93.3709 240.243C93.0026 240.546 92.6046 240.772 92.3789 240.986C91.8859 241.443 92.272 242.221 92.9195 242.524C93.8699 242.964 98.7941 241.336 100.683 237.178L95.0816 234.41Z" fill="white"/>
<path d="M93.0204 241.259C93.1268 241.322 93.2174 241.408 93.2854 241.511C93.3534 241.614 93.3968 241.731 93.4125 241.853C93.4125 242.085 93.2699 242.186 93.062 242.085C92.9556 242.022 92.865 241.936 92.7971 241.833C92.7291 241.73 92.6856 241.613 92.67 241.491C92.664 241.259 92.8125 241.164 93.0204 241.259Z" fill="#263238"/>
<path d="M67.7874 226.389C67.6455 225.094 67.1992 223.85 66.4848 222.76C65.7704 221.669 64.8082 220.764 63.6769 220.117C62.5602 219.552 61.586 219.582 60.9267 220.075L58.4794 221.661L64.3659 230.47L66.7894 228.89C67.4666 228.474 67.8586 227.607 67.7874 226.389Z" fill="#455A64"/>
<path d="M61.1404 221.775C62.2711 222.423 63.2328 223.329 63.9471 224.419C64.6614 225.509 65.1081 226.752 65.2509 228.047C65.3875 230.423 63.7659 231.499 61.6334 230.423C60.5021 229.776 59.5399 228.871 58.8255 227.78C58.1111 226.69 57.6648 225.446 57.5229 224.151C57.3863 221.763 59.0079 220.7 61.1404 221.775Z" fill="#37474F"/>
<path d="M60.0772 225.439C60.0238 224.507 60.5702 224.043 61.2652 224.412C61.6675 224.665 62.0045 225.009 62.2491 225.417C62.4937 225.824 62.6389 226.284 62.673 226.758C62.7265 227.691 62.18 228.154 61.485 227.792C61.0832 227.536 60.7467 227.191 60.5023 226.782C60.2578 226.374 60.1123 225.914 60.0772 225.439Z" fill="#263238"/>
<path d="M65.138 217.996C65.138 217.996 65.5479 221.798 63.5936 223.425C63.2253 223.734 62.8333 223.954 62.6016 224.168C62.1086 224.625 62.4947 225.403 63.1481 225.706C64.0926 226.146 68.8505 224.946 70.7394 220.764L65.138 217.996Z" fill="#0FA968"/>
<path opacity="0.3" d="M65.138 217.996C65.138 217.996 65.5479 221.798 63.5936 223.425C63.2253 223.734 62.8333 223.954 62.6016 224.168C62.1086 224.625 62.4947 225.403 63.1481 225.706C64.0926 226.146 68.8505 224.946 70.7394 220.764L65.138 217.996Z" fill="white"/>
<path d="M63.4274 218.836C63.4274 218.836 63.6709 223.041 61.7167 224.669C61.3484 224.978 60.9504 225.198 60.7247 225.412C60.2317 225.869 60.6178 226.647 61.2712 226.95C62.2156 227.39 67.1399 225.762 69.0288 221.604L63.4274 218.836Z" fill="#0FA968"/>
<path opacity="0.7" d="M63.4274 218.836C63.4274 218.836 63.6709 223.041 61.7167 224.669C61.3484 224.978 60.9504 225.198 60.7247 225.412C60.2317 225.869 60.6178 226.647 61.2712 226.95C62.2156 227.39 67.1399 225.762 69.0288 221.604L63.4274 218.836Z" fill="white"/>
<path d="M61.3662 225.684C61.4725 225.746 61.5632 225.832 61.6311 225.935C61.6991 226.038 61.7425 226.155 61.7582 226.278C61.7582 226.503 61.6156 226.604 61.4077 226.503C61.3014 226.441 61.2107 226.355 61.1428 226.252C61.0748 226.149 61.0314 226.032 61.0157 225.909C61.0038 225.684 61.182 225.583 61.3662 225.684Z" fill="#263238"/>
<path d="M103.083 206.014C102.937 204.72 102.489 203.478 101.775 202.388C101.061 201.299 100.101 200.392 98.9723 199.742C97.8496 199.177 96.8755 199.207 96.2161 199.7L93.7748 201.286L99.6613 210.107L102.079 208.527C102.762 208.099 103.148 207.232 103.083 206.014Z" fill="#455A64"/>
<path d="M96.4359 201.4C97.5644 202.05 98.5244 202.957 99.2383 204.046C99.9523 205.136 100.4 206.378 100.546 207.672C100.677 210.048 99.0554 211.124 96.923 210.048C95.7937 209.397 94.8332 208.49 94.1192 207.399C93.4052 206.308 92.9576 205.065 92.8125 203.77C92.664 201.364 94.2975 200.325 96.4359 201.4Z" fill="#37474F"/>
<path d="M95.3727 205.067C95.3192 204.134 95.8597 203.671 96.5607 204.033C96.9647 204.291 97.3023 204.641 97.5459 205.054C97.7894 205.467 97.9322 205.931 97.9625 206.409C98.016 207.342 97.4754 207.805 96.7745 207.437C96.3692 207.182 96.0307 206.834 95.7869 206.422C95.5431 206.009 95.4011 205.545 95.3727 205.067Z" fill="#263238"/>
<path d="M100.903 197.09C100.903 197.09 100.837 201.444 98.8891 203.071C98.5208 203.374 98.1229 203.594 97.8912 203.808C97.3982 204.271 97.7902 205.049 98.4377 205.352C99.3821 205.792 104.069 204.758 105.958 200.541L100.903 197.09Z" fill="#0FA968"/>
<path opacity="0.3" d="M100.903 197.09C100.903 197.09 100.837 201.444 98.8891 203.071C98.5208 203.374 98.1229 203.594 97.8912 203.808C97.3982 204.271 97.7902 205.049 98.4377 205.352C99.3821 205.792 104.069 204.758 105.958 200.541L100.903 197.09Z" fill="white"/>
<path d="M99.1981 197.719C99.1981 197.719 98.9783 202.667 97.03 204.294C96.6617 204.597 96.2637 204.817 96.0321 205.031C95.539 205.494 95.9251 206.272 96.5785 206.575C97.523 207.015 102.447 205.387 104.336 201.229L99.1981 197.719Z" fill="#0FA968"/>
<path opacity="0.7" d="M99.1981 197.719C99.1981 197.719 98.9783 202.667 97.03 204.294C96.6617 204.597 96.2637 204.817 96.0321 205.031C95.539 205.494 95.9251 206.272 96.5785 206.575C97.523 207.015 102.447 205.387 104.336 201.229L99.1981 197.719Z" fill="white"/>
<path d="M96.6557 205.309C96.7626 205.37 96.8537 205.456 96.9218 205.559C96.9898 205.662 97.0329 205.78 97.0477 205.903C97.0477 206.134 96.9051 206.235 96.7032 206.134C96.596 206.072 96.5044 205.986 96.4355 205.883C96.3665 205.78 96.3219 205.663 96.3052 205.54C96.2933 205.309 96.4478 205.208 96.6557 205.309Z" fill="#263238"/>
<path d="M130.347 224.595C130.201 223.301 129.753 222.059 129.039 220.969C128.325 219.88 127.365 218.973 126.237 218.323C125.114 217.758 124.14 217.788 123.481 218.287L121.039 219.867L126.926 228.688L129.344 227.108C130.021 226.686 130.413 225.819 130.347 224.595Z" fill="#455A64"/>
<path d="M123.7 219.982C124.83 220.633 125.79 221.54 126.504 222.631C127.218 223.722 127.666 224.965 127.811 226.26C127.948 228.636 126.326 229.706 124.188 228.636C123.059 227.986 122.099 227.079 121.385 225.99C120.671 224.9 120.223 223.658 120.077 222.364C119.946 219.97 121.568 218.907 123.7 219.982Z" fill="#37474F"/>
<path d="M122.637 223.646C122.584 222.714 123.124 222.25 123.825 222.619C124.231 222.874 124.57 223.224 124.814 223.637C125.058 224.05 125.2 224.516 125.227 224.995C125.281 225.933 124.74 226.391 124.039 226.028C123.634 225.77 123.296 225.419 123.053 225.005C122.809 224.591 122.667 224.126 122.637 223.646Z" fill="#263238"/>
<path d="M128.173 215.676C128.173 215.676 128.102 220.024 126.154 221.651C125.786 221.96 125.388 222.18 125.162 222.394C124.663 222.857 125.055 223.629 125.702 223.932C126.647 224.372 131.333 223.309 133.222 219.127L128.173 215.676Z" fill="#0FA968"/>
<path opacity="0.3" d="M128.173 215.676C128.173 215.676 128.102 220.024 126.154 221.651C125.786 221.96 125.388 222.18 125.162 222.394C124.663 222.857 125.055 223.629 125.702 223.932C126.647 224.372 131.333 223.309 133.222 219.127L128.173 215.676Z" fill="white"/>
<path d="M126.445 216.305C126.445 216.305 126.225 221.247 124.277 222.874C123.908 223.183 123.51 223.403 123.285 223.617C122.786 224.08 123.178 224.852 123.825 225.155C124.77 225.595 129.694 223.967 131.583 219.809L126.445 216.305Z" fill="#0FA968"/>
<path opacity="0.7" d="M126.445 216.305C126.445 216.305 126.225 221.247 124.277 222.874C123.908 223.183 123.51 223.403 123.285 223.617C122.786 224.08 123.178 224.852 123.825 225.155C124.77 225.595 129.694 223.967 131.583 219.809L126.445 216.305Z" fill="white"/>
<path d="M123.92 223.891C124.027 223.953 124.119 224.039 124.188 224.142C124.257 224.245 124.302 224.362 124.318 224.485C124.318 224.71 124.176 224.817 123.968 224.71C123.861 224.649 123.77 224.563 123.702 224.46C123.634 224.357 123.591 224.239 123.576 224.116C123.552 223.891 123.718 223.79 123.92 223.891Z" fill="#263238"/>
<path d="M141.105 224.668C141.094 224.63 141.08 224.592 141.063 224.555C141.063 224.52 141.004 224.49 140.974 224.454C140.939 224.414 140.902 224.376 140.861 224.342L90.1811 189.801L90.0801 189.759C90.0349 189.734 89.9871 189.714 89.9376 189.7C89.8882 189.694 89.8384 189.694 89.7891 189.7C89.7436 189.697 89.6979 189.697 89.6525 189.7C89.5985 189.709 89.5464 189.727 89.498 189.753C89.4627 189.76 89.4286 189.772 89.397 189.789L51.4345 211.648C51.3251 211.72 51.2361 211.82 51.1761 211.936C51.1161 212.053 51.087 212.183 51.0918 212.315C51.0966 212.446 51.135 212.574 51.2033 212.686C51.2716 212.798 51.3676 212.89 51.482 212.955L111.137 242.31L111.232 242.346H111.286C111.345 242.352 111.405 242.352 111.464 242.346C111.533 242.357 111.603 242.359 111.672 242.352H111.737L111.85 242.304L140.778 225.571C140.844 225.533 140.903 225.483 140.95 225.423L140.986 225.381C140.986 225.351 140.986 225.316 141.028 225.286C141.055 225.235 141.077 225.181 141.093 225.126C141.096 225.084 141.096 225.043 141.093 225.001C141.102 224.95 141.102 224.898 141.093 224.847C141.101 224.787 141.105 224.728 141.105 224.668ZM111.405 240.801L53.3828 212.236L89.694 191.268L138.996 224.882L111.405 240.801Z" fill="#455A64"/>
<path d="M51.7492 212.805C51.5827 212.806 51.4206 212.751 51.2892 212.648C51.1577 212.546 51.0645 212.403 51.0246 212.241L45.5954 190.304C45.5481 190.113 45.5789 189.911 45.6808 189.742C45.7827 189.573 45.9475 189.452 46.1389 189.404C46.3303 189.357 46.5327 189.388 46.7014 189.49C46.8702 189.592 46.9916 189.757 47.0388 189.948L52.468 211.89C52.5147 212.081 52.4841 212.282 52.3828 212.45C52.2815 212.618 52.1178 212.74 51.9274 212.787L51.7492 212.805Z" fill="#455A64"/>
<path d="M89.7475 191.105C89.5771 191.103 89.4124 191.043 89.2807 190.935C89.1489 190.827 89.0579 190.677 89.0228 190.511L84.1995 167.98C84.1789 167.883 84.178 167.783 84.1969 167.686C84.2158 167.589 84.2542 167.496 84.3096 167.414C84.3651 167.332 84.4365 167.262 84.5196 167.208C84.6028 167.154 84.6959 167.118 84.7935 167.101C84.8903 167.081 84.9901 167.081 85.087 167.1C85.184 167.119 85.276 167.158 85.3579 167.213C85.4398 167.269 85.5098 167.34 85.5639 167.422C85.6179 167.505 85.6549 167.598 85.6726 167.695L90.5019 190.225C90.5238 190.334 90.5214 190.446 90.4949 190.553C90.4684 190.661 90.4185 190.761 90.3486 190.847C90.2787 190.932 90.1907 191.002 90.0909 191.049C89.991 191.097 89.8819 191.122 89.7712 191.122L89.7475 191.105Z" fill="#455A64"/>
<path d="M46.3202 190.125L111.464 222.165L140.422 205.45L84.9242 167.832L46.3202 190.125Z" fill="#0FA968"/>
<path opacity="0.3" d="M46.3202 190.125L111.464 222.165L140.422 205.45L84.9242 167.832L46.3202 190.125Z" fill="white"/>
<path d="M131.155 210.386L120.463 203.888L129.676 198.542C129.834 198.437 129.946 198.276 129.99 198.092C130.033 197.908 130.004 197.714 129.91 197.55C129.815 197.386 129.661 197.265 129.48 197.211C129.298 197.156 129.103 197.174 128.934 197.259L119.02 202.979L108.72 196.712L118.574 191.022C118.659 190.973 118.733 190.908 118.793 190.83C118.852 190.753 118.896 190.665 118.921 190.57C118.947 190.476 118.953 190.378 118.941 190.281C118.928 190.184 118.896 190.09 118.848 190.006C118.799 189.921 118.734 189.847 118.656 189.787C118.579 189.728 118.491 189.684 118.396 189.659C118.302 189.633 118.204 189.627 118.107 189.64C118.01 189.652 117.916 189.684 117.832 189.733L107.276 195.827L96.9765 189.56L107.514 183.543C107.672 183.439 107.784 183.278 107.828 183.094C107.871 182.909 107.842 182.716 107.747 182.552C107.653 182.388 107.499 182.266 107.317 182.212C107.136 182.158 106.941 182.175 106.772 182.26L95.5687 188.729L85.2688 182.456L96.4122 176.023C96.5831 175.925 96.7079 175.762 96.7592 175.572C96.8104 175.381 96.7839 175.178 96.6854 175.007C96.587 174.836 96.4246 174.712 96.2342 174.66C96.0437 174.609 95.8406 174.636 95.6697 174.734L83.8253 181.577L72.4681 174.633C72.2995 174.53 72.0968 174.498 71.9047 174.544C71.7125 174.59 71.5466 174.711 71.4434 174.88C71.3402 175.048 71.3082 175.251 71.3545 175.443C71.4007 175.635 71.5214 175.801 71.6899 175.904L82.3819 182.403L71.6068 188.628L59.5842 182.046C59.4109 181.952 59.2072 181.93 59.0178 181.986C58.8284 182.041 58.6689 182.17 58.5744 182.343C58.4799 182.516 58.4581 182.72 58.5138 182.91C58.5695 183.099 58.6981 183.258 58.8714 183.353L70.0564 189.483L58.9783 195.886C58.8348 195.967 58.722 196.093 58.6579 196.245C58.5938 196.396 58.5819 196.565 58.624 196.724C58.6662 196.883 58.76 197.024 58.8908 197.124C59.0216 197.224 59.182 197.277 59.3466 197.276C59.4778 197.275 59.6065 197.24 59.7208 197.175L71.6008 190.327L82.4591 196.267L72.0226 202.29C71.8815 202.372 71.7715 202.498 71.7095 202.649C71.6475 202.8 71.637 202.967 71.6796 203.125C71.7222 203.283 71.8156 203.422 71.9452 203.521C72.0748 203.62 72.2336 203.674 72.3968 203.674C72.5256 203.674 72.6524 203.641 72.7651 203.579L83.9857 197.098L94.85 203.038L85.0549 208.693C84.9143 208.775 84.8045 208.901 84.7424 209.051C84.6803 209.202 84.6694 209.368 84.7112 209.525C84.753 209.683 84.8454 209.822 84.974 209.922C85.1027 210.021 85.2605 210.076 85.4232 210.077C85.5548 210.078 85.6842 210.043 85.7974 209.976L96.3706 203.87L107.235 209.81L98.0813 215.096C97.9403 215.179 97.8303 215.305 97.7683 215.456C97.7063 215.607 97.6958 215.774 97.7384 215.932C97.781 216.089 97.8744 216.228 98.004 216.328C98.1336 216.427 98.2923 216.48 98.4556 216.48C98.5854 216.482 98.713 216.447 98.8238 216.379L108.756 210.647L120.778 217.223C120.886 217.285 121.009 217.318 121.134 217.318C121.268 217.317 121.398 217.281 121.513 217.213C121.628 217.145 121.723 217.048 121.788 216.932C121.835 216.846 121.865 216.752 121.875 216.655C121.886 216.557 121.877 216.459 121.849 216.365C121.822 216.271 121.776 216.184 121.714 216.108C121.653 216.032 121.577 215.969 121.491 215.922L110.264 209.774L119.032 204.713L130.401 211.633C130.516 211.707 130.65 211.746 130.787 211.746C130.914 211.745 131.04 211.712 131.151 211.65C131.262 211.587 131.355 211.498 131.423 211.39C131.517 211.22 131.541 211.021 131.491 210.834C131.442 210.647 131.321 210.486 131.155 210.386ZM83.9501 195.423L73.0621 189.483L83.7541 183.305L94.0481 189.578L83.9501 195.423ZM96.335 202.207L85.4767 196.267L95.5331 190.457L105.827 196.73L96.335 202.207ZM108.702 208.96L97.8437 203.02L107.253 197.585L117.553 203.858L108.702 208.96Z" fill="#0FA968"/>
<path opacity="0.7" d="M131.155 210.386L120.463 203.888L129.676 198.542C129.834 198.437 129.946 198.276 129.99 198.092C130.033 197.908 130.004 197.714 129.91 197.55C129.815 197.386 129.661 197.265 129.48 197.211C129.298 197.156 129.103 197.174 128.934 197.259L119.02 202.979L108.72 196.712L118.574 191.022C118.659 190.973 118.733 190.908 118.793 190.83C118.852 190.753 118.896 190.665 118.921 190.57C118.947 190.476 118.953 190.378 118.941 190.281C118.928 190.184 118.896 190.09 118.848 190.006C118.799 189.921 118.734 189.847 118.656 189.787C118.579 189.728 118.491 189.684 118.396 189.659C118.302 189.633 118.204 189.627 118.107 189.64C118.01 189.652 117.916 189.684 117.832 189.733L107.276 195.827L96.9765 189.56L107.514 183.543C107.672 183.439 107.784 183.278 107.828 183.094C107.871 182.909 107.842 182.716 107.747 182.552C107.653 182.388 107.499 182.266 107.317 182.212C107.136 182.158 106.941 182.175 106.772 182.26L95.5687 188.729L85.2688 182.456L96.4122 176.023C96.5831 175.925 96.7079 175.762 96.7592 175.572C96.8104 175.381 96.7839 175.178 96.6854 175.007C96.587 174.836 96.4246 174.712 96.2342 174.66C96.0437 174.609 95.8406 174.636 95.6697 174.734L83.8253 181.577L72.4681 174.633C72.2995 174.53 72.0968 174.498 71.9047 174.544C71.7125 174.59 71.5466 174.711 71.4434 174.88C71.3402 175.048 71.3082 175.251 71.3545 175.443C71.4007 175.635 71.5214 175.801 71.6899 175.904L82.3819 182.403L71.6068 188.628L59.5842 182.046C59.4109 181.952 59.2072 181.93 59.0178 181.986C58.8284 182.041 58.6689 182.17 58.5744 182.343C58.4799 182.516 58.4581 182.72 58.5138 182.91C58.5695 183.099 58.6981 183.258 58.8714 183.353L70.0564 189.483L58.9783 195.886C58.8348 195.967 58.722 196.093 58.6579 196.245C58.5938 196.396 58.5819 196.565 58.624 196.724C58.6662 196.883 58.76 197.024 58.8908 197.124C59.0216 197.224 59.182 197.277 59.3466 197.276C59.4778 197.275 59.6065 197.24 59.7208 197.175L71.6008 190.327L82.4591 196.267L72.0226 202.29C71.8815 202.372 71.7715 202.498 71.7095 202.649C71.6475 202.8 71.637 202.967 71.6796 203.125C71.7222 203.283 71.8156 203.422 71.9452 203.521C72.0748 203.62 72.2336 203.674 72.3968 203.674C72.5256 203.674 72.6524 203.641 72.7651 203.579L83.9857 197.098L94.85 203.038L85.0549 208.693C84.9143 208.775 84.8045 208.901 84.7424 209.051C84.6803 209.202 84.6694 209.368 84.7112 209.525C84.753 209.683 84.8454 209.822 84.974 209.922C85.1027 210.021 85.2605 210.076 85.4232 210.077C85.5548 210.078 85.6842 210.043 85.7974 209.976L96.3706 203.87L107.235 209.81L98.0813 215.096C97.9403 215.179 97.8303 215.305 97.7683 215.456C97.7063 215.607 97.6958 215.774 97.7384 215.932C97.781 216.089 97.8744 216.228 98.004 216.328C98.1336 216.427 98.2923 216.48 98.4556 216.48C98.5854 216.482 98.713 216.447 98.8238 216.379L108.756 210.647L120.778 217.223C120.886 217.285 121.009 217.318 121.134 217.318C121.268 217.317 121.398 217.281 121.513 217.213C121.628 217.145 121.723 217.048 121.788 216.932C121.835 216.846 121.865 216.752 121.875 216.655C121.886 216.557 121.877 216.459 121.849 216.365C121.822 216.271 121.776 216.184 121.714 216.108C121.653 216.032 121.577 215.969 121.491 215.922L110.264 209.774L119.032 204.713L130.401 211.633C130.516 211.707 130.65 211.746 130.787 211.746C130.914 211.745 131.04 211.712 131.151 211.65C131.262 211.587 131.355 211.498 131.423 211.39C131.517 211.22 131.541 211.021 131.491 210.834C131.442 210.647 131.321 210.486 131.155 210.386ZM83.9501 195.423L73.0621 189.483L83.7541 183.305L94.0481 189.578L83.9501 195.423ZM96.335 202.207L85.4767 196.267L95.5331 190.457L105.827 196.73L96.335 202.207ZM108.702 208.96L97.8437 203.02L107.253 197.585L117.553 203.858L108.702 208.96Z" fill="white"/>
<path d="M85.5657 167.464C85.5171 167.379 85.4522 167.305 85.3748 167.246C85.2974 167.186 85.209 167.142 85.1146 167.117C85.0202 167.091 84.9218 167.085 84.8249 167.098C84.728 167.11 84.6346 167.142 84.55 167.191L72.5393 174.129L69.6941 162.629L82.079 155.501C82.1636 155.452 82.2378 155.387 82.2973 155.31C82.3569 155.233 82.4006 155.144 82.4259 155.05C82.4513 154.955 82.4579 154.857 82.4452 154.76C82.4326 154.663 82.401 154.57 82.3522 154.485C82.3034 154.401 82.2385 154.327 82.1611 154.267C82.0836 154.207 81.9952 154.164 81.9009 154.138C81.8066 154.113 81.7082 154.106 81.6114 154.119C81.5145 154.132 81.4211 154.163 81.3365 154.212L69.3198 161.126L66.4746 149.626L78.8595 142.498C78.9441 142.45 79.0183 142.385 79.0779 142.307C79.1374 142.23 79.1811 142.141 79.2065 142.047C79.2318 141.953 79.2384 141.854 79.2257 141.758C79.2131 141.661 79.1815 141.567 79.1327 141.483C79.084 141.398 79.019 141.324 78.9416 141.264C78.8642 141.205 78.7758 141.161 78.6814 141.136C78.5871 141.11 78.4887 141.104 78.3919 141.116C78.295 141.129 78.2016 141.161 78.117 141.209L66.1063 148.147L63.261 136.618L75.6459 129.49C75.8169 129.391 75.9417 129.229 75.9929 129.039C76.0442 128.848 76.0176 128.645 75.9192 128.474C75.8207 128.303 75.6584 128.178 75.4679 128.127C75.2774 128.076 75.0744 128.102 74.9034 128.201L36.2934 150.494C36.1528 150.576 36.043 150.701 35.9809 150.852C35.9188 151.002 35.9079 151.169 35.9497 151.326C35.9916 151.483 36.0839 151.623 36.2125 151.722C36.3412 151.822 36.499 151.876 36.6617 151.878C36.7931 151.877 36.9219 151.842 37.0359 151.777L49.0466 144.839L51.8919 156.345L39.507 163.473C39.366 163.555 39.2559 163.681 39.1939 163.832C39.132 163.983 39.1215 164.15 39.1641 164.308C39.2067 164.465 39.3 164.605 39.4296 164.704C39.5593 164.803 39.718 164.857 39.8812 164.857C40.0109 164.857 40.1383 164.822 40.2495 164.756L52.272 157.824L55.1173 169.329L42.7324 176.457C42.6478 176.505 42.5736 176.57 42.5141 176.647C42.4545 176.724 42.4108 176.811 42.3854 176.905C42.36 176.999 42.3534 177.097 42.3661 177.194C42.3787 177.29 42.4104 177.383 42.4592 177.467C42.5238 177.58 42.6172 177.675 42.7298 177.74C42.8424 177.806 42.9703 177.841 43.1007 177.841C43.2319 177.84 43.3606 177.805 43.4749 177.74L55.4856 170.803L58.3308 182.356L45.9459 189.484C45.7759 189.583 45.6519 189.745 45.6008 189.936C45.5497 190.126 45.5755 190.328 45.6727 190.5C45.7207 190.585 45.7853 190.66 45.8627 190.72C45.94 190.78 46.0286 190.824 46.1232 190.849C46.2178 190.875 46.3165 190.881 46.4135 190.868C46.5106 190.855 46.604 190.823 46.6884 190.773L85.2984 168.486C85.3835 168.437 85.458 168.371 85.5175 168.293C85.5771 168.215 85.6205 168.126 85.6454 168.031C85.6703 167.936 85.676 167.837 85.6623 167.74C85.6487 167.642 85.6158 167.549 85.5657 167.464ZM50.395 144.049L61.9186 137.396L64.746 148.896L53.2224 155.555L50.395 144.049ZM53.6085 157.051L65.1381 150.399L67.9833 161.898L56.43 168.557L53.6085 157.051ZM59.6733 181.56L56.828 170.054L68.3576 163.401L71.2028 174.901L59.6733 181.56Z" fill="#0FA968"/>
<path d="M141.146 205.523C141.149 205.509 141.149 205.495 141.146 205.481L143.57 173.447C143.573 173.415 143.573 173.383 143.57 173.352C143.576 173.3 143.576 173.249 143.57 173.197C143.557 173.152 143.539 173.108 143.516 173.067C143.498 173.024 143.474 172.984 143.445 172.948C143.416 172.907 143.38 172.87 143.338 172.841C143.318 172.816 143.296 172.792 143.273 172.77L75.9192 128.344L74.8441 123.901C73.8329 120.593 71.6903 117.746 68.7912 115.859L67.5557 115.146C66.9646 114.84 66.3087 114.68 65.643 114.68C64.9773 114.68 64.3214 114.84 63.7303 115.146L57.9745 118.472C57.884 118.518 57.8038 118.581 57.7388 118.659C57.6738 118.736 57.6253 118.826 57.5963 118.923C57.5673 119.02 57.5584 119.122 57.5703 119.222C57.5821 119.323 57.6143 119.42 57.665 119.508C57.7157 119.595 57.7838 119.671 57.8651 119.732C57.9463 119.792 58.0391 119.835 58.1376 119.858C58.2361 119.882 58.3383 119.884 58.4379 119.867C58.5376 119.849 58.6325 119.811 58.717 119.755L64.4491 116.423C64.8182 116.239 65.2248 116.144 65.6371 116.144C66.0493 116.144 66.456 116.239 66.8251 116.423L68.0547 117.136C70.608 118.821 72.4974 121.34 73.4007 124.264L74.5114 128.76C74.5059 128.902 74.5409 129.042 74.6124 129.164L84.2293 168.018C84.2471 168.089 84.2751 168.157 84.3124 168.22C84.3124 168.22 84.3124 168.22 84.3124 168.249C84.3124 168.249 84.3481 168.285 84.36 168.309C84.399 168.355 84.4428 168.397 84.4906 168.433L139.982 206.046H140.036L140.107 206.081C140.17 206.107 140.236 206.125 140.303 206.135H140.344H140.404C140.487 206.132 140.569 206.118 140.647 206.093H140.701C140.774 206.062 140.842 206.02 140.903 205.968C140.939 205.937 140.971 205.901 140.998 205.861C140.999 205.846 140.999 205.83 140.998 205.814C141.026 205.77 141.046 205.722 141.057 205.671C141.096 205.628 141.126 205.577 141.146 205.523ZM104.859 160.26L115.895 167.602L116.573 177.332L106.207 170.376L104.859 160.26ZM104.544 169.289L94.2619 162.392L92.2423 151.902L103.214 159.191L104.544 169.289ZM117.44 168.659L128.559 176.054V185.386L118.117 178.383L117.44 168.659ZM117.309 166.788L116.638 157.041L128.559 164.911V174.267L117.309 166.788ZM115.771 165.725L104.598 158.3L103.249 148.202L115.094 156.019L115.771 165.725ZM102.952 157.201L91.8681 149.829L89.8485 139.327L101.604 147.085L102.952 157.201ZM90.1336 148.677L79.1387 141.371L76.4479 130.495L88.114 138.217L90.1336 148.677ZM90.5257 150.72L92.5453 161.204L82.3582 154.373L79.6674 143.503L90.5257 150.72ZM92.9373 163.26L94.9569 173.732L85.5777 167.376L82.8868 156.518L92.9373 163.26ZM94.6777 164.448L104.823 171.255L106.166 181.353L96.6914 174.932L94.6777 164.448ZM106.469 172.36L116.703 179.226L117.374 188.95L107.817 182.47L106.469 172.36ZM118.265 180.272L128.577 187.198V196.542L118.937 190.008L118.265 180.272ZM130.086 188.172L140.475 195.146L139.798 204.115L130.086 197.534V188.172ZM130.086 186.39V177.011L141.277 184.454L140.606 193.429L130.086 186.39ZM130.086 175.229V165.873L142.085 173.785L141.372 182.767L130.086 175.229Z" fill="#0FA968"/>
<path opacity="0.15" d="M141.146 205.523C141.149 205.509 141.149 205.495 141.146 205.481L143.57 173.447C143.573 173.415 143.573 173.383 143.57 173.352C143.576 173.3 143.576 173.249 143.57 173.197C143.557 173.152 143.539 173.108 143.516 173.067C143.498 173.024 143.474 172.984 143.445 172.948C143.416 172.907 143.38 172.87 143.338 172.841C143.318 172.816 143.296 172.792 143.273 172.77L75.9192 128.344L74.8441 123.901C73.8329 120.593 71.6903 117.746 68.7912 115.859L67.5557 115.146C66.9646 114.84 66.3087 114.68 65.643 114.68C64.9773 114.68 64.3214 114.84 63.7303 115.146L57.9745 118.472C57.884 118.518 57.8038 118.581 57.7388 118.659C57.6738 118.736 57.6253 118.826 57.5963 118.923C57.5673 119.02 57.5584 119.122 57.5703 119.222C57.5821 119.323 57.6143 119.42 57.665 119.508C57.7157 119.595 57.7838 119.671 57.8651 119.732C57.9463 119.792 58.0391 119.835 58.1376 119.858C58.2361 119.882 58.3383 119.884 58.4379 119.867C58.5376 119.849 58.6325 119.811 58.717 119.755L64.4491 116.423C64.8182 116.239 65.2248 116.144 65.6371 116.144C66.0493 116.144 66.456 116.239 66.8251 116.423L68.0547 117.136C70.608 118.821 72.4974 121.34 73.4007 124.264L74.5114 128.76C74.5059 128.902 74.5409 129.042 74.6124 129.164L84.2293 168.018C84.2471 168.089 84.2751 168.157 84.3124 168.22C84.3124 168.22 84.3124 168.22 84.3124 168.249C84.3124 168.249 84.3481 168.285 84.36 168.309C84.399 168.355 84.4428 168.397 84.4906 168.433L139.982 206.046H140.036L140.107 206.081C140.17 206.107 140.236 206.125 140.303 206.135H140.344H140.404C140.487 206.132 140.569 206.118 140.647 206.093H140.701C140.774 206.062 140.842 206.02 140.903 205.968C140.939 205.937 140.971 205.901 140.998 205.861C140.999 205.846 140.999 205.83 140.998 205.814C141.026 205.77 141.046 205.722 141.057 205.671C141.096 205.628 141.126 205.577 141.146 205.523ZM104.859 160.26L115.895 167.602L116.573 177.332L106.207 170.376L104.859 160.26ZM104.544 169.289L94.2619 162.392L92.2423 151.902L103.214 159.191L104.544 169.289ZM117.44 168.659L128.559 176.054V185.386L118.117 178.383L117.44 168.659ZM117.309 166.788L116.638 157.041L128.559 164.911V174.267L117.309 166.788ZM115.771 165.725L104.598 158.3L103.249 148.202L115.094 156.019L115.771 165.725ZM102.952 157.201L91.8681 149.829L89.8485 139.327L101.604 147.085L102.952 157.201ZM90.1336 148.677L79.1387 141.371L76.4479 130.495L88.114 138.217L90.1336 148.677ZM90.5257 150.72L92.5453 161.204L82.3582 154.373L79.6674 143.503L90.5257 150.72ZM92.9373 163.26L94.9569 173.732L85.5777 167.376L82.8868 156.518L92.9373 163.26ZM94.6777 164.448L104.823 171.255L106.166 181.353L96.6914 174.932L94.6777 164.448ZM106.469 172.36L116.703 179.226L117.374 188.95L107.817 182.47L106.469 172.36ZM118.265 180.272L128.577 187.198V196.542L118.937 190.008L118.265 180.272ZM130.086 188.172L140.475 195.146L139.798 204.115L130.086 197.534V188.172ZM130.086 186.39V177.011L141.277 184.454L140.606 193.429L130.086 186.39ZM130.086 175.229V165.873L142.085 173.785L141.372 182.767L130.086 175.229Z" fill="black"/>
<path d="M35.4618 135.099L33.0443 130.941L58.3902 116.311C58.5857 116.184 58.8154 116.121 59.0482 116.13C59.2809 116.138 59.5053 116.218 59.6911 116.359C60.1894 116.684 60.6037 117.123 60.9 117.639C61.1963 118.155 61.3662 118.734 61.3959 119.329C61.4264 119.558 61.3859 119.792 61.2797 119.998C61.1735 120.204 61.0067 120.373 60.8019 120.481L35.4618 135.099Z" fill="#0FA968"/>
<path opacity="0.25" d="M35.4618 135.099L33.0443 130.941L58.3902 116.311C58.5857 116.184 58.8154 116.121 59.0482 116.13C59.2809 116.138 59.5053 116.218 59.6911 116.359C60.1894 116.684 60.6037 117.123 60.9 117.639C61.1963 118.155 61.3662 118.734 61.3959 119.329C61.4264 119.558 61.3859 119.792 61.2797 119.998C61.1735 120.204 61.0067 120.373 60.8019 120.481L35.4618 135.099Z" fill="black"/>
<path d="M33.0442 130.918C33.6798 130.556 34.7371 131.191 35.4202 132.35C36.1033 133.508 36.1152 134.726 35.4796 135.1C34.8441 135.474 33.7867 134.827 33.1036 133.674C32.4205 132.522 32.4146 131.275 33.0442 130.918Z" fill="#0FA968"/>
<path d="M114.642 190.181C114.648 190.083 114.636 189.984 114.606 189.89C114.588 189.851 114.566 189.813 114.541 189.778C114.522 189.73 114.496 189.686 114.464 189.647C114.403 189.57 114.326 189.507 114.238 189.463L113.876 189.285L79.6495 171.987L37.3329 150.603L36.234 146.19C35.2236 142.884 33.0832 140.04 30.1871 138.153L28.9516 137.44C28.7377 137.315 28.6902 137.214 28.6843 137.191C28.6783 137.167 28.7377 137.066 28.9516 136.947L34.3451 133.829C34.5411 133.716 34.5352 133.336 34.3451 132.979C34.155 132.623 33.8164 132.427 33.6204 132.54L28.221 135.658C27.9217 135.787 27.6668 136.001 27.4877 136.274C27.3086 136.546 27.2132 136.865 27.2132 137.191C27.2132 137.517 27.3086 137.835 27.4877 138.108C27.6668 138.38 27.9217 138.594 28.221 138.723L29.4565 139.442C32.0091 141.128 33.8984 143.647 34.8025 146.57L35.9905 151.251V151.31L45.144 188.5L45.5895 190.282V190.312C45.5972 190.346 45.6113 190.378 45.6311 190.407C45.6488 190.456 45.6728 190.502 45.7024 190.544C45.6999 190.554 45.6999 190.564 45.7024 190.573C45.7187 190.593 45.7366 190.611 45.7558 190.627C45.7982 190.669 45.8461 190.705 45.8984 190.734C45.912 190.749 45.9281 190.761 45.9459 190.77L111.137 222.834C111.215 222.872 111.3 222.894 111.387 222.899H111.47H111.535C111.579 222.902 111.623 222.902 111.666 222.899H111.72H111.785L111.886 222.828L111.933 222.78C111.996 222.726 112.047 222.659 112.082 222.584C112.121 222.5 112.145 222.409 112.153 222.317L112.955 211.625L113.763 200.933L114.565 190.241L114.642 190.181ZM97.719 182.78V192.284L84.5322 185.679L83.8491 175.795L97.719 182.78ZM83.754 196.502L71.4523 190.377L70.092 180.089L83.1006 186.623L83.754 196.502ZM82.2631 174.999L82.9521 184.883L69.8247 178.307L68.4526 168.019L82.2631 174.999ZM69.8307 189.582L57.618 183.493L55.5568 172.801L68.5001 179.287L69.8307 189.582ZM66.8607 167.206L68.2328 177.506L55.1648 170.972L53.1036 160.28L66.8607 167.206ZM37.7547 152.516L51.4167 159.418L53.4778 170.11L40.4989 163.576L37.7547 152.516ZM40.986 165.513L53.8521 171.958L55.9132 182.65L43.7422 176.614L40.986 165.513ZM46.926 189.611L44.1817 178.503L56.2756 184.497L58.3368 195.189L46.926 189.611ZM59.994 196.02L57.9328 185.328L70.092 191.358L71.4642 201.663L59.994 196.02ZM73.062 202.442L71.6899 192.142L83.8906 198.206L84.5738 208.102L73.062 202.442ZM84.6272 187.366L97.6952 193.9V203.404L85.3163 197.268L84.6272 187.366ZM86.13 208.875L85.4351 198.99L97.6952 205.079V214.583L86.13 208.875ZM110.817 221.016L99.198 215.296V205.792L111.512 211.91L110.817 221.016ZM111.625 210.324L99.198 204.152V194.648L112.314 201.224L111.625 210.324ZM112.426 199.632L99.198 193.009V183.546L113.115 190.579L112.426 199.632Z" fill="#0FA968"/>
<path opacity="0.5" d="M114.642 190.181C114.648 190.083 114.636 189.984 114.606 189.89C114.588 189.851 114.566 189.813 114.541 189.778C114.522 189.73 114.496 189.686 114.464 189.647C114.403 189.57 114.326 189.507 114.238 189.463L113.876 189.285L79.6495 171.987L37.3329 150.603L36.234 146.19C35.2236 142.884 33.0832 140.04 30.1871 138.153L28.9516 137.44C28.7377 137.315 28.6902 137.214 28.6843 137.191C28.6783 137.167 28.7377 137.066 28.9516 136.947L34.3451 133.829C34.5411 133.716 34.5352 133.336 34.3451 132.979C34.155 132.623 33.8164 132.427 33.6204 132.54L28.221 135.658C27.9217 135.787 27.6668 136.001 27.4877 136.274C27.3086 136.546 27.2132 136.865 27.2132 137.191C27.2132 137.517 27.3086 137.835 27.4877 138.108C27.6668 138.38 27.9217 138.594 28.221 138.723L29.4565 139.442C32.0091 141.128 33.8984 143.647 34.8025 146.57L35.9905 151.251V151.31L45.144 188.5L45.5895 190.282V190.312C45.5972 190.346 45.6113 190.378 45.6311 190.407C45.6488 190.456 45.6728 190.502 45.7024 190.544C45.6999 190.554 45.6999 190.564 45.7024 190.573C45.7187 190.593 45.7366 190.611 45.7558 190.627C45.7982 190.669 45.8461 190.705 45.8984 190.734C45.912 190.749 45.9281 190.761 45.9459 190.77L111.137 222.834C111.215 222.872 111.3 222.894 111.387 222.899H111.47H111.535C111.579 222.902 111.623 222.902 111.666 222.899H111.72H111.785L111.886 222.828L111.933 222.78C111.996 222.726 112.047 222.659 112.082 222.584C112.121 222.5 112.145 222.409 112.153 222.317L112.955 211.625L113.763 200.933L114.565 190.241L114.642 190.181ZM97.719 182.78V192.284L84.5322 185.679L83.8491 175.795L97.719 182.78ZM83.754 196.502L71.4523 190.377L70.092 180.089L83.1006 186.623L83.754 196.502ZM82.2631 174.999L82.9521 184.883L69.8247 178.307L68.4526 168.019L82.2631 174.999ZM69.8307 189.582L57.618 183.493L55.5568 172.801L68.5001 179.287L69.8307 189.582ZM66.8607 167.206L68.2328 177.506L55.1648 170.972L53.1036 160.28L66.8607 167.206ZM37.7547 152.516L51.4167 159.418L53.4778 170.11L40.4989 163.576L37.7547 152.516ZM40.986 165.513L53.8521 171.958L55.9132 182.65L43.7422 176.614L40.986 165.513ZM46.926 189.611L44.1817 178.503L56.2756 184.497L58.3368 195.189L46.926 189.611ZM59.994 196.02L57.9328 185.328L70.092 191.358L71.4642 201.663L59.994 196.02ZM73.062 202.442L71.6899 192.142L83.8906 198.206L84.5738 208.102L73.062 202.442ZM84.6272 187.366L97.6952 193.9V203.404L85.3163 197.268L84.6272 187.366ZM86.13 208.875L85.4351 198.99L97.6952 205.079V214.583L86.13 208.875ZM110.817 221.016L99.198 215.296V205.792L111.512 211.91L110.817 221.016ZM111.625 210.324L99.198 204.152V194.648L112.314 201.224L111.625 210.324ZM112.426 199.632L99.198 193.009V183.546L113.115 190.579L112.426 199.632Z" fill="white"/>
<path d="M143.564 173.395C143.57 173.345 143.57 173.296 143.564 173.246C143.552 173.2 143.536 173.154 143.516 173.11C143.516 173.11 143.516 173.062 143.516 173.038C143.504 173.018 143.488 173 143.469 172.985C143.444 172.944 143.411 172.908 143.374 172.878C143.34 172.843 143.302 172.813 143.261 172.789L143.142 172.73C143.095 172.709 143.045 172.695 142.994 172.688C142.972 172.685 142.95 172.685 142.928 172.688C142.928 172.688 142.881 172.688 142.857 172.688C142.812 172.682 142.766 172.682 142.72 172.688C142.66 172.699 142.602 172.719 142.548 172.747H142.501L113.507 189.486L113.466 189.528C113.417 189.559 113.373 189.597 113.335 189.641C113.306 189.67 113.28 189.701 113.258 189.736C113.235 189.778 113.215 189.821 113.199 189.866C113.176 189.913 113.162 189.963 113.157 190.015C113.154 190.035 113.154 190.055 113.157 190.074L110.745 222.115C110.745 222.115 110.745 222.162 110.745 222.186C110.739 222.235 110.739 222.285 110.745 222.334C110.758 222.383 110.774 222.431 110.793 222.477C110.793 222.477 110.793 222.525 110.793 222.542L110.852 222.626L110.888 222.673C110.947 222.734 111.015 222.786 111.09 222.827H111.126C111.195 222.861 111.269 222.883 111.345 222.893H111.434C111.518 222.892 111.6 222.876 111.678 222.845H111.743H111.809L140.778 206.118C140.778 206.118 140.814 206.083 140.837 206.065C140.879 206.036 140.917 206.002 140.95 205.964C140.981 205.931 141.009 205.895 141.033 205.857C141.058 205.818 141.078 205.776 141.093 205.732C141.11 205.688 141.122 205.642 141.128 205.596C141.131 205.574 141.131 205.552 141.128 205.53L143.57 173.448C143.57 173.448 143.564 173.448 143.564 173.395ZM124.241 185.002L132.337 180.327L131.666 189.237L123.552 193.888L124.241 185.002ZM114.589 190.573L122.685 185.922L122.014 194.832L113.917 199.507L114.589 190.573ZM120.404 216.145L112.314 220.82L112.979 211.91L121.075 207.235L120.404 216.145ZM121.212 205.453L113.115 210.128L113.787 201.218L121.877 196.543L121.212 205.453ZM130.086 210.573L121.99 215.248L122.661 206.338L130.757 201.663L130.086 210.573ZM130.894 199.881L122.798 204.556L123.463 195.646L131.559 190.971L130.894 199.881ZM139.739 204.99L131.613 209.682L132.284 200.772L140.38 196.097L139.739 204.99ZM140.54 194.298L132.42 198.99L133.086 190.08L141.182 185.405L140.54 194.298ZM141.348 183.606L133.222 188.298L133.894 179.388L141.966 174.755L141.348 183.606Z" fill="#0FA968"/>
<path opacity="0.7" d="M143.564 173.395C143.57 173.345 143.57 173.296 143.564 173.246C143.552 173.2 143.536 173.154 143.516 173.11C143.516 173.11 143.516 173.062 143.516 173.038C143.504 173.018 143.488 173 143.469 172.985C143.444 172.944 143.411 172.908 143.374 172.878C143.34 172.843 143.302 172.813 143.261 172.789L143.142 172.73C143.095 172.709 143.045 172.695 142.994 172.688C142.972 172.685 142.95 172.685 142.928 172.688C142.928 172.688 142.881 172.688 142.857 172.688C142.812 172.682 142.766 172.682 142.72 172.688C142.66 172.699 142.602 172.719 142.548 172.747H142.501L113.507 189.486L113.466 189.528C113.417 189.559 113.373 189.597 113.335 189.641C113.306 189.67 113.28 189.701 113.258 189.736C113.235 189.778 113.215 189.821 113.199 189.866C113.176 189.913 113.162 189.963 113.157 190.015C113.154 190.035 113.154 190.055 113.157 190.074L110.745 222.115C110.745 222.115 110.745 222.162 110.745 222.186C110.739 222.235 110.739 222.285 110.745 222.334C110.758 222.383 110.774 222.431 110.793 222.477C110.793 222.477 110.793 222.525 110.793 222.542L110.852 222.626L110.888 222.673C110.947 222.734 111.015 222.786 111.09 222.827H111.126C111.195 222.861 111.269 222.883 111.345 222.893H111.434C111.518 222.892 111.6 222.876 111.678 222.845H111.743H111.809L140.778 206.118C140.778 206.118 140.814 206.083 140.837 206.065C140.879 206.036 140.917 206.002 140.95 205.964C140.981 205.931 141.009 205.895 141.033 205.857C141.058 205.818 141.078 205.776 141.093 205.732C141.11 205.688 141.122 205.642 141.128 205.596C141.131 205.574 141.131 205.552 141.128 205.53L143.57 173.448C143.57 173.448 143.564 173.448 143.564 173.395ZM124.241 185.002L132.337 180.327L131.666 189.237L123.552 193.888L124.241 185.002ZM114.589 190.573L122.685 185.922L122.014 194.832L113.917 199.507L114.589 190.573ZM120.404 216.145L112.314 220.82L112.979 211.91L121.075 207.235L120.404 216.145ZM121.212 205.453L113.115 210.128L113.787 201.218L121.877 196.543L121.212 205.453ZM130.086 210.573L121.99 215.248L122.661 206.338L130.757 201.663L130.086 210.573ZM130.894 199.881L122.798 204.556L123.463 195.646L131.559 190.971L130.894 199.881ZM139.739 204.99L131.613 209.682L132.284 200.772L140.38 196.097L139.739 204.99ZM140.54 194.298L132.42 198.99L133.086 190.08L141.182 185.405L140.54 194.298ZM141.348 183.606L133.222 188.298L133.894 179.388L141.966 174.755L141.348 183.606Z" fill="white"/>
<path d="M187.33 56.0147L185.393 52.3735L186.95 47.8769V45.1445L182.198 47.8947V50.6509L184.247 54.2149C184.281 54.2701 184.33 54.3137 184.389 54.3397L187.33 56.0147Z" fill="#0FA968"/>
<path opacity="0.3" d="M187.33 56.0147L185.393 52.3735L186.95 47.8769V45.1445L182.198 47.8947V50.6509L184.247 54.2149C184.281 54.2701 184.33 54.3137 184.389 54.3397L187.33 56.0147Z" fill="black"/>
<path d="M196.234 25.7333C196.21 25.2396 196.071 24.7583 195.828 24.3281C195.584 23.8979 195.243 23.5308 194.832 23.2564L193.644 22.5733C193.202 22.3479 192.712 22.2305 192.215 22.2305C191.719 22.2305 191.229 22.3479 190.787 22.5733L174.072 32.202C173.656 32.4735 173.31 32.8393 173.062 33.2698C172.815 33.7002 172.672 34.183 172.646 34.679V53.2831C172.674 53.7786 172.817 54.2607 173.065 54.6908C173.312 55.121 173.657 55.4872 174.072 55.76L175.23 56.4313C175.674 56.6566 176.164 56.7741 176.662 56.7741C177.159 56.7741 177.65 56.6566 178.093 56.4313L185.168 52.3683L187.217 55.9323C187.246 55.9837 187.289 56.0256 187.341 56.053C187.393 56.0803 187.452 56.0918 187.511 56.0861C187.569 56.0805 187.625 56.0578 187.671 56.021C187.717 55.9842 187.751 55.9348 187.769 55.8788L189.932 49.6418L194.832 46.8144C195.249 46.5432 195.595 46.1776 195.844 45.7472C196.093 45.3168 196.237 44.8338 196.264 44.3374L196.234 25.7333Z" fill="#0FA968"/>
<path d="M181.36 41.4204C181.374 40.3205 181.606 39.2343 182.043 38.2247C182.444 37.1698 183.154 36.2607 184.081 35.6171C185.477 34.7914 186.641 36.4605 186.825 38.4326C186.991 36.2586 188.132 33.2351 189.528 32.4154C189.832 32.1859 190.212 32.0793 190.592 32.1167C190.971 32.1541 191.323 32.3328 191.577 32.6174C192.078 33.3044 192.326 34.1441 192.278 34.9934C192.278 38.3198 190.294 41.3373 188.619 44.4974L186.837 47.8297L185.055 46.5823C183.392 45.4062 181.378 44.7468 181.36 41.4204Z" fill="#FAFAFA"/>
<path opacity="0.3" d="M172.646 53.2834C172.674 53.7789 172.817 54.2611 173.065 54.6912C173.312 55.1213 173.657 55.4875 174.072 55.7604L175.23 56.4316C175.633 56.6334 176.074 56.7477 176.525 56.7672C176.975 56.7866 177.425 56.7107 177.844 56.5445C177.172 56.7999 176.656 56.4197 176.656 55.606V37.0019C176.673 36.5032 176.816 36.017 177.071 35.5882L173.062 33.2656C172.807 33.6945 172.664 34.1807 172.646 34.6793V53.2834Z" fill="black"/>
<path opacity="0.3" d="M196.186 25.3247C196.02 24.7307 195.462 24.5287 194.802 24.9089L178.093 34.5257C177.67 34.7874 177.324 35.1563 177.089 35.5949L173.068 33.2664C173.308 32.8317 173.653 32.4641 174.072 32.1972L190.775 22.5744C191.22 22.3508 191.711 22.2344 192.21 22.2344C192.708 22.2344 193.199 22.3508 193.644 22.5744L194.832 23.2457C195.186 23.4831 195.489 23.7897 195.721 24.147C195.954 24.5042 196.112 24.9048 196.186 25.3247Z" fill="white"/>
<path d="M167.989 145.61C167.398 145.24 166.72 145.035 166.023 145.016C165.825 144.99 165.623 145.002 165.429 145.051C165.335 145.081 165.25 145.136 165.185 145.21C165.12 145.285 165.077 145.376 165.061 145.473C164.667 145.127 164.159 144.939 163.634 144.945C163.11 144.952 162.607 145.153 162.221 145.509L163.13 147.077C163.975 147.757 164.972 148.224 166.035 148.437C166.538 148.559 167.064 148.559 167.567 148.437C167.819 148.373 168.052 148.25 168.247 148.079C168.442 147.907 168.594 147.692 168.69 147.451C168.779 147.109 168.759 146.748 168.634 146.418C168.508 146.088 168.283 145.806 167.989 145.61Z" fill="#F28F8F"/>
<path d="M177.992 98.3203C174.09 99.6212 171.458 99.5618 167.051 104.712C162.893 109.529 159.121 114.174 156.127 117.976C153.995 120.684 153.662 122.068 155.664 125.508C157.327 128.371 165.494 139.235 166.243 139.983C166.629 140.37 166.243 142.163 166.166 143.274C166.088 144.385 166.552 145.419 166.433 146.286C166.213 147.997 165.684 148.068 164.514 146.999C163.095 145.722 161.758 144.581 161.342 146.185C161.253 146.523 163.932 149.458 164.479 150.087C165.429 151.174 167.633 151.02 169.866 150.087C172.1 149.155 173.965 147.593 174.256 145.335C174.547 143.078 174.939 140.393 173.341 137.94C171.458 135.041 165.5 122.389 165.5 122.389L176.454 111.905L177.992 98.3203Z" fill="#FFA8A7"/>
<path d="M174.791 98.3203C171.975 99.0569 171.85 98.9143 166.819 104.492C163.507 108.229 160.404 112.145 157.523 116.223C159.562 116.264 161.539 116.927 163.19 118.124C166.213 120.174 166.338 121.593 166.338 121.593L177.766 111.751L174.791 98.3203Z" fill="#37474F"/>
<path d="M172.61 225.776C172.45 223.4 171.019 199.527 171.019 199.527L182.732 208.123C180.867 221.785 180.131 225.45 180.059 227.725C180.109 227.918 180.129 228.119 180.119 228.319C180.083 231.021 176.935 232.447 174.47 234.229C172.375 235.802 170.149 237.193 167.817 238.387C166.035 239.242 162.429 239.284 161.99 238.161C164.989 235.981 168.452 233.599 170.846 231.093C171.987 229.881 172.806 228.621 172.61 225.776Z" fill="#FFA8A7"/>
<path d="M156.893 240.994C156.739 240.994 156.489 242.627 157.315 243.334C158.259 244.148 161.051 245.496 164.764 245.069C168.476 244.641 170.478 243.542 171.993 242.354C173.507 241.166 175.586 239.473 177.267 239.135C178.83 238.814 180.529 238.143 181.033 237.679C181.538 237.216 181.491 235.125 181.491 235.125L156.893 240.994Z" fill="#263238"/>
<path d="M180.095 227.062C180.229 227.07 180.357 227.123 180.457 227.212C180.558 227.302 180.625 227.423 180.647 227.556C180.76 228.15 180.861 229.807 181.099 230.751C181.465 232.418 181.571 234.131 181.414 235.83C181.194 236.899 178.652 237.612 177.018 238.206C175.105 238.998 173.321 240.071 171.725 241.39C169.943 242.774 166.29 244.188 163.873 244.146C161.016 244.098 157.802 243.16 157.077 241.859C156.18 240.249 156.911 239.335 161.17 237.463C161.972 237.107 164.811 235.509 165.78 234.927C168.393 233.359 170.989 231.167 172.218 228.357C172.312 228.012 172.522 227.71 172.812 227.502C173.074 227.394 173.363 227.371 173.638 227.437C174.343 227.54 175.028 227.75 175.67 228.06C176.264 228.328 177.042 228.654 177.018 229.355C177.004 229.603 176.947 229.846 176.852 230.074C176.804 230.217 176.757 230.413 176.887 230.502C177.018 230.591 177.172 230.502 177.285 230.395C177.709 229.987 178.096 229.544 178.444 229.07C178.642 228.824 178.869 228.603 179.121 228.411C179.373 228.274 179.617 228.124 179.851 227.959C180.137 227.704 180.077 227.395 180.095 227.062Z" fill="#37474F"/>
<path d="M171.725 241.385C172.474 240.791 173.264 240.233 174.06 239.728C174.06 239.728 169.041 242.633 167.039 241.266C165.75 240.387 166.379 239.348 166.445 239.009C166.51 238.671 163.291 237.227 162.031 237.043C161.681 237.233 161.384 237.382 161.2 237.465C156.941 239.336 156.21 240.251 157.107 241.86C157.832 243.161 160.154 244.195 163.849 244.236C166.237 244.254 169.973 242.769 171.725 241.385Z" fill="#455A64"/>
<path d="M166.771 238.028C164.128 239.032 165.245 239.519 165.981 239.632C166.718 239.744 171.185 237.256 173.911 235.2C176.757 233.056 178.562 230.692 179.62 229.902C180.012 229.611 180.439 229.248 180.808 228.91C180.742 228.346 180.695 227.829 180.641 227.556C180.619 227.423 180.552 227.302 180.451 227.212C180.351 227.123 180.223 227.07 180.089 227.062C180.089 227.395 180.13 227.704 179.869 227.954C179.634 228.118 179.39 228.268 179.139 228.405C178.887 228.597 178.66 228.818 178.461 229.064C178.114 229.538 177.726 229.981 177.303 230.389C174.981 233.216 169.421 237.006 166.771 238.028Z" fill="#263238"/>
<path d="M166.171 239.258C166.22 239.257 166.266 239.244 166.307 239.218C166.348 239.193 166.381 239.156 166.402 239.113C166.424 239.071 166.433 239.022 166.429 238.975C166.425 238.927 166.408 238.881 166.379 238.842C165.756 238.204 165.006 237.705 164.177 237.376C163.348 237.048 162.459 236.898 161.568 236.935C161.532 236.935 161.497 236.943 161.464 236.957C161.431 236.972 161.401 236.993 161.377 237.019C161.353 237.046 161.335 237.078 161.324 237.112C161.313 237.146 161.309 237.182 161.313 237.218C161.316 237.253 161.328 237.288 161.346 237.319C161.364 237.35 161.388 237.377 161.417 237.398C161.446 237.419 161.48 237.434 161.515 237.441C161.55 237.448 161.586 237.448 161.621 237.44C162.426 237.414 163.228 237.553 163.977 237.85C164.726 238.146 165.406 238.593 165.975 239.163C165.999 239.192 166.029 239.215 166.063 239.232C166.097 239.248 166.134 239.257 166.171 239.258Z" fill="#F0F0F0"/>
<path d="M168.488 237.902C168.536 237.902 168.583 237.888 168.624 237.862C168.665 237.837 168.697 237.801 168.719 237.758C168.74 237.715 168.75 237.667 168.746 237.619C168.742 237.571 168.724 237.525 168.696 237.486C168.072 236.849 167.322 236.351 166.493 236.022C165.664 235.694 164.775 235.543 163.885 235.58C163.816 235.586 163.753 235.618 163.709 235.671C163.664 235.723 163.642 235.79 163.647 235.859C163.656 235.926 163.691 235.987 163.744 236.029C163.797 236.072 163.865 236.091 163.932 236.085C164.736 236.061 165.537 236.201 166.285 236.496C167.034 236.791 167.715 237.235 168.286 237.801C168.311 237.831 168.342 237.856 168.376 237.873C168.411 237.89 168.449 237.9 168.488 237.902Z" fill="#F0F0F0"/>
<path d="M170.799 236.621C170.847 236.621 170.894 236.607 170.934 236.581C170.975 236.556 171.008 236.52 171.03 236.477C171.051 236.434 171.06 236.386 171.056 236.338C171.052 236.29 171.035 236.244 171.007 236.205C170.384 235.568 169.633 235.068 168.804 234.74C167.975 234.411 167.086 234.261 166.195 234.299C166.161 234.301 166.128 234.31 166.098 234.325C166.068 234.341 166.041 234.362 166.019 234.388C165.998 234.414 165.981 234.445 165.972 234.477C165.962 234.51 165.96 234.544 165.964 234.578C165.967 234.611 165.978 234.644 165.994 234.674C166.01 234.703 166.032 234.729 166.059 234.75C166.086 234.771 166.116 234.787 166.149 234.796C166.181 234.805 166.215 234.808 166.249 234.804C167.054 234.777 167.856 234.917 168.605 235.213C169.354 235.509 170.034 235.956 170.603 236.526C170.627 236.554 170.657 236.577 170.691 236.594C170.725 236.61 170.761 236.619 170.799 236.621Z" fill="#F0F0F0"/>
<path d="M172.949 235.148C173.009 235.147 173.067 235.129 173.115 235.094C173.142 235.073 173.165 235.047 173.181 235.018C173.198 234.988 173.208 234.955 173.212 234.922C173.216 234.888 173.213 234.854 173.204 234.821C173.194 234.789 173.178 234.758 173.157 234.732C172.532 234.097 171.781 233.599 170.952 233.271C170.124 232.943 169.236 232.791 168.346 232.825C168.312 232.828 168.279 232.838 168.25 232.854C168.22 232.869 168.193 232.891 168.172 232.917C168.15 232.943 168.134 232.972 168.124 233.005C168.114 233.037 168.111 233.071 168.114 233.104C168.117 233.138 168.127 233.17 168.142 233.2C168.158 233.23 168.18 233.256 168.206 233.278C168.231 233.299 168.261 233.316 168.294 233.326C168.326 233.335 168.36 233.339 168.393 233.336C169.198 233.309 169.999 233.447 170.748 233.742C171.497 234.038 172.178 234.484 172.747 235.053C172.772 235.082 172.803 235.105 172.838 235.122C172.873 235.138 172.911 235.147 172.949 235.148Z" fill="#F0F0F0"/>
<path d="M175.052 233.676C175.081 233.679 175.11 233.676 175.138 233.667C175.166 233.658 175.191 233.642 175.212 233.622C175.24 233.603 175.263 233.578 175.281 233.549C175.299 233.52 175.31 233.488 175.314 233.455C175.319 233.421 175.316 233.387 175.307 233.355C175.298 233.322 175.281 233.292 175.26 233.266C174.25 232.001 171.945 231.145 170.003 231.33C169.967 231.329 169.931 231.337 169.898 231.351C169.866 231.366 169.836 231.387 169.812 231.414C169.788 231.44 169.77 231.472 169.759 231.506C169.748 231.54 169.744 231.576 169.748 231.612C169.751 231.648 169.763 231.682 169.781 231.713C169.799 231.744 169.823 231.771 169.852 231.792C169.881 231.813 169.915 231.828 169.95 231.835C169.985 231.842 170.021 231.842 170.056 231.835C171.803 231.668 173.953 232.429 174.85 233.581C174.873 233.612 174.904 233.636 174.939 233.653C174.974 233.669 175.013 233.677 175.052 233.676Z" fill="#F0F0F0"/>
<path d="M196.43 207.901L207.674 206.594C208.268 214.239 207.93 222.822 208.47 229.991C208.571 231.346 209.593 240.452 209.361 243.273C209.011 247.514 203.885 247.431 203.356 244.984C202.827 242.537 202.316 231.821 202.168 230.728C201.74 226.136 199.453 220.428 197.416 212.314C197.357 211.892 196.525 208.281 196.43 207.901Z" fill="#FFA8A7"/>
<path d="M201.627 246.897C201.776 249.357 202.168 250.984 203.065 252.428C203.962 253.871 205.649 254.317 207.354 253.895C209.058 253.473 211.25 252.344 211.737 250.23C212.177 248.304 212.177 246.304 211.737 244.379L201.627 246.897Z" fill="#263238"/>
<path d="M208.411 229.113C209.112 229.167 209.326 232.463 209.729 235.766C210.169 239.33 211.256 240.768 211.648 243.672C212.094 246.987 211.915 248.472 210.727 250.474C209.539 252.475 205.316 254.447 203.237 251.572C201.538 249.232 201.455 246.636 201.621 243.328C201.813 240.522 201.862 237.709 201.77 234.899C201.633 232.416 201.455 230.01 202.067 229.731C202.114 230.099 202.156 230.563 202.209 230.919C202.263 231.275 202.316 232.541 202.714 232.553C202.744 232.24 202.744 231.926 202.714 231.614C202.673 231.332 202.741 231.045 202.904 230.812C203.122 230.617 203.397 230.498 203.689 230.474C204.378 230.343 205.073 230.224 205.779 230.159C206.129 230.127 206.48 230.113 206.831 230.117C207.133 230.108 207.434 230.15 207.722 230.242C207.806 230.268 207.883 230.311 207.95 230.368C208.016 230.425 208.07 230.495 208.108 230.575C208.14 230.699 208.152 230.827 208.144 230.955C208.143 231.185 208.173 231.415 208.233 231.638C208.233 231.733 208.328 231.852 208.429 231.828C208.53 231.804 208.541 231.709 208.541 231.632C208.541 231.228 208.494 230.937 208.47 230.474C208.47 230.26 208.429 229.963 208.423 229.749C208.417 229.535 208.423 229.321 208.411 229.113Z" fill="#37474F"/>
<path d="M211.464 242.727C211.529 243.208 211.951 246.374 211.066 246.944C210.181 247.514 209.581 245.073 209.581 245.073C209.581 245.073 207.336 244.402 204.069 245.798C204.235 246.308 203.73 248.001 202.833 247.645C201.936 247.288 201.592 243.659 201.586 243.612C201.449 246.784 201.586 249.302 203.213 251.571C205.292 254.446 209.51 252.48 210.704 250.472C211.898 248.465 212.07 246.986 211.624 243.671C211.601 243.338 211.547 243.03 211.464 242.727Z" fill="#455A64"/>
<path d="M209.349 245.288C209.349 246.476 210.579 246.078 210.627 244.385C210.674 242.692 209.724 238.677 209.73 235.766C209.326 232.463 209.136 229.167 208.411 229.113V229.232L208.506 230.913C208.532 231.152 208.546 231.392 208.548 231.632C208.548 234.073 208.922 238.801 209.142 241.035C209.289 242.448 209.358 243.867 209.349 245.288Z" fill="#263238"/>
<path d="M204.467 245.76C204.164 244.372 203.94 242.968 203.795 241.555C203.552 239.339 202.934 234.694 202.453 232.283C202.318 231.839 202.236 231.38 202.209 230.916C202.162 230.584 202.12 230.162 202.073 229.806C202.073 229.806 202.073 229.758 202.073 229.734C201.633 229.942 201.604 231.267 201.675 232.93C201.764 233.886 201.924 235.074 202.144 236.494C202.738 239.351 202.637 243.491 203.035 245.143C203.433 246.794 204.698 246.937 204.467 245.76Z" fill="#263238"/>
<path d="M204.021 245.915C204.052 245.923 204.085 245.923 204.116 245.915C205.816 245.145 207.721 244.953 209.54 245.369C209.572 245.378 209.606 245.38 209.639 245.376C209.672 245.372 209.705 245.362 209.734 245.345C209.763 245.328 209.789 245.306 209.81 245.28C209.83 245.253 209.845 245.223 209.854 245.191C209.871 245.124 209.861 245.055 209.826 244.996C209.792 244.937 209.736 244.894 209.67 244.876C207.726 244.415 205.683 244.624 203.873 245.47C203.843 245.484 203.816 245.505 203.794 245.53C203.772 245.555 203.756 245.584 203.746 245.616C203.736 245.648 203.733 245.681 203.736 245.714C203.739 245.747 203.75 245.779 203.766 245.808C203.794 245.849 203.832 245.88 203.878 245.899C203.923 245.918 203.973 245.924 204.021 245.915Z" fill="#F0F0F0"/>
<path d="M203.433 243.293C203.461 243.299 203.489 243.299 203.516 243.293C205.437 242.501 207.549 242.295 209.587 242.699C209.654 242.714 209.724 242.702 209.782 242.667C209.841 242.631 209.884 242.575 209.902 242.509C209.916 242.443 209.903 242.374 209.866 242.317C209.83 242.26 209.772 242.22 209.706 242.206C207.551 241.768 205.314 241.994 203.291 242.854C203.26 242.867 203.232 242.886 203.209 242.911C203.186 242.936 203.168 242.965 203.157 242.997C203.146 243.029 203.141 243.062 203.144 243.096C203.146 243.13 203.156 243.162 203.172 243.192C203.201 243.233 203.241 243.264 203.287 243.282C203.334 243.3 203.385 243.304 203.433 243.293Z" fill="#F0F0F0"/>
<path d="M209.415 240.185C209.465 240.182 209.513 240.164 209.552 240.133C209.591 240.102 209.62 240.06 209.635 240.012C209.646 239.981 209.65 239.947 209.648 239.914C209.646 239.881 209.637 239.848 209.622 239.818C209.607 239.788 209.587 239.762 209.561 239.74C209.536 239.718 209.506 239.702 209.474 239.692C206.314 238.652 203.202 240.214 203.071 240.286C203.04 240.3 203.013 240.321 202.99 240.346C202.968 240.372 202.951 240.401 202.94 240.434C202.93 240.466 202.926 240.5 202.929 240.534C202.932 240.568 202.942 240.6 202.958 240.63C202.991 240.69 203.046 240.735 203.111 240.755C203.177 240.775 203.248 240.769 203.308 240.737C203.344 240.737 206.368 239.205 209.302 240.179C209.339 240.189 209.377 240.191 209.415 240.185Z" fill="#F0F0F0"/>
<path d="M209.231 237.854C209.279 237.85 209.325 237.832 209.364 237.803C209.403 237.773 209.433 237.734 209.45 237.688C209.462 237.657 209.467 237.623 209.465 237.59C209.463 237.556 209.455 237.523 209.441 237.493C209.427 237.462 209.406 237.435 209.381 237.413C209.357 237.39 209.328 237.373 209.296 237.361C208.224 237.01 207.091 236.881 205.968 236.983C204.844 237.085 203.753 237.416 202.762 237.955C202.733 237.973 202.708 237.995 202.688 238.022C202.668 238.049 202.653 238.08 202.645 238.112C202.636 238.145 202.635 238.179 202.639 238.212C202.644 238.245 202.656 238.277 202.673 238.306C202.711 238.364 202.77 238.405 202.837 238.421C202.905 238.436 202.976 238.425 203.035 238.389C203.963 237.9 204.979 237.602 206.024 237.512C207.068 237.423 208.12 237.543 209.118 237.866C209.156 237.871 209.194 237.867 209.231 237.854Z" fill="#F0F0F0"/>
<path d="M209.017 235.223C209.065 235.219 209.11 235.202 209.149 235.174C209.188 235.146 209.218 235.107 209.236 235.063C209.249 235.031 209.254 234.998 209.253 234.964C209.252 234.93 209.244 234.897 209.229 234.866C209.215 234.836 209.194 234.809 209.169 234.786C209.144 234.764 209.114 234.747 209.082 234.736C205.827 233.548 202.637 235.3 202.501 235.372C202.471 235.388 202.445 235.411 202.425 235.437C202.404 235.464 202.389 235.495 202.38 235.527C202.371 235.56 202.369 235.594 202.373 235.627C202.378 235.661 202.389 235.693 202.405 235.722C202.441 235.781 202.498 235.823 202.565 235.841C202.631 235.859 202.702 235.85 202.762 235.817C202.762 235.817 205.88 234.107 208.898 235.223C208.937 235.232 208.978 235.232 209.017 235.223Z" fill="#EBEBEB"/>
<path d="M200.018 130.918C202.269 135.938 204.698 139.454 204.995 148.917C205.625 169.029 205.411 183.553 205.411 183.553C205.548 185.335 206.474 187.925 207.716 197.06C208.755 204.717 208.542 216.502 208.542 216.502C208.542 216.502 203.285 219.199 198.444 217.268C196.501 210.734 193.032 193.645 190.912 184.889C188.987 176.942 187.08 165.287 187.08 165.287L184.021 184.978C184.021 184.978 184.615 192.873 184.342 197.518C184.033 202.923 181.455 218.088 181.455 218.088C181.455 218.088 176.068 220.393 171.886 217.369C171.886 217.369 169.801 190.164 169.753 183.648C169.652 170.877 168.957 143.963 171.226 130.598L200.018 130.918Z" fill="#37474F"/>
<path d="M208.797 214.594C206.813 215.782 200.523 216.601 197.826 215.621L198.592 218.71C198.592 218.71 199.816 219.554 203.534 219.346C207.253 219.138 208.696 217.635 208.696 217.635L208.797 214.594Z" fill="#455A64"/>
<path d="M181.996 215.462C179.869 216.412 174.024 216.418 171.476 215.105L171.826 218.266C171.826 218.266 172.694 219.454 176.418 219.519C180.142 219.584 181.497 218.468 181.497 218.468L181.996 215.462Z" fill="#455A64"/>
<path d="M187.057 165.305L184.799 151.097C184.799 151.097 176.103 150.093 172.919 147.129C172.919 147.129 176.911 152.617 182.815 153.508L185.328 165.287L184.033 184.83L187.057 165.305Z" fill="#263238"/>
<path d="M198.087 127.246L200.261 113.917C200.261 113.917 196.216 108.108 197.131 98.9363C194.577 97.8849 191.535 97.6473 191.642 95.8594L181.544 97.4929C179.287 99.8689 174.612 101.835 172.29 105.809C169.45 110.626 169.391 115.188 172.254 118.52C172.403 121.841 171.767 132.646 171.767 132.646C181.93 139.518 199.548 133.917 199.548 133.917C198.675 131.404 197.891 129.575 198.087 127.246Z" fill="#FFA8A7"/>
<path d="M191.5 93.062C191.589 91.4404 194.268 89.8247 196.555 87.3477C199.738 83.9085 201.479 77.7903 196.697 73.3056C195.622 66.1776 187.276 64.455 180.475 66.1241C176.394 67.122 172.628 69.8663 171.203 73.8461C170.175 76.7151 170.187 80.2969 172.165 82.9759C171.926 81.9766 171.939 80.9339 172.201 79.9405C172.334 80.4139 172.534 80.8659 172.795 81.283C172.929 81.4861 173.104 81.6594 173.309 81.7922C173.513 81.925 173.742 82.0145 173.983 82.0552C174.482 82.0968 174.779 81.8176 175.218 81.675C175.658 81.5325 175.658 81.5978 176.026 81.8651C176.394 82.1324 176.911 82.5066 177.357 82.8274L180.475 85.0905L187.057 89.8425C187.348 90.0504 191.5 93.1452 191.5 93.062Z" fill="#263238"/>
<path d="M204.793 85.7441C204.122 86.1361 203.433 85.9163 202.661 86.2014C201.722 86.5578 201.289 87.6627 200.427 88.1794C199.632 88.5552 198.728 88.6353 197.879 88.4052C197.395 88.3602 196.934 88.1789 196.549 87.8824C196.344 87.683 196.175 87.45 196.05 87.1934C195.561 86.2354 195.217 85.2106 195.028 84.1521C194.79 83.0117 194.404 82.0791 194.517 80.8673C194.571 80.2733 194.695 79.6793 194.719 79.115C194.771 78.5241 194.625 77.9327 194.303 77.434C193.806 76.9186 193.221 76.4962 192.575 76.1866C192.041 75.8643 191.615 75.3909 191.351 74.8263C191.097 74.0547 191.097 73.222 191.351 72.4503C191.692 70.9763 192.478 69.6429 193.602 68.6309C194.164 68.1342 194.826 67.7658 195.544 67.5514C196.263 67.337 197.019 67.2818 197.76 67.3894C198.72 67.5667 199.586 68.0756 200.208 68.8269C200.528 69.1876 200.758 69.6192 200.879 70.0862C200.905 70.5832 200.997 71.0745 201.152 71.5474C201.49 72.1217 202.034 72.5463 202.673 72.7354C203.304 72.9193 203.92 73.1537 204.514 73.4364C205.16 73.8562 205.702 74.4167 206.1 75.0758C206.453 75.5576 206.717 76.0988 206.878 76.6737C206.957 76.9625 206.976 77.2646 206.933 77.5609C206.89 77.8573 206.786 78.1417 206.629 78.3963C206.302 78.8833 205.738 79.1685 205.381 79.6377C205.085 80.03 204.953 80.522 205.013 81.0099C205.12 81.8652 205.791 82.5602 205.928 83.3859C205.974 83.7842 205.921 84.1878 205.774 84.5609C205.627 84.9339 205.39 85.2648 205.084 85.5243C204.994 85.6056 204.896 85.6791 204.793 85.7441Z" fill="#263238"/>
<path d="M193.204 88.6117C193.873 88.5576 194.514 88.3213 195.058 87.9286C196.543 86.8951 196.929 84.6497 196.192 83.0578C195.693 81.9767 193.935 81.4421 193.044 82.3628C192.581 82.8321 192.343 84.4003 191.422 84.0973C190.793 83.8894 190.876 82.9984 190.828 82.4816C190.475 79.7433 189.164 77.2183 187.128 75.3536C186.243 74.4914 185.219 73.7845 184.098 73.2627C183.151 72.7942 182.101 72.5735 181.045 72.6212C180.392 72.7251 179.77 72.9704 179.222 73.34C178.88 72.9414 178.424 72.6573 177.915 72.5262C176.365 72.1104 175.016 73.5479 174.464 74.8487C173.484 77.1594 173.49 79.9215 173.49 82.3807C173.49 87.0792 174.369 90.1026 176.299 92.1401C177.19 93.0726 179.269 93.8092 181.515 93.6785L181.562 96.5772C181.562 96.5772 178.432 99.8086 179.839 103.367C182.009 103.168 184.14 102.66 186.166 101.858C190.692 99.8621 191.607 97.8781 191.607 97.8781L191.815 87.7088V87.7623C191.927 88.0327 192.122 88.2605 192.371 88.4131C192.621 88.5658 192.913 88.6353 193.204 88.6117Z" fill="#FFA8A7"/>
<path d="M185.411 70.3848C187.787 70.5511 189.646 71.7688 191.143 73.6934C192.771 75.7962 193.697 78.6236 192.83 81.2016C192.714 81.6561 192.471 82.0681 192.129 82.3896C191.905 82.5656 191.622 82.65 191.337 82.6257C191.053 82.6015 190.788 82.4704 190.597 82.2589C190.005 81.6191 189.55 80.8651 189.26 80.0433C189.264 81.121 189.513 82.1837 189.991 83.1499C188.897 82.9329 187.92 82.3221 187.247 81.4332C186.023 79.8057 186.017 77.5663 185.09 75.7546C183.855 73.3786 182.281 71.8282 179.216 73.3786C179.216 73.3608 179.216 69.9571 185.411 70.3848Z" fill="#263238"/>
<path d="M182.613 80.8778C182.579 81.1401 182.648 81.4055 182.805 81.6182C182.962 81.8309 183.196 81.9743 183.457 82.0182C183.584 82.042 183.715 82.0397 183.841 82.0115C183.967 81.9833 184.086 81.9299 184.191 81.8544C184.296 81.7789 184.384 81.6829 184.451 81.5722C184.518 81.4615 184.562 81.3384 184.58 81.2104C184.614 80.9481 184.545 80.6826 184.388 80.4699C184.231 80.2572 183.997 80.1138 183.736 80.0699C183.609 80.0471 183.479 80.05 183.353 80.0785C183.227 80.107 183.108 80.1605 183.004 80.2359C182.899 80.3113 182.81 80.4069 182.743 80.5172C182.676 80.6275 182.632 80.7501 182.613 80.8778Z" fill="#263238"/>
<path d="M174.85 78.3313L177.089 77.5591C177.046 77.4114 176.974 77.2739 176.876 77.155C176.778 77.036 176.657 76.9381 176.521 76.867C176.384 76.796 176.235 76.7533 176.081 76.7416C175.928 76.7299 175.774 76.7493 175.628 76.7988C175.327 76.9057 175.078 77.1244 174.933 77.4096C174.788 77.6948 174.758 78.0248 174.85 78.3313Z" fill="#263238"/>
<path d="M182.952 77.6481L185.019 78.8005C185.101 78.6695 185.156 78.5231 185.179 78.3703C185.203 78.2175 185.195 78.0614 185.156 77.9118C185.117 77.7622 185.048 77.6221 184.953 77.5001C184.858 77.3782 184.739 77.2769 184.603 77.2026C184.324 77.0495 183.996 77.0104 183.688 77.0934C183.38 77.1765 183.117 77.3752 182.952 77.6481Z" fill="#263238"/>
<path d="M183.35 86.6836L179.703 88.2042C179.81 88.4584 179.969 88.6874 180.169 88.8767C180.37 89.066 180.608 89.2114 180.868 89.3036C181.128 89.3958 181.404 89.4329 181.679 89.4123C181.954 89.3918 182.222 89.3141 182.465 89.1843C182.689 89.08 182.89 88.9321 183.056 88.7493C183.222 88.5664 183.35 88.3524 183.432 88.1196C183.514 87.8868 183.55 87.6399 183.536 87.3933C183.521 87.1468 183.458 86.9055 183.35 86.6836Z" fill="#B16668"/>
<path d="M181.39 89.3848C181.405 88.8705 181.609 88.3799 181.965 88.008C182.32 87.636 182.801 87.4091 183.314 87.3711C183.38 87.3711 183.439 87.3711 183.504 87.3711C183.543 87.74 183.463 88.1116 183.276 88.432C183.089 88.7524 182.805 89.005 182.465 89.1531C182.131 89.3175 181.762 89.3971 181.39 89.3848Z" fill="#F28F8F"/>
<path d="M175.343 80.7137C175.31 80.9672 175.376 81.2237 175.528 81.4295C175.679 81.6354 175.905 81.7747 176.157 81.8186C176.28 81.8406 176.406 81.8376 176.528 81.8098C176.65 81.782 176.765 81.73 176.866 81.6569C176.968 81.5837 177.053 81.4909 177.118 81.384C177.183 81.2771 177.226 81.1582 177.244 81.0345C177.277 80.7809 177.21 80.5245 177.059 80.3186C176.907 80.1128 176.682 79.9734 176.43 79.9296C176.307 79.9068 176.18 79.9091 176.058 79.9365C175.936 79.964 175.82 80.0159 175.719 80.0892C175.617 80.1625 175.531 80.2556 175.467 80.3629C175.402 80.4703 175.36 80.5896 175.343 80.7137Z" fill="#263238"/>
<path d="M180.071 79.918L179.543 85.953L176.573 85.2165L180.071 79.918Z" fill="#F28F8F"/>
<path d="M181.509 93.6971C183.885 93.4535 188.666 92.5744 190.258 89.5391C190.258 89.5391 189.587 92.0636 188.025 93.1387C186.463 94.2138 181.526 95.0692 181.526 95.0692L181.509 93.6971Z" fill="#F28F8F"/>
<path d="M174.791 98.3203C173.009 98.7598 174.119 101.569 170.692 106.553L181.307 97.5302L181.556 96.5977C181.556 96.5977 177.25 97.7084 174.791 98.3203Z" fill="#37474F"/>
<path d="M173.81 103.387C178.325 99.6391 181.283 97.5898 181.283 97.5898C180.689 99.9658 181.253 101.374 182.435 101.748C183.617 102.122 187.781 101.261 190.187 99.0273L203.219 108.395C202.441 110.688 200.885 114.691 200.463 117.138C200.041 119.586 199.144 124.367 199.424 126.832C199.703 129.298 203.285 136.455 204.081 140.934C204.081 140.934 196.982 147.504 182.958 146.785C171.773 146.191 169.86 141.51 169.86 141.51C169.86 141.51 170.33 133.788 170.508 130.682C170.686 127.575 171.244 121.694 171.244 121.694C171.244 121.694 166.991 117.762 167.936 112.672C168.839 107.819 171.951 104.932 173.81 103.387Z" fill="#0FA968"/>
<path d="M191.66 94.9609C191.464 96.4994 189.878 98.5665 188.5 99.5169C185.53 101.537 183.279 101.893 181.966 101.121C180.653 100.349 181.372 97.8003 181.55 96.5944L180.843 96.7726C180.249 98.0319 179.323 101.655 181.36 102.564C184.182 103.817 189.272 101.608 191.238 99.113C193.204 96.6182 193.288 95.2639 193.288 95.2639C193.003 95.2933 192.717 95.2933 192.432 95.2639C192.166 95.1865 191.908 95.0851 191.66 94.9609Z" fill="#263238"/>
<path d="M218.533 61.249C218.533 63.4527 214.232 77.6315 214.232 77.6315C214.232 77.6315 222.649 82.9062 222.708 82.6865C222.768 82.4667 225.678 63.9398 226.403 61.0352L218.533 61.249Z" fill="#FFA8A7"/>
<path d="M193.412 97.3307C196.222 93.2559 198.218 92.1689 200.6 91.1769C202.982 90.1849 211.886 84.1321 211.886 84.1321L216.044 69.9414L224.182 74.0994C224.182 74.0994 222.601 87.8386 221.514 89.7275C220.427 91.6165 214.285 97.598 209.605 102.534C206.367 105.95 203.344 109.395 201.811 112.365C201.402 113.167 200.439 114.919 199.275 114.628C197.493 114.171 195.592 109.359 194.731 106.579C193.743 103.6 193.296 100.468 193.412 97.3307Z" fill="#37474F"/>
<path d="M195.622 94.5117C193.032 95.9136 191.66 94.9632 191.66 94.9632C191.66 94.9632 191.838 98.4737 189.427 100C189.427 100 194.535 111.381 198.509 114.221C202.483 117.06 195.622 94.5117 195.622 94.5117Z" fill="#37474F"/>
<path d="M218.533 61.2472C218.491 57.2317 219.471 55.123 221.324 53.3173C221.604 53.044 221.746 52.4738 221.918 52.2243C222.091 49.9255 218.948 45.9992 221.194 45.3042C223.849 44.4786 224.692 45.3042 226.278 46.4031C227.864 47.502 232.111 50.1572 230.223 53.6915C228.334 57.2258 227.336 57.7842 226.237 61.5382C224.894 66.1417 218.533 61.2472 218.533 61.2472Z" fill="#FFA8A7"/>
<path d="M222.94 70.4959H222.97C222.998 70.4872 223.023 70.473 223.046 70.4541C223.068 70.4353 223.086 70.4122 223.1 70.3862C223.113 70.3602 223.121 70.3319 223.123 70.3028C223.125 70.2737 223.122 70.2444 223.112 70.2168C223.112 70.2168 222.316 67.8408 220.499 61.8117C218.865 56.4063 219.697 55.4737 220.653 54.3926C220.686 54.3485 220.7 54.294 220.694 54.2396C220.689 54.1853 220.663 54.135 220.622 54.0986C220.581 54.0623 220.528 54.0424 220.474 54.043C220.419 54.0435 220.367 54.0644 220.327 54.1015C219.109 55.4677 218.491 56.6795 220.077 61.9364C221.901 67.9596 222.685 70.3356 222.691 70.3593C222.711 70.4066 222.747 70.4457 222.792 70.4704C222.837 70.4952 222.889 70.5041 222.94 70.4959Z" fill="#263238"/>
<path d="M237.814 110.614L254.137 89.2417L237.98 54.7422L222.833 74.6352L237.814 110.614Z" fill="#0FA968"/>
<path opacity="0.15" d="M237.814 110.614L254.137 89.2417L237.98 54.7422L222.833 74.6352L237.814 110.614Z" fill="white"/>
<path opacity="0.2" d="M237.814 110.614L254.137 89.2417L237.98 54.7422L222.833 74.6352L237.814 110.614Z" fill="white"/>
<path d="M222.833 74.6352L220.796 72.0156L216.715 73.7263L224.401 109.034L237.814 110.614L222.833 74.6352Z" fill="#0FA968"/>
<path opacity="0.55" d="M222.833 74.6352L220.796 72.0156L216.715 73.7263L224.401 109.034L237.814 110.614L222.833 74.6352Z" fill="white"/>
<path opacity="0.2" d="M224.401 109.036L230.211 107.058L222.334 79.4844L231.975 107.123L237.814 110.616L224.401 109.036Z" fill="#0FA968"/>
<path opacity="0.05" d="M224.401 109.036L230.211 107.058L222.334 79.4844L231.975 107.123L237.814 110.616L224.401 109.036Z" fill="black"/>
<path d="M237.98 54.7439L233.816 55.9378L232.462 54.043L216.715 73.7281L220.796 72.0174L222.833 74.6369L237.98 54.7439Z" fill="#0FA968"/>
<path opacity="0.1" d="M237.98 54.7439L233.816 55.9378L232.462 54.043L216.715 73.7281L220.796 72.0174L222.833 74.6369L237.98 54.7439Z" fill="white"/>
<path opacity="0.05" d="M237.98 54.7439L233.816 55.9378L232.462 54.043L216.715 73.7281L220.796 72.0174L222.833 74.6369L237.98 54.7439Z" fill="black"/>
<path opacity="0.15" d="M233.816 55.9361L234.981 58.6982L237.98 54.7422L233.816 55.9361Z" fill="black"/>
<path d="M227.995 73.6556C228.014 73.6616 228.035 73.6616 228.054 73.6556C228.081 73.6441 228.105 73.6273 228.125 73.6062C228.145 73.5852 228.16 73.5603 228.17 73.533C228.18 73.5058 228.185 73.4768 228.183 73.4479C228.182 73.4189 228.174 73.3906 228.161 73.3645C228.132 73.2992 225.138 67.0503 223.409 63.2665C221.716 59.6194 219.62 55.099 221.188 53.6497C221.224 53.6088 221.243 53.5562 221.242 53.5019C221.241 53.4476 221.221 53.3955 221.184 53.3556C221.147 53.3158 221.096 53.291 221.042 53.2861C220.988 53.2811 220.934 53.2964 220.891 53.3289C219.109 54.9981 221.164 59.4768 222.999 63.4269C224.781 67.2226 227.751 73.4715 227.781 73.5249C227.799 73.5664 227.829 73.6014 227.867 73.6249C227.905 73.6483 227.95 73.6591 227.995 73.6556Z" fill="#263238"/>
<path d="M230.027 74.0235C230.048 74.0293 230.071 74.0293 230.092 74.0235C230.143 73.9959 230.181 73.9491 230.198 73.8934C230.214 73.8378 230.208 73.7778 230.181 73.7265C230.145 73.6671 226.872 67.7093 224.502 63.0345C224.271 62.5712 224.021 62.096 223.772 61.6089C222.037 58.2766 220.077 54.4809 221.431 53.2395C221.472 53.1983 221.495 53.1429 221.495 53.085C221.495 53.0272 221.472 52.9717 221.431 52.9306C221.39 52.89 221.335 52.8672 221.277 52.8672C221.219 52.8672 221.164 52.89 221.123 52.9306C219.519 54.4156 221.473 58.1816 223.368 61.8406C223.617 62.3277 223.867 62.8029 224.098 63.2662C226.474 67.935 229.753 73.9047 229.783 73.9582C229.812 73.9928 229.851 74.0176 229.894 74.0293C229.938 74.041 229.984 74.039 230.027 74.0235Z" fill="#263238"/>
<path d="M256.163 105.517L272.135 81.6856L244.003 54.9141L231.975 71.3441L256.163 105.517Z" fill="#37474F"/>
<path d="M225.417 73.5478L239.632 55.4011L241.372 56.0189L244.003 54.9141L231.975 71.3441L230.021 71.6173L225.417 73.5478Z" fill="black"/>
<path d="M231.975 71.3438L230.021 71.617L225.417 73.5475L242.714 111.16L256.163 105.517L231.975 71.3438Z" fill="#455A64"/>
<path d="M256.163 105.519L247.561 104.087L234.707 82.3945L246.142 105.05L242.714 111.162L256.163 105.519Z" fill="#37474F"/>
<path d="M237.131 69.4164C237.156 69.4147 237.181 69.4074 237.204 69.3951C237.227 69.3828 237.246 69.3658 237.261 69.3452C237.302 69.304 237.325 69.2485 237.325 69.1907C237.325 69.1329 237.302 69.0774 237.261 69.0363C237.155 68.9472 226.676 60.0847 224.586 58.1007C222.804 56.4138 220.873 54.1209 221.675 52.7547C221.704 52.704 221.712 52.6442 221.697 52.5877C221.683 52.5313 221.647 52.4826 221.598 52.4518C221.573 52.436 221.545 52.4254 221.516 52.4207C221.487 52.416 221.458 52.4174 221.429 52.4246C221.401 52.4318 221.374 52.4448 221.351 52.4628C221.328 52.4808 221.309 52.5033 221.295 52.529C220.534 53.8239 221.538 55.802 224.265 58.4096C226.368 60.4055 236.852 69.2739 236.959 69.363C236.982 69.3833 237.009 69.3985 237.039 69.4077C237.069 69.4169 237.1 69.4198 237.131 69.4164Z" fill="#263238"/>
<path d="M237.731 67.9886C237.784 67.9795 237.832 67.9522 237.867 67.9114C237.901 67.8644 237.916 67.8061 237.908 67.7486C237.901 67.6911 237.871 67.6388 237.826 67.6025C237.713 67.5134 226.54 58.8172 224.461 56.8333C222.382 54.8493 221.176 53.5663 221.901 52.3308C221.916 52.3058 221.925 52.2782 221.93 52.2494C221.934 52.2207 221.932 52.1913 221.925 52.1632C221.918 52.135 221.905 52.1085 221.888 52.0853C221.87 52.062 221.848 52.0425 221.823 52.0278C221.772 51.9996 221.712 51.9925 221.655 52.0081C221.598 52.0236 221.55 52.0605 221.52 52.111C220.564 53.7385 222.233 55.3186 224.158 57.154C226.261 59.1499 237.095 67.5906 237.558 67.947C237.582 67.9666 237.61 67.9805 237.64 67.9877C237.67 67.9949 237.701 67.9952 237.731 67.9886Z" fill="#263238"/>
<path d="M234.066 69.4937L259.94 103.073L271.583 94.4773L237.137 65.9297L234.066 69.4937Z" fill="#0FA968"/>
<path opacity="0.15" d="M234.066 69.4937L259.94 103.073L271.583 94.4773L237.137 65.9297L234.066 69.4937Z" fill="black"/>
<path opacity="0.15" d="M259.94 103.072L262.524 96.597L246.142 78.8008L263.896 95.5635L271.583 94.4764L259.94 103.072Z" fill="black"/>
<path d="M271.583 94.4742L277.44 69.7519L247.847 50.043L237.137 65.9265L271.583 94.4742Z" fill="#0FA968"/>
<path d="M241.877 64.6273C241.952 64.6674 242.035 64.6879 242.12 64.6871C242.205 64.6863 242.288 64.6642 242.362 64.6228C242.436 64.5814 242.498 64.522 242.543 64.4501C242.588 64.3782 242.614 64.2962 242.619 64.2115C242.603 64.0166 242.54 63.8283 242.437 63.6621C242.334 63.4959 242.193 63.3565 242.025 63.2552C241.951 63.2151 241.867 63.1945 241.782 63.1953C241.697 63.1961 241.614 63.2183 241.54 63.2597C241.466 63.3011 241.404 63.3605 241.359 63.4324C241.314 63.5043 241.288 63.5863 241.283 63.671C241.301 63.8655 241.364 64.0532 241.467 64.2192C241.57 64.3852 241.71 64.5249 241.877 64.6273Z" fill="black"/>
<path d="M246.985 57.7289C247.06 57.7689 247.144 57.7895 247.228 57.7887C247.313 57.7879 247.396 57.7658 247.47 57.7244C247.544 57.6829 247.607 57.6235 247.652 57.5516C247.697 57.4798 247.723 57.3977 247.728 57.3131C247.716 57.117 247.655 56.927 247.551 56.7601C247.448 56.5932 247.304 56.4546 247.134 56.3567C247.059 56.3167 246.975 56.2961 246.891 56.2969C246.806 56.2977 246.723 56.3198 246.649 56.3612C246.575 56.4027 246.512 56.4621 246.467 56.5339C246.422 56.6058 246.396 56.6879 246.391 56.7725C246.409 56.9672 246.472 57.1551 246.575 57.3211C246.678 57.4872 246.819 57.6268 246.985 57.7289Z" fill="black"/>
<path d="M241.883 64.1527C241.919 64.1466 241.954 64.1315 241.983 64.1087C242.012 64.0858 242.035 64.056 242.049 64.022C242.072 63.969 242.073 63.9093 242.054 63.8552C242.034 63.8011 241.994 63.7566 241.942 63.7309C241.817 63.6953 229.676 58.2127 226.908 57.0247C224.675 56.0862 222.227 54.5418 221.812 53.2171C221.758 53.0686 221.74 52.9098 221.759 52.7531C221.778 52.5965 221.832 52.4463 221.918 52.3143C221.948 52.2643 221.957 52.2049 221.943 52.1485C221.93 52.0921 221.896 52.043 221.847 52.0113C221.798 51.98 221.739 51.9693 221.682 51.9815C221.625 51.9937 221.576 52.028 221.544 52.0767C221.424 52.263 221.348 52.4746 221.322 52.695C221.296 52.9153 221.321 53.1387 221.396 53.3478C221.883 54.9041 224.58 56.5198 226.742 57.4286C229.516 58.6166 241.651 64.0755 241.776 64.1289C241.809 64.1453 241.846 64.1534 241.883 64.1527Z" fill="#263238"/>
<path d="M242.477 61.6105C242.461 61.6363 242.439 61.6581 242.413 61.6746C242.387 61.691 242.358 61.7016 242.328 61.7056C242.276 61.722 242.22 61.722 242.168 61.7056L230.211 53.7281V53.6925C230.275 53.5733 230.333 53.4503 230.383 53.3242L242.394 61.3076C242.42 61.3212 242.443 61.34 242.462 61.3629C242.48 61.3859 242.494 61.4124 242.501 61.4409C242.509 61.4693 242.511 61.4991 242.507 61.5283C242.503 61.5575 242.492 61.5855 242.477 61.6105Z" fill="#263238"/>
<path d="M243.023 60.4701C243.008 60.4986 242.986 60.5229 242.959 60.5406C242.932 60.5582 242.901 60.5687 242.869 60.571C242.82 60.5851 242.769 60.5851 242.72 60.571L230.413 53.3124C230.47 53.1753 230.517 53.0343 230.555 52.8906L242.946 60.1671C242.972 60.1812 242.994 60.2004 243.012 60.2236C243.03 60.2468 243.043 60.2734 243.05 60.3018C243.058 60.3302 243.059 60.3598 243.054 60.3888C243.05 60.4177 243.039 60.4454 243.023 60.4701Z" fill="#263238"/>
<path d="M234.22 63.6988C234.195 63.7139 234.166 63.724 234.137 63.7285C234.095 63.7356 234.052 63.7304 234.013 63.7135C233.974 63.6966 233.941 63.6688 233.917 63.6334L228.904 55.953L229.159 55.5312L234.285 63.3958C234.317 63.4447 234.328 63.504 234.315 63.5608C234.303 63.6175 234.269 63.6671 234.22 63.6988Z" fill="#263238"/>
<path d="M235.099 62.7316C235.07 62.7529 235.035 62.7653 234.998 62.7672C234.959 62.7754 234.919 62.7719 234.882 62.7571C234.845 62.7423 234.813 62.7169 234.79 62.6841L229.314 55.2828C229.397 55.1462 229.474 55.0096 229.557 54.8789L235.141 62.4227C235.158 62.4457 235.171 62.4719 235.179 62.4999C235.186 62.5279 235.188 62.5571 235.184 62.5858C235.18 62.6145 235.171 62.6422 235.156 62.6672C235.142 62.6922 235.122 62.7141 235.099 62.7316Z" fill="#263238"/>
<path d="M247.104 57.0237C247.091 57.0634 247.068 57.0988 247.037 57.126C247.005 57.1533 246.967 57.1713 246.926 57.1781C246.893 57.187 246.858 57.187 246.825 57.1781L230.656 52.4261C230.675 52.2744 230.685 52.1217 230.686 51.9688L246.95 56.7861C246.999 56.8011 247.042 56.8332 247.07 56.8767C247.098 56.9202 247.11 56.9722 247.104 57.0237Z" fill="#263238"/>
</svg>
